<svg xmlns="http://www.w3.org/2000/svg" viewBox="0 0 481.92 187.58"><defs><style>.cls-1{fill:#6099d3;}.cls-2{fill:#14141d;}.cls-3{fill:#fefefe;}.cls-4{font-size:140px;font-family:Lato-Light, Lato;font-weight:300;}.cls-5{font-size:40px;fill:#333;font-family:Montserrat-Regular, Montserrat;letter-spacing:-0.01em;}.cls-6{letter-spacing:0em;}.cls-7{letter-spacing:-0.02em;}.cls-8{letter-spacing:0em;}.cls-9{letter-spacing:0em;}.cls-10{letter-spacing:-0.01em;}.cls-11{letter-spacing:0em;}</style></defs><g id="Layer_2" data-name="Layer 2"><g id="Layer_1-2" data-name="Layer 1"><path class="cls-1" d="M357.8,113.59a32.74,32.74,0,0,1-1.1,9.4,45.08,45.08,0,0,1-3.93,10.64c-.32.61-.59.79-1.18.43s-.76.08-.68.56.28,1,.38,1.51a.45.45,0,0,1-.34.52c-.23,0-.23-.22-.32-.37-.26-.42-.13-.94-.31-1.51a.89.89,0,0,0-.23,1.08c.85,1.57-.19,2.64-1,3.72a36.35,36.35,0,0,1-5.08,5.87,49.26,49.26,0,0,1-7,5.76,51.84,51.84,0,0,1-7.84,4.13c-.74.3-1,.09-1.13-.6-.29-1.36.05-2,1.41-2.59a.94.94,0,0,0,.45-1.48,42.37,42.37,0,0,1-3-6.65c-.27-.77-.83-.6-1.37-.41-1.56.56-3.08,1.21-4.67,1.67a18.25,18.25,0,0,1-7.26,1c-1.21-.14-1.72.37-1.72,1.58,0,2.2.06,4.39,0,6.58-.06,1.18.72,1.42,1.43,1.25,1.82-.43,3.64-.13,5.45-.22.33,0,.36.21.46.37.39.68,0,1.46.28,2.18.11.29-.41.36-.69.39a44.83,44.83,0,0,1-8.35.51,1.59,1.59,0,0,0-.22-2,4.13,4.13,0,0,0,0,2c-1.36,0-2.74.17-4-.5-.25-.13-.68.17-1,0a13.69,13.69,0,0,1,0-2.64c-.33.82-1.05,1.54-.55,2.53a8.51,8.51,0,0,1-3.51-.5,47.87,47.87,0,0,1-20.4-10.63,38.67,38.67,0,0,1-4.16-4.51c-.36-.43-.24-.89-.28-1.37s0-1.35-1-.92c-.49.21-.66-.18-.87-.47a40.85,40.85,0,0,1-5.49-10.2c-.71-2-1.34-4-1.89-6A43.1,43.1,0,0,1,265.78,109a46.84,46.84,0,0,1,4-15.54,41.5,41.5,0,0,1,3.27-5.86c.27-.41.4-.5.8-.08,1,1,1.25.93,1.88-.34a3.43,3.43,0,0,0,.36-.68c.17-.9.68-.61,1-.21a3,3,0,0,0,1.57,1.15c.4.13.58.44.4,1-.41,1.19-.34,1.23.93,1,.22-.42-.83-.34-.34-.82s.92.24,1.39.32.53.5.33.89a6.39,6.39,0,0,1-.5.74,1.06,1.06,0,0,0,.1,1.32c.38-.57,1.19,1.06,1.42-.28,0-.22.23-.27.43-.27a.38.38,0,0,1,.42.42c0,.79.31.66.78.26.85-.72.8-1.35-.21-1.78-.41-.18-.41-.64-.78-.88a9,9,0,0,0-1.47-1c-.46-.18-1-.45-.86-1.2s.33-1.44.85-1.43,1.64.33,1.81,1c.26,1,1,.8,1.6,1,.22.08.61-.12.67.23.17,1,.68.74,1.23.38.26-.18.81-.07.78-.47a1.59,1.59,0,0,0-.58-.91c-.36-.32-.59.11-.85.27a1.85,1.85,0,0,1-.29.13c-.06-.08-.15-.17-.14-.19a1.55,1.55,0,0,0,0-1.91,1.59,1.59,0,0,0-1.9.18c-.18.16-.47.33-.7.09s.1-.38.17-.57c.28-.71,0-1.55.56-2.22a7.17,7.17,0,0,1,2.1-1.88,11.76,11.76,0,0,0,2.37-2c.41-.37.14-.73-.1-1.09-.55-.81-1.46-1.38-1.64-2.44l.13-.16a3.62,3.62,0,0,1,1.69,1.72c.47.83,1.44,1.44.3,2.79a2.16,2.16,0,0,1,2.35.48c.31.23.48.33.67-.06s.16-.56-.31-.6a.89.89,0,0,1-.85-.6,8.35,8.35,0,0,0-3.46-4.4c-.7-.47-.63,0-.58.48l-.17.13c-1.65.12-2.63,1.33-3.62,2.41-.85.93-2,1.47-2.71,2.59a.31.31,0,0,1-.48.07c-.28-.25-.07-.46.12-.65a28.68,28.68,0,0,1,2.37-2c.84-.7,1.62-1.49,2.5-2.16A30.33,30.33,0,0,1,289,72.63a2.86,2.86,0,0,1,.74-.15h0c.58,1.21,1.06,2.47,1.75,3.61A7.4,7.4,0,0,1,293,79c0,.21,0,.49.27.54.61.11.52.79.91,1.06s-.22,1.13.54,1.07c.38,0,.7-.59,1.1-.7,1.11-.3,1.09-1.65,2.1-2.07.69-.29,1.41-.39,2.1-.63,1.93-.67,2.06-1,1.24-2.92a2.16,2.16,0,0,1-.15-1.93c.41,1,.78,1.85,1.1,2.71.18.49.34.72.95.53A31.54,31.54,0,0,1,310.57,75c.62,0,1-.44,1-1.3-.06-1.82-.43-3.59-.65-5.39-.2-1.58-.22-1.61,1.35-1.64a58.83,58.83,0,0,1,7.5.64,4.06,4.06,0,0,1,.72.24c-.1,1.14-.1,1.14.82,1.09,0-.5-.55-.67-.7-1.08a2.18,2.18,0,0,1,1.45.32c.1.61.21,1.22.34,2a2.1,2.1,0,0,0,.44-1.83,24.39,24.39,0,0,1,5.23,1.62,50.22,50.22,0,0,1,7.14,3.41,46,46,0,0,1,7.26,5.47c-.49.48-.54,1.22-1.06,1.68-.18.16-.44.4-.2.65s.35-.12.52-.2.33.07.46.26c.27.42.36.11.43-.15h0c.62,0,.92-.63,1.47-.76a21,21,0,0,1,4.06,4.41A45.31,45.31,0,0,1,355,96.65a15.9,15.9,0,0,1,.43,1.68c-.79-.19-.8.45-1,.91a.91.91,0,0,1-.47-.72c-.32-2.34-1.61-4.27-2.56-6.34-.18-.39-.34-.61-.79-.61-1.43,0-2.7,1.82-2.05,3.06a34.94,34.94,0,0,1,3.21,9.38,41.16,41.16,0,0,1,.64,11.77c-.14,1.79-.48,3.53-.78,5.29-.1.57,0,.86.66,1,2.09.48,2.52,1.47,3.05-1.76a51.35,51.35,0,0,0,0-16.78c-.23-1.42-.94-2.73-.9-4.21.47,0,.86-.15.92-.71.66.26.56.93.7,1.42a38.77,38.77,0,0,1,1.71,11.77c-.77,0-.6.74-.7,1.15S357.4,113.55,357.8,113.59ZM307.74,80.9c.33-.13.57.39.81.21s.17-.65,0-1,.1-.66-.2-.93c-.78.32-.39,1.09-.65,1.61-.37,0-.86-.65-1.06.12-.11.43-.12,1.16.4,1.24.68.11.51-.62.6-1.05A.72.72,0,0,1,307.74,80.9Zm37.34,16.67c-1,.09-1.8.8-2.85.77-.47,0-.77.52-1.07.89a.47.47,0,0,0,0,.4c.11.18.3.14.48,0,.93-.5,1.71-1.28,2.87-1.29a.74.74,0,0,0,.6-.82l.09,0s0-.05,0-.07ZM301.44,141c.12.37-.22,1,.39,1.08.43,0,.31-.63.43-1a.67.67,0,0,0-.05-.71c.41-.09.9-.05,1-.65s-.52-.34-.74-.55-.1-.25-.14-.37c1.73.41,3.34,1.27,5.13,1.49a11.06,11.06,0,0,0,2.46.46c1.48-.17,3,.47,4.44-.15a1.82,1.82,0,0,1,.87-.11c.45,0,1.17-.14.83.8-.1.27-.12.65.4.52.25-.07.55-.2.6.2s-.32.3-.54.41-.69.3-.51.77a5.64,5.64,0,0,0,2.35.06,1.1,1.1,0,0,0-.13-1.35c-.27-.31-.32-1.07-1-.76-.3.15-.36.11-.46-.13s0-.54.31-.57a28.93,28.93,0,0,0,3.45-1,28.62,28.62,0,0,0,6.37-2.76,28.3,28.3,0,0,0,3.37-2.26c.84-.57,1.23-.35,1.41.66a3.38,3.38,0,0,0,0,.45,1.45,1.45,0,0,0,1,1.11c.55.14.71-.33.85-.78s.72-.46,1.06-.54,0,.49.22.68c1.51-.67,1.53-.69.64-2.07-.26-.39,0-.84-.33-1.31l-.5,1.72a1.13,1.13,0,0,1-.09-1.21c.1-.21.17-.5-.07-.59-1.4-.52,0-1.37-.26-2,.37-.11.54-.83,1.11-.34.25.21.57.07.87.06h0c-.08.34,0,.7-.31,1a.8.8,0,0,0,.58,1.41c.93-.13,1.82.17,2.73,0,.29-.05.67-.13.71-.43.12-1,.69-.43,1.13-.38s.51.65,1,.64l0,.1.07-.07-.1,0c-.05-.45-.29-1,.58-.87.7.1.88-.95,1.65-.79a.74.74,0,0,0,.19-.47,11.05,11.05,0,0,1,.05-2.57c0-.15.16-.53-.21-.44s-.49.32-.61-.07a.84.84,0,0,1,.29-.88c1-1,1.05-1.66,0-2.68-.3-.29-.29-.73-.69-1.1a2.73,2.73,0,0,1-1.14,1.66c-.41.35-.85.58-1.3.28s0-.69.05-1c.1-.64.55-.46.95-.32.23.08.44.12.56-.14a.53.53,0,0,0-.16-.7,1.49,1.49,0,0,0-1.35-.26c-.56.18-1.34,1.16-1.67-.27,0,0-.17-.1-.18-.08-.55.71-1.39-.37-2,.34a.74.74,0,0,1-.93-.06,1.46,1.46,0,0,0-1.36-.29,4.63,4.63,0,0,1-1.53-.25c-.24-.06-.46-.56-.7-.11s.2.64.49.74a4.45,4.45,0,0,1,1.4.89.56.56,0,0,1,.13.8c-.2.26-.45.09-.7,0a5.22,5.22,0,0,0-1.12-.47c-.38-.09-.87-.56-1.09-.22s.43.54.64.83.48.41.61.63c.43.76,2,.71,1.5,2.11h0c-.93-1.31-2.54-1.19-3.76-2-.13.62.22.73.47.94a6.68,6.68,0,0,1,2.51,3.42.91.91,0,0,1-.48,1.12c-.39.23-.69,0-.94-.32s0-.69.34-.85c.82-.4,0-.8-.1-.85a11.31,11.31,0,0,1-2.26-1.61c-.2-.13-.39-.45-.65-.19s0,.49.17.67.7.72.34,1.14-.82,0-1.19-.2-.55-.52-.87-.2.26.41.31.68c.08.46.61,1,.22,1.34s-.55-.4-.91-.5a.93.93,0,0,1-.2-.1c-.23-.1-.46-.36-.71-.15s-.09.46,0,.72c.34,1,1.26,1.5,1.79,2.33a.72.72,0,0,0,.83.4c.47-.09.42-.49.35-.8s0-.68.44-.68.81-.16,1,.25-.22.57-.51.69a.72.72,0,0,0-.47.79c0,.26,0,.54-.21.72-1,.72-1.93,1.48-3,2.12a29.88,29.88,0,0,1-3.8,1.89,25.89,25.89,0,0,1-6.53,2c-1.89.31-3.79,0-5.65.21-2.71.24-5.2-.56-7.68-1.27a18.17,18.17,0,0,1-5.11-2.61c-2.19-1.52-4.39-2.93-6-5.33-1.42-2.16-3.18-4.12-4.48-6.4a4.45,4.45,0,0,1-.52-3c.06-.33-.19-.56-.08-.84l0,0,0,0c-1,0-1.07-.74-1.16-1.42s-.15-1.21-.28-1.82c-.28-1.37-.95-2.75-.4-4.21,1.18.24,1.82-.18,1.66-1.13l-1.67.78c-.34-.34-.24-.68,0-1,.65-.54,1.57-.27,2.27-.77s1.5-.37,1.87.62a1.22,1.22,0,0,0,.29.59c.65.5.43,1,0,1.49-.59.67-.35.78.39.93.49.09,1.22.23,1,1.13-.11.42.23.53.62.59.67.1,1.2.66,1.05,1.21a1.2,1.2,0,0,1-1.4,1c-.07-.67-.49-.73-1-.58-.78.21-1.55.47-2.34.62-.44.08-.76.18-.6.66s.55.38.92.21a15.5,15.5,0,0,1,3.05-.91c.1.14.09.45.3.42,1-.16.71,1.33,1.64,1.17a1,1,0,0,1-.17.95c-.18.18-.38.34-.57.51-1.28,0-2.21,1.12-3.5,1.13-.18,0-.34.39-.27.66s.37.28.63.2c.91-.27,1.65-1,2.64-1-.16.39-.26.76.31.9-.45.64-1.19.77-1.83,1.09-.37.18-.92.51-.85.9s.66.2,1,.2c.05.44.44.63.68.94,0,.33-.66.59-.17.93.3.22.61-.1.88-.29a9.36,9.36,0,0,1,2.49-1.62c.22.34-.1.45-.27.59s-.32.47,0,.7c-.21.79-1,1-1.49,1.51-.19.19-.63.21-.5.63a.68.68,0,0,0,.34.4c.39.17.57-.15.83-.37.64-.57,1-1.5,2-1.61.09.53.47.37.77.3s.7-.25.85,0c.63.85,1.11.3,1.63-.08.26-.19.78-.11.74-.06-.38.57,1.07,1,.11,1.59-.28.18.15.45.46.51s.61-.44,1-.27c0,.75.48,1.42.32,2.2-1.37.54-1.7,1.85-2.16,3-.12.31.19.58.55.42s.79-.37.84-.92a6.88,6.88,0,0,1,.91-2.39c.49,0,.34.9,1,.67.11,1.21-1.25,1.74-1.31,2.92,0,.42-.44.83.19,1.06s.71-.3.89-.72c.43-.95.47-2.07,1.25-2.86l.88.35a8.27,8.27,0,0,1-.95,2.81c-.18.41-.44,1,0,1.18s.48-.49.7-.78c.45-.6.27-1.51,1-2,.16.23.31.49.67.43-.13.79-.26,1.58-.38,2.38,0,.21-.08.51.15.57a.73.73,0,0,0,.6-.2c.15-.18.16-.48.27-.71.35-.72,0-1.62.59-2.27.28.23.37.68.82.71a6.25,6.25,0,0,1-.18,2c-.08.39-.2.84.41.95.14.48-.46.67-.55,1.14a2,2,0,0,0,1.61-1.8c.12-.93-.36-.36-.65-.29-.17-1.07.43-2.09.23-3.17.58-.21,1.07.14,1.6.28a18.11,18.11,0,0,0-.63,3.36.53.53,0,0,0,.4.69c.44.1.44-.26.47-.56.09-.87.19-1.74.28-2.62a1.29,1.29,0,0,0,1,0c.05,1,.12,2,.14,3,0,.28.11.44.35.47s.42-.23.42-.5a11.14,11.14,0,0,0-.25-3.73c.37-.2.41-.2.46,0,.13.6.22,1.2.32,1.81a13.91,13.91,0,0,0,.37-1.95c0-.31.35-.87.52-.65.6.79,1.35.15,2,.37a4.5,4.5,0,0,0,.16,3.56c.1.29.2.74.64.62s.42-.61.34-.94a13.63,13.63,0,0,0-.73-3c.55.27.87-.17,1.27-.4a16.22,16.22,0,0,1,.56,2.84c0,.44,0,1.06.59,1s.24-.69.22-1.06c0-.92-.68-1.73-.6-2.69.28-.05.62,0,.61-.44s.2-.46.5-.48a5.8,5.8,0,0,0,.68,3.44l-.28,0,.06.12.2-.18a1.05,1.05,0,0,1,.24.23c.18.38.51.65.87.55s.15-.65.3-1c.23-.49-.42-.51-.51-.87s-.35-.59.12-.84.72-.16.91.27.21.63.37.93.34.65.76.36a.51.51,0,0,0,.07-.85,7.59,7.59,0,0,1-.89-1.66c-.25-.46-.35-1.12-1.08-1.13-.08-.26.11-.43.2-.62s-.1-.74.36-.66.1.48.12.75.08.19.35.19a5.21,5.21,0,0,0,.26-4.2,14.34,14.34,0,0,1-.58-3.36,8.47,8.47,0,0,0-.91-4.23c-1.11-1.89,0-3.48.09-5.4.46.65.06,1.29.53,1.78.45-.51,0-1.22.49-1.7.33.55,0,1.2.43,1.74.24-.49-.24-.86.1-1.17.6.11.45.71.67,1.07a1.65,1.65,0,0,0,1-2.51c.54,0,.86,1,1.36.16a1.43,1.43,0,0,1,2-.68c.12.06.27.12.39,0,.15-.53-.57-.67-.52-1.24,1.09.14,1.52-1.33,2.72-1,.3.07.33-.35.31-.61,0-.61.14-1.23-.34-1.81a2.71,2.71,0,0,0-1.63-.79.84.84,0,0,1,.91-.44c1.22.43,1.27-.22,1.3-1.15,0-.29-.3-1.61.93-.78.24.16.44-.22.68-.29.5-.15,1.07-.35,1.05.56,0,.18.08.37.33.32.34-.28.13-1,.24-1,1.38.56.61-.34.6-.79s.35-.5.71-.5.41-.42.19-.49c-1.45-.49-.28-.94,0-1.41s.72-.44.64-1c-.74.05-1.46.05-2.2.15a2.87,2.87,0,0,0-2.46,1.53c-.4.84-1,.54-1.51.43s-.67-.68-.43-1.27a12,12,0,0,1,3.22-5c.63-.52,1.11-1.15.49-2.08a17.75,17.75,0,0,0-2.35-2.9c-1.29-1.26-1.56-2.4.23-3.28.26.55.52.63,1.09.26s.37-.9.28-1.4c.85-1.07,2.16-1.79,2.53-3.25.06-.26.25-.52,0-.71s-.33.19-.51.24a3.13,3.13,0,0,0-1.77,1.42c-.57,1-1.64,1.46-2.39,2.29a4,4,0,0,1-1.37,1.22c-.23.08-.37.34-.68.15a6.83,6.83,0,0,1-1.65-1.47c-.35-.42.41-.73.3-1.18,1.11.12.82-.93,1.2-1.42.18,0,.37.23.56-.09.51-.86.34-2.1,1.47-2.63.19-.09.12-.41,0-.61s-.29-.39-.53-.29A8.63,8.63,0,0,0,328,82.34a4.63,4.63,0,0,0-1.06,1.9c-.15.47-.63,1.22-1.23,1a5.81,5.81,0,0,1-3-1.75c1-.13.84-.89.88-1.54.49,0,.73-.44,1.07-.72.75-.62.5-1.71,1.17-2.34a1.71,1.71,0,0,0,.43-1.61c-1.48.22-2.38,1.28-3.44,2.07.36.57.83-.08,1.28,0a6.28,6.28,0,0,0-.51,2.55c-1,.12-.74.94-.88,1.54-.21,0-.43-.1-.64.06a2.25,2.25,0,0,1-2.32.09,1.2,1.2,0,0,1-.89-1.4,11.63,11.63,0,0,1,.54-2c.42-1.81-.56-3.33-.83-5-1.93,1.1-2,1.29-.91,3.24a.75.75,0,0,1,0,.42,15.46,15.46,0,0,1-1.4,3.33c-.12.28-.71.66-1.11.94s-.37,0-.46-.35c-.16-.59.23-1.22-.29-2-.15,1-1.33,1.21-1.39,2.26.07-.62,0-1.14-.7-1.15-1.34,0-.42,1.38-1.16,1.83a.74.74,0,0,0-.64-.65c-.32-.07-.71-.33-.49-.76a.76.76,0,0,0-.58-1.18c-.47-.06-.58.56-.61,1a3,3,0,0,1-1.12,2.18c-.27.23-.67,1.08-.88-.1,0-.24-.53-.23-.67.13s0,.52-.1.77,0,.76-.42.85-.49-.35-.67-.62-.23-.49-.61-.35l-.11,1.88c-.55-.49-.9-1.61-1.51-.24-.15.34-1.3-.09-1.18-.46.31-.89-.38-1.21-.64-1.78a5,5,0,0,0-2.24-2.3c-.15.95.6,1.33.91,1.91s1.06.65.48,1.41c-.11.15.11.72.39.61.64-.27.46.16.54.46a5.12,5.12,0,0,1,.2,1.65h0c-.52-.64-1.6-.62-1.71-1.64-.56.36.3,1.18-.64,1.25-.37-.23-.62-.43-1.16-.1a24.27,24.27,0,0,0-5.81,4.75A30.22,30.22,0,0,0,286.1,102a27.53,27.53,0,0,0-1.76,12c.09,1.18.3,2.36.3,3.54,0,1.34.7,2.47.9,3.77a12.31,12.31,0,0,0,1.8,4,33.2,33.2,0,0,0,5,6.8c.55.54,1.19,1,1.72,1.56a18.72,18.72,0,0,0,4.73,3.43c1.06.63,2.28.9,3.3,1.59C301,139.38,300.76,140.34,301.44,141Zm-4.5-12.45c-.21-.25.16-.75-.29-.86s-.49.28-.7.48c-.58.52-1.14,1.06-1.7,1.59-.21.21-.49.44-.24.75s.53.06.74-.14.47-.57.74-.82c.42-.38.68-1,1.42-.89a.83.83,0,0,0,.3.83.4.4,0,0,1-.42.42c-.13-.13-.05-.51-.34-.41s-.31.41-.17.69c.2.6-.45.65-.63,1s-.57.51-.26.83a.69.69,0,0,0,1.09.05c.69-1.08,1.81-1.89,2-3.27.22-.21.58-.47.22-.73s-.17.51-.55.42a.68.68,0,0,1-.64.45C297.19,129,297.26,128.48,296.94,128.54Zm-10.29-12.48c.08.66.25,1.08,1.1.78a18.79,18.79,0,0,1,2.37-.49c.23,0,.62.09.58-.31s-.43-.32-.71-.32c-1,0-1.95.45-2.95.21.11-.45.82-.15.88-.81-.35-.13-.78-.13-1.07-.43C286.52,115.18,286.7,115.63,286.65,116.06Zm6.71,25.42h0c.54.37.82-.06.83-.42a10.81,10.81,0,0,0,.2-3c-.12.48-.23.82-.73.77-.3,0-.57.11-.43.43.22.5,0,.59-.4.78s-.89.58-.87.83c.05.48.71.38,1.09.56A.88.88,0,0,0,293.36,141.48Zm41.12-27.87c-.06.37-.18.79.39.85,1,.11,2.06.21,3.09.29a.46.46,0,0,0,.53-.31.57.57,0,0,0-.34-.64,1.45,1.45,0,0,0-.87,0,3.72,3.72,0,0,1-2.33-.22c.07-.36-.07-.77.28-1,.58-.47.28-1,.08-1.49a2.11,2.11,0,0,1,.74-2.88c-.5-.7-1.63-.53-1.91-1.46L333,109.18c-.5-.32,0-1-.59-1.21-.09.36-.07.75-.26,1a1.82,1.82,0,0,0,0,2.71.51.51,0,0,1,.06.41c-.27.92-.19,1,.85.91-.36.73-.56,1.44.46,1.81C333.39,113.17,333.39,113.17,334.48,113.61Zm7.69,6.81h0c.42.7,1.23.87,1.85,1.26.45.29.85-.16,1.06-.68s-.14-1.31.13-1.95c0-.06-.18-.33-.24-.31-.63.18-1.49-.52-1.93.48-.11.25-.61.57-.6.27,0-.94-1.05-1.06-1.16-1.81a1.42,1.42,0,0,0-1.47-1.2,9.77,9.77,0,0,1-1.73-.29c-1.3-.28-2.62-.44-3.94-.65-1.14.57-1.56,1.54-1,3-.11-1.18,1-1.38,1-2.2a12,12,0,0,1,2.3.43c.47.06,1,.16.86.77s-.69.46-1.09.41c-.62-.09-1.23-.28-1.85-.39a.45.45,0,0,0-.56.26c-.08.24.13.32.31.38a14.39,14.39,0,0,0,2.73.86,7.47,7.47,0,0,1,2.55.29A13.94,13.94,0,0,1,342.17,120.42Zm-49.71,27.33h0c0,.36.37.76-.19,1a.4.4,0,0,0-.1.67c.37.36.38.58-.14.8a.33.33,0,0,0,0,.56c.3.2.18-.33.3-.27.39.22.44-.14.62-.29,1-.87,1.14-2.09,1.52-3.24-.65,0-2-.84-1.92-1.3.13-.85-.41-1.62-.18-2.49.16-.58-.49-.63-.84-.82-.18-.1-.67-.33-.67-.07,0,.91-1.12,1.27-.91,2.22-.6-.11-1.21-.87-1.58,0-.18.42-.09.33-.48.19-.57-.2-.83.41-1.08.84-.1.17-.11.47.1.45,1.4-.1,1,.61.66,1.36a.48.48,0,0,0,.05.42c.42.46.3.82-.11,1.22-.23.21-.33.61-.05.79s.44-.19.6-.42.43-1.21,1-.6,1.21.48,1.67,1c.27.33.53.08.66-.36A2.49,2.49,0,0,1,292.46,147.75Zm-17.67-20.64c.23-.79-.32-1.31-.54-1.9-.51.24-1.15-.31-1.57.19s-.05.91.08,1.38c.08.28.66.49.25.83a2.06,2.06,0,0,0-.93,1.88c0,.13-.28.31-.05.45a.59.59,0,0,0,.52,0c1.62-1,3.46-1.54,5-2.56,1.38-.92,3-1.3,4.3-2.31a.33.33,0,0,1,.29,0c.87.48,1.26.34,1.25-.76,0-.86,1.38-.36,1.43-1.28a.57.57,0,0,0,0-.22c-.2-.8-.75-1-1.55-.6s-1.64.81-2.4,1.29c-.45.29-1,.19-1.44.38-.75.29-1.45.9-2.41.78-.33,0-1.14.48-1,.92C276.44,126.83,275.44,126.79,274.79,127.11Zm50.47,8.28c.71-.49.52-1.06.33-1.63a.72.72,0,0,1,.2-.9c.42-.31.47.15.65.33s.53.37.8.18.18-.54,0-.8q-.6-.93-1.23-1.83c-.2-.27-.45-.55-.83-.48s-.18.5-.29.74,0,.67-.53.47c-.27-.11-.45-.65-.82-.28s-.15.82,0,1.25C323.89,133.55,324.89,134.25,325.26,135.39Zm23.79-22c1.4-.64,1.67-1.44.8-2.36-.21.23.23.75-.3.81-.37,0-.46-.33-.52-.61a1.67,1.67,0,0,0-2.34-1.52c-.26.07-.74.26-.65.29.73.25-.24,1.41.76,1.38C348.62,111.3,349.12,111.73,349.05,113.36Zm.48-4.14a3.87,3.87,0,0,1,.05-2.2c.18-.83-.28-1.65-.94-1.54s-1.55-.16-1.81.4-.14,1.55.35,1.7C348.11,107.88,348.49,108.8,349.53,109.22Zm-5.23,6.29c-.1-1-.46-1.71-.19-2.48s.22-1.46-.73-1.77c-.22-.07,0-.6-.56-.4s-.67.82-.85,1.31c-.11.3,0,.76.3.73.91-.08.75.74.71,1C342.83,115,343.51,115.16,344.3,115.51Zm-68-5.32c-.45,0-.9-.07-1.29-.07a8.82,8.82,0,0,0-3.2.14c-.46.18-.95.46-.32,1C272.63,112.25,275.53,111.63,276.3,110.19Zm22.78,38.95c.1,0,.15.06.17.05a16.21,16.21,0,0,0,3.47-4.14.39.39,0,0,0-.05-.3.67.67,0,0,0-.4.05C300.74,145.9,299.27,147.05,299.08,149.14Zm38.51-14.73c.79,1.5,1.53,2,2.55,1.77.31-.08.91,0,.83-.63s-.62-1.2-1-1.08C339.15,134.72,338.45,134.23,337.59,134.41Zm-40.43-1.18c-.12.24-.22.44,0,.56a.52.52,0,0,0,.63-.08,13.67,13.67,0,0,0,2.11-3.06.39.39,0,0,0-.18-.56c-.28-.17-.4,0-.52.2-.34.62-.87,1.11-1.25,1.67S296.92,132.59,297.16,133.23ZM314,135.37c.06.63.14,1.37.21,2.1,0,.31,0,.63.43.66s.49-.34.49-.6a8,8,0,0,0-.37-3c-.07-.18-.15-.35-.37-.34a.39.39,0,0,0-.39.45Zm24-47.13c-.66-.07-1.88,1.53-1.69,2.16.08.29.31.29.51.15.71-.5,1.4-1,2.11-1.52.3-.21.17-.39,0-.49A8.49,8.49,0,0,0,338.07,88.24Zm-50.19,32.89a11.86,11.86,0,0,0,3.59-1.06c.18-.15.34-.33.2-.56s-.38-.13-.59-.06l-2.3.82C288.36,120.42,288,120.6,287.88,121.13Zm48.66.27c.23-.1.55,0,.66-.29s-.16-.52-.42-.69a13.61,13.61,0,0,0-3.06-.9c-.16,0-.41,0-.43.22a.47.47,0,0,0,.2.36A12.14,12.14,0,0,0,336.54,121.4Zm-4.19,15.9c.07,1.06-.11,2.14,1.45,2.27.88.08.7-.22.53-.65C334,138,333,137.91,332.35,137.3Zm9-31.17c.13.48-.84.54-.32,1.17-.36.23,0,1.26-1,.82-.3-.14-.79,0-.7.45.15.67.89.33,1.33.56.25.13.8.17.77-.31C341.4,107.93,342.15,107.06,341.39,106.13Zm7.18,10.29c-1.06.32-1.89-.78-2.9-.31C346.36,117.68,346.65,117.71,348.57,116.42ZM331.18,85.23A1.06,1.06,0,0,0,330.12,84c-.45,0-.46.54-.5,1a1.2,1.2,0,0,0,1.09,1.28C331.15,86.27,331.11,85.54,331.18,85.23Zm11.54,58.23c.31-1,1.32-1.24,2-1.87.27-.25.37-.4.18-.72s-.4-.24-.62,0A13.88,13.88,0,0,1,343,142,.91.91,0,0,0,342.72,143.46Zm-5.41,4.27c.05-.48.08-.95-.58-.91a.77.77,0,0,0-.74.83c.05.47.21,1.15.85,1.11S337.32,148.14,337.31,147.73ZM283,100.52c-.4.16-.79.39-.68.7.21.59.86.8,1.39,1,.28.1.44-.42.42-.73C284.09,100.75,283.25,101,283,100.52Zm-2.94,5.65a5.45,5.45,0,0,0,2,.92c.28,0,.64.14.66-.33a.51.51,0,0,0-.52-.59C281.5,106.16,280.79,106.17,280.07,106.17Zm7.22-22.37a3.35,3.35,0,0,1,0-.61c.17-.86-1-.34-1-1-.06,0-.15,0-.17,0-.29.52.19.56.45.76s.1.35,0,.35c-.5,0-.61.22-.28.57s.47.65.89.55S287.26,84,287.29,83.8ZM328.69,139c.1-.6-.44-.71-.82-.77a.67.67,0,0,0-.74.67c0,.61.57.81,1.11.84S328.69,139.34,328.69,139ZM297.56,85.1c0-.48,0-.93-.66-.95s-.64.48-.66.75c0,.48.41.8.85.88S297.55,85.42,297.56,85.1Zm-15.27,31.24c0-.64.43-.82.88-1a.41.41,0,0,0,.24-.46c-.05-.23-.26-.25-.44-.22-.39.06-1.07-.24-1.11.07A1.42,1.42,0,0,0,282.29,116.34Zm29.62,26.83c0,.34,0,.93.56,1s.56-.65.6-1.1,0-.88-.59-.87S311.91,142.63,311.91,143.17Zm-26.09-43a6.1,6.1,0,0,0-2.7-.78C283.8,100.58,284.31,100.71,285.82,100.13ZM297,138.22c-.28.25-.88.27-.86.81,0,.28.14.72.59.65a.9.9,0,0,0,.8-1C297.55,138.36,297.39,138.19,297,138.22ZM341.43,102c.38-.2,1-.13,1.07-.84.05-.38-.12-.52-.41-.46-.53.1-1.16.19-1.34.79C340.67,101.75,341,102,341.43,102Zm-18.51,38.4c-.31.09-.52.32-.41.64s.2,1.05.8,1c.37,0,.46-.53.46-.89S323.36,140.52,322.92,140.4Zm-41.48-28c.36-.1.94.35.91-.43,0-.61-.51-.41-.83-.42s-.84,0-.84.47S281.11,112.47,281.44,112.37Zm58.25,24.84c-.26,0-.67.11-.5.3a3.12,3.12,0,0,0,1.35,1c.68.2-.17-.67.37-.71C340.63,137.24,340,137.49,339.69,137.21Zm-32.05,5.35c0-.38,0-.84-.52-.79s-.51.56-.56.95,0,.64.41.65S307.64,143,307.64,142.56ZM341.33,93.2c.77-.52,1.38-1,1.86,0a.24.24,0,0,0,.38,0c.14-.14,0-.27,0-.39s-.23-.78-.59-.7C342.38,92.23,341.63,92.11,341.33,93.2Zm-58.72,17.31c.31-.32,1.18,0,1.17-.47,0-.74-.67-.06-1-.2a.93.93,0,0,1-.2-.1c-.23-.15-.44-.46-.75-.18a.41.41,0,0,0,0,.39C282,110.23,282.14,110.53,282.61,110.51ZM339.1,97.07c.29-.42,1.16-.21,1.25-1,0-.29-.28-.38-.47-.3-.47.21-1.18.06-1.31.79C338.53,96.85,338.67,97.09,339.1,97.07ZM302.54,82.93c-.17-.38-.25-.93-.87-1-.23,0-.48.07-.44.36a1.5,1.5,0,0,0,.87,1.3C302.32,83.64,302.52,83.31,302.54,82.93Zm29.34,35.42a4.49,4.49,0,0,0-.76,2.89C331.87,120.31,332.4,119.59,331.88,118.35Zm-39.56,18.37a2.56,2.56,0,0,0,.91-1.19c.12-.42-.34-.31-.53-.28-.6.08-.77.58-.88,1.07C291.77,136.56,291.9,136.75,292.32,136.72Zm6-56.06c.17.55.78.76,1.24,1.09.15.11.32-.23.24-.37-.28-.46-.51-1-1.07-1.18C298.46,80.11,298.33,80.29,298.33,80.66ZM337,91.86c-.05-.26-.17-.53-.46-.52-.55,0-.81.48-1,.89s.21.44.47.38C336.45,92.52,336.88,92.39,337,91.86Zm-55.15,26.08c.21-.08.63.14.72-.37.12-.71-.54-.48-.83-.64a.43.43,0,0,0-.62.42C281.07,117.8,281.38,117.92,281.84,117.94Zm7.66,13.82a.36.36,0,0,0-.43-.36,1.21,1.21,0,0,0-1,.88c-.08.24.19.43.41.38A1.26,1.26,0,0,0,289.5,131.76Zm-4-3.53c.28-.24.8-.4.81-1,0-.2-.33-.46-.47-.29-.31.34-1.05.18-1,.85C284.89,128.1,285.12,128.26,285.54,128.23Zm7.6-40.16a.83.83,0,0,0-.69-.75.39.39,0,0,0-.41.52c.1.39.26.81.73.88S293.16,88.48,293.14,88.07ZM342.89,117c-.23.08-.77-.06-.68.41.12.64.83.29,1.23.51.2.1.52,0,.46-.28C343.8,117.16,343.38,117.05,342.89,117ZM312.26,77.42c0,.7-.4,1.46.16,2.26A2.08,2.08,0,0,0,312.26,77.42Zm-7.12,5-.3.06.53,2.1C305.73,83.78,305.27,83.14,305.14,82.43ZM289,92.47c.17,0,.46.1.42-.27s-.41-.67-.8-.81-.42,0-.41.31A.73.73,0,0,0,289,92.47Zm.07,19.68c-.47.28-1,.12-1.16.66,0,0,.13.16.21.18C288.61,113.12,288.9,112.88,289,112.15Zm46.12,27.57c.29-.5.76-1.14-.4-1.27Zm.53-33.48c0-.23-.15-.31-.36-.32a.38.38,0,0,0-.42.29c0,.16.06.28.24.3S335.58,106.52,335.67,106.24ZM272,127c0,.06-.08.13-.06.17s.1.06.16.08.08-.13.06-.17S272.08,127,272,127Zm64.65-23.56,0-.07h-.05Zm-4,15.74s-.08,0-.08.06a1.11,1.11,0,0,0,.07.16s.07,0,.07-.06A1,1,0,0,0,332.64,119.18ZM335.78,91s.07,0,.08,0,0-.07,0-.11l-.14.07Z"/><path class="cls-1" d="M319.14,151.78c.07.55-.21,1.11.26,1.61.24.25,0,.55-.29.52-1.9-.17-3.74.58-5.65.29-.36-.06-.65-.11-.57-.46.36-1.53-.15-3.06.14-4.61s.15-1.66,1.81-1.78a55.29,55.29,0,0,0,6.58-.84,17.14,17.14,0,0,0,3.35-1.37c1.33-.61,1.69-.56,2,.72.31,1.5,1.31,2.61,1.78,4s.38,1.44-1.05,1.46a2,2,0,0,0-1,.26c-1,.54-2.11,1-3.18,1.42-.24.1-.54.23-.67-.11s.15-.41.34-.51.49-.16.72-.27c.07,0,.11-.19.11-.29a.16.16,0,0,0-.24-.13c-.15.08-.21.22-.43,0-.69-.65-1.16-.5-1.25.46-.06.6-.17,1-.8,1.11s-.92-.18-1.1-.79C319.83,152.2,319.42,152,319.14,151.78Z"/><path class="cls-1" d="M309.91,73.64c.14.32-.09.35-.33.36a20.06,20.06,0,0,0-5.5,1.36c-.57.2-.59-.19-.68-.43-.73-2.06-1.43-4.14-2.14-6.21-.21-.62.07-.91.65-1a33.52,33.52,0,0,1,6.23-.8c.31,0,.73-.12.8.36C309.28,69.39,309.59,71.51,309.91,73.64Z"/><path class="cls-1" d="M297.82,70c.18.68-.34,1.44.25,2.08.14.16.18.48.34.55,1.66.66,1.11,2.55,2,3.63a.61.61,0,0,1-.39.9,44.35,44.35,0,0,0-4.68,2.07c-.41.2-.62.18-.9-.23-1.08-1.6-1.72-3.44-2.91-5a.84.84,0,0,1,.2-1.36A20.58,20.58,0,0,1,297.83,70Z"/><path class="cls-1" d="M287.24,78.52c0,.25-.53.42-.84.61-1.48.88-2.35,2.39-3.65,3.44A20,20,0,0,0,279.8,86a.55.55,0,0,1-.66.25,1.49,1.49,0,0,1-.8-2.48c.33-.38.69-.82,1.26-.18a.75.75,0,0,0,1.25,0c.49-.58-.05-.82-.4-1-.57-.31-.51-.66-.16-1a22.39,22.39,0,0,1,3.24-3.29l1.33-1c.36-.27.61-.9,1.18-.55A2.38,2.38,0,0,1,287.24,78.52Z"/><path class="cls-1" d="M320.18,156.29c.37.28.87,1,1-.14,0-.36.5-.39.83-.47s.57-.14.6-.53-.08-.7.37-.64.26.48.32.75a2.31,2.31,0,0,1-2.94,2.77C319.92,157.91,319.88,157.59,320.18,156.29Z"/><path class="cls-1" d="M324.37,154.24c.48.1.32,1.54,1.18.17l.1,1.62c.32-.23.69-.72,1-.1s-.31.55-.59.72a1.46,1.46,0,0,1-.41.16c-.66.16-1.49.8-1.94.22s0-1.46.38-2.15C324.17,154.68,324.26,154.48,324.37,154.24Z"/><path class="cls-2" d="M342.62,80.76c-.07.26-.16.57-.43.15-.13-.19-.17-.42-.46-.26s-.29.44-.52.2,0-.49.2-.65c.52-.46.57-1.2,1.06-1.68L344.08,80c-.55.13-.85.75-1.47.76l-.1-.35s-.07,0-.08.06S342.48,80.72,342.62,80.76Z"/><path class="cls-2" d="M304.65,158.25c-.5-1,.22-1.71.55-2.53a13.69,13.69,0,0,0,0,2.64Z"/><path class="cls-2" d="M357.8,113.59c-.4,0-.81-.29-.73-.64s-.07-1.11.7-1.15Z"/><path class="cls-2" d="M322.84,68a2.1,2.1,0,0,1-.44,1.83c-.13-.75-.24-1.36-.34-2Z"/><path class="cls-1" d="M294.5,70.13a4.07,4.07,0,0,1-2.29,1A4.31,4.31,0,0,1,294.5,70.13Z"/><path class="cls-2" d="M310.27,158.9a4.13,4.13,0,0,1,0-2,1.59,1.59,0,0,1,.22,2A.74.74,0,0,0,310.27,158.9Z"/><path class="cls-2" d="M355.36,98.61c-.06.56-.45.68-.92.71l0-.08c.19-.46.2-1.1,1-.91Z"/><path class="cls-2" d="M320.61,67.56c.15.41.67.58.7,1.08-.92,0-.92,0-.82-1.09Z"/><path class="cls-1" d="M286.67,75.35l-.23-.22.17-.13.19.19Z"/><path class="cls-1" d="M289.77,72.48l0-.1-.05.09Z"/><path class="cls-1" d="M297.83,70l.11-.08s0,.06,0,.06a.17.17,0,0,1-.1,0Z"/><path class="cls-2" d="M302.53,132.05c-.64.23-.49-.68-1-.67a.26.26,0,0,1-.15-.14c.16-.78-.35-1.45-.32-2.2-.44-.17-.66.35-1,.27s-.74-.33-.46-.51c1-.63-.49-1-.11-1.59,0,0-.48-.13-.74.06-.52.38-1,.93-1.63.08-.15-.21-.56,0-.85,0s-.68.23-.77-.3a.58.58,0,0,0,.11-.93c-.3-.31-.58-.06-.84.13a4,4,0,0,1-.46.24c-.31-.23-.31-.45,0-.7s.49-.25.27-.59c0-.17,0-.35-.05-.53s-.08-.37-.35-.25a2.43,2.43,0,0,0-1.18.63c-.23-.07-.35,0-.32.25h0c-.28-.11-.41,0-.43.28a.33.33,0,0,0-.14,0c-.23-.08-.31,0-.28.25l-.46.32c-.24-.31-.63-.5-.68-.94a7.82,7.82,0,0,1,2-1.2c.47-.18,1.11-.42.73-1.2-.2-.5-.41-.48-.62,0l-.49.21c-.57-.14-.47-.51-.31-.9.36-.22.83-.39.5-1,.19-.17.39-.33.57-.51a1,1,0,0,0,.17-.95c-.93.16-.68-1.33-1.64-1.17-.21,0-.2-.28-.3-.42h0a1.2,1.2,0,0,0,1.4-1c.15-.55-.38-1.11-1.05-1.21-.39-.06-.73-.17-.62-.59.24-.9-.49-1-1-1.13-.74-.15-1-.26-.39-.93.4-.46.62-1,0-1.49a1.22,1.22,0,0,1-.29-.59c-.37-1-1.05-1.19-1.87-.62s-1.62.23-2.27.77c0-.33,0-.66,0-1a17.89,17.89,0,0,0,3.43-1c1.17-.61,1.18-1.08.1-1.87-.54-.4-1.28-.57-1.61-1.22.4-.51,1.31.4,1.45-.62.06,0,.26,0,.09-.15l-.08.17-1.58-.68c1.34-.19,1.34-.19,1-1l.44,0c.33,0,.79-.06.67-.5s-.5-.12-.77-.05a1.54,1.54,0,0,1-1.71-.47l.3-1c.57.09,1.14.16,1.7.29.18,0,.35.15.46-.07s-.09-.35-.23-.43c-.46-.27-1-.51-1.43-.76l.32-.68h3.06a4.15,4.15,0,0,0-.29-.48c-.38-.46-.84-.76-.07-1.44.54-.47,1.09-1.47-.29-1.91,0,0-.08-.12-.12-.18l.9-1.25c.37-.42,1.1,1.11,1.3-.25,1.44.15-.12-1,.56-1.19.13,0,.15.16.23.28a.73.73,0,0,0,1.08.12c.35-.23,0-.71-.17-.82-.67-.36-.08-.87-.22-1.27l.18-.15c.14.16.25.44.51.32s.23-.48.1-.76l.43-.48c.39.14.47,0,.38-.38l.08-.06a3.21,3.21,0,0,0,2.05-.16,2.51,2.51,0,0,1-.39-1.11c.82,0,1.13-.79,1.67-1.21.94-.08.08-.9.64-1.26.11,1,1.19,1,1.71,1.64l.09,0-.1,0a5.12,5.12,0,0,0-.2-1.65c-.08-.3.1-.73-.54-.46-.28.11-.5-.46-.39-.61.58-.76-.23-1-.48-1.41s-1.06-1-.91-1.91a5,5,0,0,1,2.24,2.3c.26.57,1,.89.64,1.78-.12.37,1,.8,1.18.46.61-1.37,1-.25,1.51.24l.11-1.88c.38-.14.48.14.61.35s.27.71.67.62.34-.54.42-.85,0-.54.1-.77.63-.37.67-.13c.21,1.18.61.33.88.1a3,3,0,0,0,1.12-2.18c0-.44.14-1.06.61-1a.76.76,0,0,1,.58,1.18c-.22.43.17.69.49.76a.74.74,0,0,1,.64.65c.74-.45-.18-1.87,1.16-1.83.71,0,.77.53.7,1.15.06-1,1.24-1.21,1.39-2.26.52.73.13,1.36.29,2,.09.33.19.54.46.35s1-.66,1.11-.94a15.46,15.46,0,0,0,1.4-3.33.75.75,0,0,0,0-.42c-1.07-2-1-2.14.91-3.24.27,1.71,1.25,3.23.83,5a11.63,11.63,0,0,0-.54,2,1.2,1.2,0,0,0,.89,1.4,2.25,2.25,0,0,0,2.32-.09c.21-.16.43,0,.64-.06h0a5.81,5.81,0,0,0,3,1.75c.6.23,1.08-.52,1.23-1a4.63,4.63,0,0,1,1.06-1.9,8.63,8.63,0,0,1,2.13-1.51c.24-.1.42.09.53.29s.19.52,0,.61c-1.13.53-1,1.77-1.47,2.63-.19.32-.38.06-.56.09-.38-.54-.72-.28-1,.07s-.2.89-.17,1.35-.65.76-.3,1.18a6.83,6.83,0,0,0,1.65,1.47c.31.19.45-.07.68-.15a4,4,0,0,0,1.37-1.22c.75-.83,1.82-1.3,2.39-2.29A3.13,3.13,0,0,1,335,83.44c.18,0,.26-.45.51-.24s0,.45,0,.71c-.37,1.46-1.68,2.18-2.53,3.25-.42,0-.59.32-.82.57-.17,0-.25,0-.22.22l-.33.35c-1.79.88-1.52,2-.23,3.28a17.75,17.75,0,0,1,2.35,2.9c.62.93.14,1.56-.49,2.08a12,12,0,0,0-3.22,5c-.24.59-.15,1.13.43,1.27s1.11.41,1.51-.43a2.87,2.87,0,0,1,2.46-1.53c.74-.1,1.46-.1,2.2-.15.08.6-.45.71-.64,1s-1.44.92,0,1.41c.22.07.27.48-.19.49s-.72.06-.71.5.78,1.35-.6.79c-.11,0,.1.7-.23,1-.26,0-.34-.14-.34-.32,0-.91-.55-.71-1.05-.56-.24.07-.44.45-.68.29-1.23-.83-.92.49-.93.78,0,.93-.08,1.58-1.3,1.15a.84.84,0,0,0-.91.44,2.71,2.71,0,0,1,1.63.79c.48.58.3,1.2.34,1.81,0,.26,0,.68-.31.61-1.2-.28-1.63,1.19-2.72,1-.05.57.67.71.52,1.23-.12.16-.27.1-.39,0a1.43,1.43,0,0,0-2,.68c-.5.8-.82-.12-1.36-.16a1.65,1.65,0,0,1-1,2.51c-.22-.36-.07-1-.67-1.07-.34.31.14.68-.1,1.17-.45-.54-.1-1.19-.43-1.74-.49.48,0,1.19-.49,1.7-.47-.49-.07-1.13-.53-1.78-.05,1.92-1.2,3.51-.09,5.4a8.47,8.47,0,0,1,.91,4.23,14.34,14.34,0,0,0,.58,3.36,5.21,5.21,0,0,1-.26,4.2c-.27,0-.33-.07-.35-.19s.33-.68-.12-.75-.25.43-.36.66-.28.36-.2.62h0c-.39.09-.72.67-1.21.06-.14-.18-.3.2-.4.37l-.21.15c-.3,0-.5.16-.5.48s-.33.39-.61.44c-.24-.27-.49-.36-.77-.05s-.72.67-1.27.4l-.41-.23c-.62-.22-1.37.42-2-.37-.17-.22-.47.34-.52.65a13.91,13.91,0,0,1-.37,1.95c-.1-.61-.19-1.21-.32-1.81-.05-.25-.09-.25-.46,0-.62-.05-.62.39-.66.81a1.29,1.29,0,0,1-1,0c0-.4.13-.87-.52-.87s-1-.49-1.6-.28l-.36,0c-.17,0-.36-.09-.44.1s.06.23.1.34l-.17.79c-.45,0-.54-.48-.82-.71.07-.34.09-.68-.31-.83s-.46.12-.6.34a.43.43,0,0,0-.27.56.3.3,0,0,0-.05.16c-.36.06-.51-.2-.67-.43.05-.26,0-.56.24-.75,0-.26.28-.73-.36-.63l-.22,0c-.19-.16-.3-.1-.36.12l-.06.05-.88-.35a.49.49,0,0,0-.44-.52c0-.23-.14-.42-.4-.35s-.3.25-.19.48Zm15.25-49.74c.61-.3.4-1,.61-1.42.08-.2-.13-.39-.41-.39-.75,0-.66.69-.78,1.11S317.45,82.17,317.78,82.31Z"/><path class="cls-3" d="M287,101.8l-.3,1a14.14,14.14,0,0,0-1.42,4.73,5.31,5.31,0,0,0-.05,2.8c0,.34,0,.67,0,1-.24.34-.34.68,0,1v.35c-.55,1.46.12,2.84.4,4.21.13.61.19,1.21.28,1.82s.15,1.47,1.16,1.42h0c-.11.28.14.51.08.84a4.45,4.45,0,0,0,.52,3c1.3,2.28,3.06,4.24,4.48,6.4,1.59,2.4,3.79,3.81,6,5.33a18.17,18.17,0,0,0,5.11,2.61c2.48.71,5,1.51,7.68,1.27,1.86-.17,3.76.1,5.65-.21a25.89,25.89,0,0,0,6.53-2,29.88,29.88,0,0,0,3.8-1.89c1-.64,2-1.4,3-2.12.25-.18.23-.46.21-.72a.72.72,0,0,1,.47-.79c.29-.12.73-.24.51-.69s-.66-.26-1-.25-.53.27-.44.68.12.71-.35.8a.72.72,0,0,1-.83-.4c-.53-.83-1.45-1.35-1.79-2.33-.08-.26-.23-.53,0-.72s.48,0,.71.15a.93.93,0,0,0,.2.1c.36.1.45.93.91.5s-.14-.88-.22-1.34c-.05-.27-.64-.33-.31-.68s.59,0,.87.2.81.65,1.19.2,0-.81-.34-1.14-.42-.42-.17-.67.45.06.65.19a11.31,11.31,0,0,0,2.26,1.61c.12.05.92.45.1.85-.33.16-.7.37-.34.85s.55.55.94.32a.91.91,0,0,0,.48-1.12,6.68,6.68,0,0,0-2.51-3.42c-.25-.21-.6-.32-.47-.94,1.22.81,2.83.69,3.76,2,0,0,0,0,0,.07s0,0,.05,0l-.1-.08c.5-1.4-1.07-1.35-1.5-2.11-.13-.22-.43-.38-.61-.63s-1-.34-.64-.83.71.13,1.09.22a5.22,5.22,0,0,1,1.12.47c.25.12.5.29.7,0a.56.56,0,0,0-.13-.8,4.45,4.45,0,0,0-1.4-.89c-.29-.1-.69-.35-.49-.74s.46,0,.7.11a4.63,4.63,0,0,0,1.53.25,1.46,1.46,0,0,1,1.36.29.74.74,0,0,0,.93.06c.6-.71,1.44.37,2-.34,0,0,.17,0,.18.08.33,1.43,1.11.45,1.67.27a1.49,1.49,0,0,1,1.35.26.53.53,0,0,1,.16.7c-.12.26-.33.22-.56.14-.4-.14-.85-.32-.95.32-.05.34-.46.75-.05,1s.89.07,1.3-.28a2.73,2.73,0,0,0,1.14-1.66c.4.37.39.81.69,1.1,1,1,1,1.63,0,2.68a.84.84,0,0,0-.29.88c.12.39.36.13.61.07s.22.29.21.44a11.05,11.05,0,0,0-.05,2.57.74.74,0,0,1-.19.47c-.77-.16-.95.89-1.65.79-.87-.13-.63.42-.58.87h0c-.48,0-.54-.6-1-.64s-1-.62-1.13.38c0,.3-.42.38-.71.43-.91.19-1.8-.11-2.73,0a.8.8,0,0,1-.58-1.41c.31-.32.23-.68.31-1l0-.06,0,.07c-.3,0-.62.15-.87-.06-.57-.49-.74.23-1.11.34.27.63-1.14,1.48.26,2,.24.09.17.38.07.59a1.13,1.13,0,0,0,.09,1.21l.5-1.72c.29.47.07.92.33,1.31.89,1.38.87,1.4-.64,2.07-.24-.19.22-.78-.22-.68s-.91,0-1.06.54-.3.92-.85.78a1.45,1.45,0,0,1-1-1.11,3.38,3.38,0,0,1,0-.45c-.18-1-.57-1.23-1.41-.66a28.3,28.3,0,0,1-3.37,2.26,28.62,28.62,0,0,1-6.37,2.76,28.93,28.93,0,0,1-3.45,1c-.3,0-.45.25-.31.57s.16.28.46.13c.66-.31.71.45,1,.76a1.1,1.1,0,0,1,.13,1.35,5.64,5.64,0,0,1-2.35-.06c-.18-.47.23-.61.51-.77s.59,0,.54-.41-.35-.27-.6-.2c-.52.13-.5-.25-.4-.52.34-.94-.38-.76-.83-.8a1.82,1.82,0,0,0-.87.11c-1.46.62-3,0-4.44.15a11.06,11.06,0,0,1-2.46-.46c-1.79-.22-3.4-1.08-5.13-1.49l-.2-.08c-1-.69-2.24-1-3.3-1.59a18.72,18.72,0,0,1-4.73-3.43c-.53-.59-1.17-1-1.72-1.56a33.2,33.2,0,0,1-5-6.8,12.31,12.31,0,0,1-1.8-4c-.2-1.3-.9-2.43-.9-3.77,0-1.18-.21-2.36-.3-3.54a27.53,27.53,0,0,1,1.76-12,30.22,30.22,0,0,1,5.77-9.57,24.27,24.27,0,0,1,5.81-4.75c.54-.33.79-.13,1.16.1-.54.43-.85,1.17-1.67,1.22a4,4,0,0,0-1.66,1.27l-.08.06c-.25,0-.39.12-.38.38l-.43.48a.56.56,0,0,0-.61.44l-.18.15a10.81,10.81,0,0,0-2.78,3.13l-.9,1.25a8.88,8.88,0,0,0-2.29,4c-.11.23-.22.46-.32.69A1.48,1.48,0,0,0,287,101.8Zm52.1,24.7c-.53-1.06-1.81-1.12-2.33-2.11-.29-.54-.95-.33-1.43-.49-.17-.06-.43.18-.32.33.27.37.24,1,.79,1.11a2.13,2.13,0,0,1,1.42,1.29c.38.65.83.81,1.4.17A1.76,1.76,0,0,1,339.14,126.5Zm1.66-.14c.06-.22.13-.57-.38-.6s-.53.29-.54.67a2,2,0,0,0,.58,1.41.58.58,0,0,0,.89,0c.28-.32.13-.63-.3-.73S340.61,126.81,340.8,126.36Z"/><path class="cls-3" d="M354.4,99.24l0,.08c0,1.48.67,2.79.9,4.21a51.35,51.35,0,0,1,0,16.78c-.53,3.23-1,2.24-3.05,1.76-.63-.14-.76-.43-.66-1,.3-1.76.64-3.5.78-5.29a41.16,41.16,0,0,0-.64-11.77,34.94,34.94,0,0,0-3.21-9.38c-.65-1.24.62-3,2.05-3.06.45,0,.61.22.79.61.95,2.07,2.24,4,2.56,6.34A.91.91,0,0,0,354.4,99.24Zm.78,12.69a44,44,0,0,0-1.29-10.07,34.43,34.43,0,0,0-2.84-8.09c-.21-.41-.11-1.12-1-.78s-.65.74-.41,1.32a63.81,63.81,0,0,1,2.66,7.75,41.25,41.25,0,0,1,1.09,12.32,20.22,20.22,0,0,1-.81,5.83c-.22.66.12,1.07.76,1.25s.84-.24,1-.83A55.76,55.76,0,0,0,355.18,111.93Z"/><path class="cls-3" d="M292.46,147.75a2.49,2.49,0,0,0-1.09,1.73c-.13.44-.39.69-.66.36-.46-.54-1.17-.52-1.67-1s-.78.24-1,.6-.22.67-.6.42-.18-.58.05-.79c.41-.4.53-.76.11-1.22a.48.48,0,0,1-.05-.42c.37-.75.74-1.46-.66-1.36-.21,0-.2-.28-.1-.45.25-.43.51-1,1.08-.84.39.14.3.23.48-.19.37-.88,1-.12,1.58,0-.21-.95.9-1.31.91-2.22,0-.26.49,0,.67.07.35.19,1,.24.84.82-.23.87.31,1.64.18,2.49-.07.46,1.27,1.34,1.92,1.3-.38,1.15-.55,2.37-1.52,3.24-.18.15-.23.51-.62.29-.12-.06,0,.47-.3.27a.33.33,0,0,1,0-.56c.52-.22.51-.44.14-.8a.4.4,0,0,1,.1-.67c.56-.29.21-.69.19-1,.2,0,.46.08.56-.19,0-.05-.1-.2-.17-.21C292.53,147.29,292.48,147.51,292.46,147.75Z"/><path class="cls-3" d="M274.79,127.11c.65-.32,1.65-.28,1.21-1.57-.16-.44.65-1,1-.92,1,.12,1.66-.49,2.41-.78.48-.19,1-.09,1.44-.38.76-.48,1.6-.87,2.4-1.29s1.35-.2,1.55.6a.57.57,0,0,1,0,.22c-.05.92-1.45.42-1.43,1.28,0,1.1-.38,1.24-1.25.76a.33.33,0,0,0-.29,0c-1.3,1-2.92,1.39-4.3,2.31-1.54,1-3.38,1.61-5,2.56a.59.59,0,0,1-.52,0c-.23-.14.07-.32.05-.45a2.06,2.06,0,0,1,.93-1.88c.41-.34-.17-.55-.25-.83-.13-.47-.44-1-.08-1.38s1.06,0,1.57-.19C274.47,125.8,275,126.32,274.79,127.11Z"/><path class="cls-3" d="M334.13,115.53c1.32.21,2.64.37,3.94.65a9.77,9.77,0,0,0,1.73.29,1.42,1.42,0,0,1,1.47,1.2c.11.75,1.17.87,1.16,1.81,0,.3.49,0,.6-.27.44-1,1.3-.3,1.93-.48.06,0,.27.25.24.31-.27.64.12,1.31-.13,1.95s-.61,1-1.06.68c-.62-.39-1.43-.56-1.85-1.26.18,0,.38,0,.36-.29,0,0,0-.07-.08-.07-.27,0-.25.19-.27.37a13.94,13.94,0,0,0-2.83-1.06,7.47,7.47,0,0,0-2.55-.29,14.39,14.39,0,0,1-2.73-.86c-.18-.06-.39-.14-.31-.38a.45.45,0,0,1,.56-.26c.62.11,1.23.3,1.85.39.4.05,1,.25,1.09-.41s-.39-.71-.86-.77a12,12,0,0,0-2.3-.43A.91.91,0,0,1,334.13,115.53Zm6.41,2.42c-.08-.24-.1-.63-.4-.55s-.48.59-.58,1a.32.32,0,0,0,.39.4C340.39,118.69,340.43,118.28,340.54,118Z"/><path class="cls-2" d="M334.48,113.61c-1.09-.44-1.09-.44-.94,1.18-1-.37-.82-1.08-.46-1.81-1,.12-1.12,0-.85-.91a.51.51,0,0,0-.06-.41,1.82,1.82,0,0,1,0-2.71c.19-.23.17-.62.26-1,.54.26.09.89.59,1.21l1.11-2.51c.28.93,1.41.76,1.91,1.46a2.11,2.11,0,0,0-.74,2.88c.2.44.5,1-.08,1.49-.35.27-.21.68-.28,1Zm0-5.62a1.72,1.72,0,0,0-.09.36c0,.14,0,.32.23.18a.58.58,0,0,0,.13-.38C334.72,108.05,334.65,107.94,334.45,108Z"/><path class="cls-3" d="M325.26,135.39c-.37-1.14-1.37-1.84-1.72-2.95-.14-.43-.35-.88,0-1.25s.55.17.82.28c.48.2.44-.24.53-.47s-.14-.65.29-.74.63.21.83.48q.63.9,1.23,1.83c.17.26.28.6,0,.8s-.57,0-.8-.18-.23-.64-.65-.33a.72.72,0,0,0-.2.9C325.78,134.33,326,134.9,325.26,135.39Z"/><path class="cls-3" d="M319.78,132.67l.21-.15c.57.27.57,1.42,1.38,1.14.66-.24.12-1,.23-1.57h0c.73,0,.83.67,1.08,1.13a7.59,7.59,0,0,0,.89,1.66.51.51,0,0,1-.07.85c-.42.29-.61-.07-.76-.36s-.23-.63-.37-.93-.49-.49-.91-.27-.2.52-.12.84.74.38.51.87c-.15.33.16.86-.3,1s-.69-.17-.87-.55a1.05,1.05,0,0,0-.24-.23l0,0A5.8,5.8,0,0,1,319.78,132.67Z"/><path class="cls-2" d="M286.8,75.19l-.19-.19c-.05-.46-.12-1,.58-.48a8.35,8.35,0,0,1,3.46,4.4.89.89,0,0,0,.85.6c.47,0,.47.28.31.6s-.36.29-.67.06a2.16,2.16,0,0,0-2.35-.48c1.14-1.35.17-2-.3-2.79A3.62,3.62,0,0,0,286.8,75.19Z"/><path class="cls-2" d="M323.54,81.94a6.28,6.28,0,0,1,.51-2.55c-.45-.13-.92.52-1.28,0,1.06-.79,2-1.85,3.44-2.07a1.71,1.71,0,0,1-.43,1.61c-.67.63-.42,1.72-1.17,2.34-.34.28-.58.67-1.07.72Z"/><path class="cls-2" d="M349.05,113.36c.07-1.63-.43-2.06-2.25-2-1,0,0-1.13-.76-1.38-.09,0,.39-.22.65-.29A1.67,1.67,0,0,1,349,111.2c.06.28.15.66.52.61.53-.06.09-.58.3-.81C350.72,111.92,350.45,112.72,349.05,113.36Z"/><path class="cls-3" d="M349.53,109.22c-1-.42-1.42-1.34-2.35-1.64-.49-.15-.54-1.29-.35-1.7s1.18-.28,1.81-.4,1.12.71.94,1.54A3.87,3.87,0,0,0,349.53,109.22Z"/><path class="cls-3" d="M344.3,115.51c-.79-.35-1.47-.55-1.32-1.59,0-.28.2-1.1-.71-1-.29,0-.41-.43-.3-.73.18-.49.18-1.06.85-1.31s.34.33.56.4c.95.31,1,.93.73,1.77S344.2,114.55,344.3,115.51Z"/><path class="cls-2" d="M276.3,110.19c-.77,1.44-3.67,2.06-4.81,1.07-.63-.54-.14-.82.32-1a8.82,8.82,0,0,1,3.2-.14C275.4,110.12,275.85,110.16,276.3,110.19Z"/><path class="cls-2" d="M299.08,149.14c.19-2.09,1.66-3.24,3.19-4.34a.67.67,0,0,1,.4-.05.39.39,0,0,1,.05.3,16.21,16.21,0,0,1-3.47,4.14S299.18,149.17,299.08,149.14Z"/><path class="cls-3" d="M298.48,128.79c-.19,1.38-1.31,2.19-2,3.27a.69.69,0,0,1-1.09-.05c-.31-.32.12-.57.26-.83s.83-.4.63-1c.26.07.34-.18.51-.28a.4.4,0,0,0,.42-.42l.3-.55a.68.68,0,0,0,.64-.45Z"/><path class="cls-2" d="M337.59,134.41c.86-.18,1.56.31,2.38.06.38-.12.93.45,1,1.08s-.52.55-.83.63C339.12,136.44,338.38,135.91,337.59,134.41Z"/><path class="cls-3" d="M293.36,141.48a.88.88,0,0,1-.33,0c-.38-.18-1-.08-1.09-.56,0-.25.51-.66.87-.83s.62-.28.4-.78c-.14-.32.13-.46.43-.43.5,0,.61-.29.73-.77a10.81,10.81,0,0,1-.2,3c0,.36-.29.79-.83.42l.08,0s0,0,0-.05Z"/><path class="cls-3" d="M297.16,133.23c-.24-.64.5-.85.78-1.27s.91-1.05,1.25-1.67c.12-.22.24-.37.52-.2a.39.39,0,0,1,.18.56,13.67,13.67,0,0,1-2.11,3.06.52.52,0,0,1-.63.08C296.94,133.67,297,133.47,297.16,133.23Z"/><path class="cls-3" d="M303.11,131.93a.49.49,0,0,1,.44.52c-.78.79-.82,1.91-1.25,2.86-.18.42-.29.93-.89.72s-.21-.64-.19-1.06c.06-1.18,1.42-1.71,1.31-2.92h0A.52.52,0,0,0,303.11,131.93Z"/><path class="cls-3" d="M292.53,121.22c.33.58-.14.75-.5,1-1,.06-1.73.75-2.64,1-.26.08-.54.15-.63-.2s.09-.66.27-.66C290.32,122.34,291.25,121.23,292.53,121.22Z"/><path class="cls-3" d="M304.85,132.63l.22,0a.55.55,0,0,0,.36.63c-.27.19-.19.49-.24.75-.73.45-.55,1.36-1,2-.22.29-.2,1-.7.78s-.19-.77,0-1.18a8.27,8.27,0,0,0,.95-2.81l.06-.05A.26.26,0,0,0,304.85,132.63Z"/><path class="cls-3" d="M292.34,123.09l.49-.21h.62c.38.78-.26,1-.73,1.2a7.82,7.82,0,0,0-2,1.2c-.37,0-.94.31-1-.2s.48-.72.85-.9C291.15,123.86,291.89,123.73,292.34,123.09Z"/><path class="cls-3" d="M294.29,126.53a4,4,0,0,0,.46-.24c.26-.19.54-.44.84-.13a.58.58,0,0,1-.11.93c-1,.11-1.37,1-2,1.61-.26.22-.44.54-.83.37a.68.68,0,0,1-.34-.4c-.13-.42.31-.44.5-.63C293.3,127.54,294.08,127.32,294.29,126.53Z"/><path class="cls-3" d="M314,135.37v-.77a.39.39,0,0,1,.39-.45c.22,0,.3.16.37.34a8,8,0,0,1,.37,3c0,.26-.05.64-.49.6s-.41-.35-.43-.66C314.17,136.74,314.09,136,314,135.37Z"/><path class="cls-3" d="M291.33,118.17a15.5,15.5,0,0,0-3.05.91c-.37.17-.77.26-.92-.21s.16-.58.6-.66c.79-.15,1.56-.41,2.34-.62.54-.15,1-.09,1,.58Z"/><path class="cls-3" d="M334.48,113.61l.47-.07a3.72,3.72,0,0,0,2.33.22,1.45,1.45,0,0,1,.87,0,.57.57,0,0,1,.34.64.46.46,0,0,1-.53.31c-1-.08-2.06-.18-3.09-.29C334.3,114.4,334.42,114,334.48,113.61Z"/><path class="cls-2" d="M338.07,88.24a8.49,8.49,0,0,1,.89.3c.21.1.34.28,0,.49-.71.5-1.4,1-2.11,1.52-.2.14-.43.14-.51-.15C336.19,89.77,337.41,88.17,338.07,88.24Z"/><path class="cls-3" d="M293,125.09a2.43,2.43,0,0,1,1.18-.63.34.34,0,0,0,.35.25c0,.18,0,.36.05.53a9.36,9.36,0,0,0-2.49,1.62c-.27.19-.58.51-.88.29-.49-.34.16-.6.17-.93l.46-.33a.24.24,0,0,0,.28-.24.33.33,0,0,1,.14,0c.26.08.39,0,.43-.28h0C292.87,125.37,293,125.29,293,125.09Z"/><path class="cls-3" d="M287.88,121.13c.08-.53.48-.71.9-.86l2.3-.82c.21-.07.44-.19.59.06s0,.41-.2.56A11.86,11.86,0,0,1,287.88,121.13Z"/><path class="cls-3" d="M301.41,131.24a.26.26,0,0,0,.15.14,6.71,6.71,0,0,0-.92,2.39c-.05.55-.45.75-.84.92s-.67-.11-.55-.42C299.71,133.09,300,131.78,301.41,131.24Z"/><path class="cls-3" d="M287,115.93c1,.24,2-.2,2.95-.21.28,0,.66-.09.71.32s-.35.27-.58.31a18.79,18.79,0,0,0-2.37.49c-.85.3-1-.12-1.1-.78Z"/><path class="cls-3" d="M336.54,121.4a12.14,12.14,0,0,1-3.05-1.3.47.47,0,0,1-.2-.36c0-.25.27-.27.43-.22a13.61,13.61,0,0,1,3.06.9c.26.17.52.33.42.69S336.77,121.3,336.54,121.4Z"/><path class="cls-3" d="M316.22,133.71l.41.23a13.63,13.63,0,0,1,.73,3c.08.33.13.82-.34.94s-.54-.33-.64-.62A4.5,4.5,0,0,1,316.22,133.71Z"/><path class="cls-3" d="M305.86,134.48a.3.3,0,0,1,.05-.16c.32-.07.47-.23.27-.56.14-.22.29-.45.6-.34s.38.49.31.83c-.62.65-.24,1.55-.59,2.27-.11.23-.12.53-.27.71a.73.73,0,0,1-.6.2c-.23-.06-.18-.36-.15-.57C305.6,136.06,305.73,135.27,305.86,134.48Z"/><path class="cls-3" d="M311.92,134.89c0-.42,0-.86.66-.81a11.14,11.14,0,0,1,.25,3.73c0,.27-.06.55-.42.5s-.34-.19-.35-.47C312,136.86,312,135.88,311.92,134.89Z"/><path class="cls-3" d="M296.91,128.65c-.74-.13-1,.51-1.42.89-.27.25-.48.56-.74.82s-.46.48-.74.14,0-.54.24-.75c.56-.53,1.12-1.07,1.7-1.59.21-.2.38-.56.7-.48s.08.61.29.86A.11.11,0,0,1,296.91,128.65Z"/><path class="cls-2" d="M332.35,137.3c.61.61,1.62.73,2,1.62.17.43.35.73-.53.65C332.24,139.44,332.42,138.36,332.35,137.3Z"/><path class="cls-3" d="M341.39,106.13c.76.93,0,1.8.07,2.69,0,.48-.52.44-.77.31-.44-.23-1.18.11-1.33-.56-.09-.42.4-.59.7-.45,1,.44.65-.59,1-.82C340.55,106.67,341.52,106.61,341.39,106.13Z"/><path class="cls-3" d="M307.91,135c.06-.27.11-.53.17-.79a.45.45,0,0,0,.34-.44l.36,0c.2,1.08-.4,2.1-.23,3.17,0,.37,0,.74-.41.95-.61-.11-.49-.56-.41-.95A6.25,6.25,0,0,0,307.91,135Z"/><path class="cls-3" d="M317.9,133.54c.28-.31.53-.22.77.05-.08,1,.55,1.77.6,2.69,0,.37.3,1-.22,1.06s-.6-.52-.59-1A16.22,16.22,0,0,0,317.9,133.54Z"/><path class="cls-3" d="M310.38,134c.65,0,.52.47.52.87-.09.88-.19,1.75-.28,2.62,0,.3,0,.66-.47.56a.53.53,0,0,1-.4-.69A18.11,18.11,0,0,1,310.38,134Z"/><path class="cls-2" d="M348.57,116.42c-1.92,1.29-2.21,1.26-2.9-.31C346.68,115.64,347.51,116.74,348.57,116.42Z"/><path class="cls-2" d="M302.09,138.72l.2.08c0,.12,0,.28.14.37s.81-.07.74.55-.55.56-1,.65-.71.16-.77.62C300.76,140.34,301,139.38,302.09,138.72Z"/><path class="cls-2" d="M331.18,85.23c-.07.31,0,1-.47,1a1.2,1.2,0,0,1-1.09-1.28c0-.41.05-1,.5-1A1.06,1.06,0,0,1,331.18,85.23Z"/><path class="cls-2" d="M345.07,97.56a.74.74,0,0,1-.6.82c-1.16,0-1.94.79-2.87,1.29-.18.1-.37.14-.48,0a.47.47,0,0,1,0-.4c.3-.37.6-.91,1.07-.89,1,0,1.86-.68,2.85-.77Z"/><path class="cls-3" d="M342.72,143.46A.91.91,0,0,1,343,142a13.88,13.88,0,0,0,1.31-1.14c.22-.2.42-.3.62,0s.09.47-.18.72C344,142.22,343,142.49,342.72,143.46Z"/><path class="cls-3" d="M337.31,147.73c0,.41.07,1-.47,1s-.8-.64-.85-1.11a.77.77,0,0,1,.74-.83C337.39,146.78,337.36,147.25,337.31,147.73Z"/><path class="cls-3" d="M283,100.52c.24.47,1.08.23,1.13,1,0,.31-.14.83-.42.73-.53-.19-1.18-.4-1.39-1C282.22,100.91,282.61,100.68,283,100.52Z"/><path class="cls-3" d="M280.07,106.17c.72,0,1.43,0,2.15,0a.51.51,0,0,1,.52.59c0,.47-.38.34-.66.33A5.45,5.45,0,0,1,280.07,106.17Z"/><path class="cls-2" d="M287.29,83.8c0,.21.22.59-.2.69s-.66-.29-.89-.55-.22-.55.28-.57c.15,0,.17-.26,0-.35s-.74-.24-.45-.76c0,0,.11,0,.17,0,.05.63,1.18.11,1,1A3.35,3.35,0,0,0,287.29,83.8Z"/><path class="cls-3" d="M328.69,139c0,.38.05.77-.45.74s-1.07-.23-1.11-.84a.67.67,0,0,1,.74-.67C328.25,138.25,328.79,138.36,328.69,139Z"/><path class="cls-3" d="M297.56,85.1c0,.32,0,.76-.47.68s-.89-.4-.85-.88c0-.27.15-.77.66-.75S297.57,84.62,297.56,85.1Z"/><path class="cls-2" d="M282.29,116.34a1.42,1.42,0,0,1-.43-1.61c0-.31.72,0,1.11-.07.18,0,.39,0,.44.22a.41.41,0,0,1-.24.46C282.72,115.52,282.29,115.7,282.29,116.34Z"/><path class="cls-2" d="M334.13,115.53a.91.91,0,0,0,0,.82c0,.82-1.11,1-1,2.2C332.57,117.07,333,116.1,334.13,115.53Z"/><path class="cls-3" d="M311.91,143.17c0-.54,0-1,.57-1s.63.44.59.87.05,1.12-.6,1.1S311.92,143.51,311.91,143.17Z"/><path class="cls-2" d="M285.82,100.13c-1.51.58-2,.45-2.7-.78A6.1,6.1,0,0,1,285.82,100.13Z"/><path class="cls-3" d="M297,138.22c.36,0,.52.14.53.44a.9.9,0,0,1-.8,1c-.45.07-.58-.37-.59-.65C296.15,138.49,296.75,138.47,297,138.22Z"/><path class="cls-3" d="M341.43,102c-.41,0-.76-.25-.68-.51.18-.6.81-.69,1.34-.79.29-.06.46.08.41.46C342.41,101.87,341.81,101.8,341.43,102Z"/><path class="cls-2" d="M307.71,80.79c.26-.52-.13-1.29.65-1.61.3.27.06.64.2.93s.34.73,0,1-.48-.34-.81-.21A.2.2,0,0,0,307.71,80.79Z"/><path class="cls-3" d="M322.92,140.4c.44.12.84.27.85.77s-.09.86-.46.89c-.6,0-.67-.59-.8-1S322.61,140.49,322.92,140.4Z"/><path class="cls-3" d="M307.71,80.79a.2.2,0,0,1,0,.11.72.72,0,0,0-.09.2c-.09.43.08,1.16-.6,1.05-.52-.08-.51-.81-.4-1.24C306.85,80.14,307.34,80.75,307.71,80.79Z"/><path class="cls-3" d="M281.44,112.37c-.33.1-.76.19-.76-.38s.48-.47.84-.47.8-.19.83.42C282.38,112.72,281.8,112.27,281.44,112.37Z"/><path class="cls-2" d="M339.69,137.21c.33.28.94,0,1.22.55-.54,0,.31.91-.37.71a3.12,3.12,0,0,1-1.35-1C339,137.32,339.43,137.25,339.69,137.21Z"/><path class="cls-3" d="M307.64,142.56c0,.46-.16.83-.67.81s-.45-.34-.41-.65.08-.91.56-.95S307.64,142.18,307.64,142.56Z"/><path class="cls-2" d="M341.33,93.2c.3-1.09,1.05-1,1.61-1.09.36-.08.42.43.59.7s.18.25,0,.39a.24.24,0,0,1-.38,0C342.71,92.25,342.1,92.68,341.33,93.2Z"/><path class="cls-3" d="M332.11,87.73c.23-.25.4-.58.82-.57.09.5.39,1-.28,1.4s-.83.29-1.09-.26l.33-.35C332.05,88,332.11,87.88,332.11,87.73Z"/><path class="cls-2" d="M282.61,110.51c-.47,0-.65-.28-.81-.56a.41.41,0,0,1,0-.39c.31-.28.52,0,.75.18a.93.93,0,0,0,.2.1c.34.14,1-.54,1,.2C283.79,110.51,282.92,110.19,282.61,110.51Z"/><path class="cls-3" d="M339.1,97.07c-.43,0-.57-.22-.53-.49.13-.73.84-.58,1.31-.79.19-.08.5,0,.47.3C340.26,96.86,339.39,96.65,339.1,97.07Z"/><path class="cls-3" d="M301.44,141c.06-.46.4-.56.77-.62a.67.67,0,0,1,.05.71c-.12.36,0,1-.43,1C301.22,142,301.56,141.36,301.44,141Z"/><path class="cls-3" d="M302.54,82.93c0,.38-.22.71-.44.62a1.5,1.5,0,0,1-.87-1.3c0-.29.21-.4.44-.36C302.29,82,302.37,82.55,302.54,82.93Z"/><path class="cls-2" d="M331.88,118.35c.52,1.24,0,2-.76,2.89A4.49,4.49,0,0,1,331.88,118.35Z"/><path class="cls-3" d="M292.32,136.72c-.42,0-.55-.16-.5-.4.11-.49.28-1,.88-1.07.19,0,.65-.14.53.28A2.56,2.56,0,0,1,292.32,136.72Z"/><path class="cls-2" d="M298.33,80.66c0-.37.13-.55.41-.46.56.19.79.72,1.07,1.18.08.14-.09.48-.24.37C299.11,81.42,298.5,81.21,298.33,80.66Z"/><path class="cls-2" d="M308.14,137.88c.37-.21.39-.58.41-.95.29-.07.77-.64.65.29a2,2,0,0,1-1.61,1.8C307.68,138.55,308.28,138.36,308.14,137.88Z"/><path class="cls-3" d="M327.4,85.87c0-.46-.18-.94.17-1.35s.65-.61,1-.07C328.22,84.94,328.51,86,327.4,85.87Z"/><path class="cls-2" d="M285.24,112.75v-.35l1.67-.78C287.06,112.57,286.42,113,285.24,112.75Z"/><path class="cls-3" d="M337,91.86c-.11.53-.54.66-1,.75-.26.06-.61-.06-.47-.38s.43-.87,1-.89C336.82,91.33,336.94,91.6,337,91.86Z"/><path class="cls-3" d="M281.84,117.94c-.46,0-.77-.14-.73-.59a.43.43,0,0,1,.62-.42c.29.16.95-.07.83.64C282.47,118.08,282.05,117.86,281.84,117.94Z"/><path class="cls-3" d="M289.5,131.76a1.26,1.26,0,0,1-1.06.9c-.22.05-.49-.14-.41-.38a1.21,1.21,0,0,1,1-.88A.36.36,0,0,1,289.5,131.76Z"/><path class="cls-3" d="M285.54,128.23c-.42,0-.65-.13-.67-.41,0-.67.7-.51,1-.85.14-.17.48.09.47.29C286.34,127.83,285.82,128,285.54,128.23Z"/><path class="cls-3" d="M293.14,88.07c0,.41,0,.71-.37.65s-.63-.49-.73-.88a.39.39,0,0,1,.41-.52A.83.83,0,0,1,293.14,88.07Z"/><path class="cls-3" d="M323.54,81.94c0,.65.08,1.41-.88,1.54h0c.14-.6-.09-1.42.88-1.54Z"/><path class="cls-3" d="M342.89,117c.49.06.91.17,1,.64.06.3-.26.38-.46.28-.4-.22-1.11.13-1.23-.51C342.12,116.93,342.66,117.07,342.89,117Z"/><path class="cls-2" d="M312.26,77.42a2.08,2.08,0,0,1,.16,2.26C311.86,78.88,312.29,78.12,312.26,77.42Z"/><path class="cls-2" d="M287,115.93l-.39.13c.05-.43-.13-.88.2-1.37.29.3.72.3,1.07.43C287.86,115.78,287.15,115.48,287,115.93Z"/><path class="cls-2" d="M305.14,82.43c.13.71.59,1.35.23,2.16l-.53-2.1Z"/><path class="cls-3" d="M289,92.47a.73.73,0,0,1-.79-.77c0-.26.11-.42.41-.31s.74.34.8.81S289.12,92.45,289,92.47Z"/><path class="cls-2" d="M289,112.15c-.12.73-.41,1-.95.84-.08,0-.22-.14-.21-.18C288,112.27,288.55,112.43,289,112.15Z"/><path class="cls-2" d="M335.14,139.72l-.4-1.27C335.9,138.58,335.43,139.22,335.14,139.72Z"/><path class="cls-2" d="M335.67,106.24c-.09.28-.31.29-.54.27s-.28-.14-.24-.3a.38.38,0,0,1,.42-.29C335.52,105.93,335.66,106,335.67,106.24Z"/><path class="cls-2" d="M298.48,128.79l-.33-.31c.38.09.27-.62.55-.42S298.7,128.58,298.48,128.79Z"/><path class="cls-2" d="M296.91,128.65a.11.11,0,0,0,0-.11c.32-.06.25.45.57.39l-.3.55A.83.83,0,0,1,296.91,128.65Z"/><path class="cls-2" d="M296.79,129.9c-.17.1-.25.35-.51.28-.14-.28-.16-.58.17-.69S296.66,129.77,296.79,129.9Z"/><path class="cls-3" d="M272,127c.06,0,.15,0,.16.08s0,.11-.06.17-.15,0-.16-.08S272,127.06,272,127Z"/><polygon class="cls-2" points="336.67 103.44 336.65 103.36 336.7 103.37 336.67 103.44"/><path class="cls-2" d="M332.64,119.18a1,1,0,0,1,.06.16s-.05,0-.07.06a1.11,1.11,0,0,1-.07-.16S332.61,119.2,332.64,119.18Z"/><path class="cls-2" d="M335.78,91l-.06-.09.14-.07s0,.08,0,.11S335.81,90.93,335.78,91Z"/><path class="cls-3" d="M320.44,136.09l-.2.18-.06-.12.28,0Z"/><polygon class="cls-3" points="287.08 120.2 287.11 120.16 287.07 120.19 287.08 120.2"/><path class="cls-2" d="M345.08,97.57l.1-.1s0,.06,0,.07l-.09,0Z"/><path class="cls-3" d="M341.94,132.51l.1,0-.07.07,0-.1Z"/><path class="cls-1" d="M342.62,80.76c-.14,0-.23-.12-.19-.28s.06,0,.08-.06l.1.35Z"/><path class="cls-1" d="M285.27,110.38a5.31,5.31,0,0,1,.05-2.8,14.14,14.14,0,0,1,1.42-4.73,1.54,1.54,0,0,0,1.71.47c.27-.07.67-.32.77.05s-.34.47-.67.5l-.44,0c.3.86.3.86-1,1l1.58.68v0c-.14,1-1.05.11-1.45.62.33.65,1.07.82,1.61,1.22,1.08.79,1.07,1.26-.1,1.87A17.89,17.89,0,0,1,285.27,110.38Z"/><path class="cls-1" d="M287.86,100.15a8.88,8.88,0,0,1,2.29-4c0,.06.07.16.12.18,1.38.44.83,1.44.29,1.91-.77.68-.31,1,.07,1.44a4.15,4.15,0,0,1,.29.48Z"/><path class="cls-1" d="M291.05,94.89a10.81,10.81,0,0,1,2.78-3.13c.14.4-.45.91.22,1.27.19.11.52.59.17.82a.73.73,0,0,1-1.08-.12c-.08-.12-.1-.28-.23-.28-.68.2.88,1.34-.56,1.19C292.15,96,291.42,94.47,291.05,94.89Z"/><path class="cls-3" d="M317.78,82.31c-.33-.14-.68-.39-.58-.7s0-1.1.78-1.11c.28,0,.49.19.41.39C318.18,81.35,318.39,82,317.78,82.31Z"/><path class="cls-1" d="M295.51,90.25A4,4,0,0,1,297.17,89a2.51,2.51,0,0,0,.39,1.11A3.21,3.21,0,0,1,295.51,90.25Z"/><path class="cls-1" d="M321.6,132.09c-.11.53.43,1.33-.23,1.57-.81.28-.81-.87-1.38-1.14.1-.17.26-.55.4-.37C320.88,132.76,321.21,132.18,321.6,132.09Z"/><path class="cls-1" d="M287,101.8a1.48,1.48,0,0,1,.5-1c.48.24,1,.48,1.43.75.14.08.34.21.23.43s-.28.11-.46.07C288.18,102,287.61,101.89,287,101.8Z"/><path class="cls-1" d="M294,91.61a.56.56,0,0,1,.61-.44c.13.28.26.58-.1.76S294.15,91.77,294,91.61Z"/><path class="cls-1" d="M303.11,131.93a.52.52,0,0,1-.59.13c-.11-.23-.07-.42.19-.48S303.07,131.7,303.11,131.93Z"/><path class="cls-1" d="M295.05,90.69c0-.26.13-.38.38-.38C295.52,90.65,295.44,90.83,295.05,90.69Z"/><path class="cls-1" d="M308.42,133.73a.45.45,0,0,1-.34.44c0-.11-.14-.26-.1-.34S308.25,133.69,308.42,133.73Z"/><path class="cls-1" d="M293.45,122.88h-.62C293,122.4,293.25,122.38,293.45,122.88Z"/><path class="cls-1" d="M306.18,133.76c.2.33.05.49-.27.56A.43.43,0,0,1,306.18,133.76Z"/><path class="cls-1" d="M305.43,133.3a.55.55,0,0,1-.36-.63C305.71,132.57,305.39,133,305.43,133.3Z"/><path class="cls-1" d="M292.68,125.33c0,.25-.17.36-.43.28C292.27,125.33,292.4,125.22,292.68,125.33Z"/><path class="cls-1" d="M288.65,105.64l.08-.17c.17.16,0,.12-.09.15Z"/><path class="cls-1" d="M292.11,125.65a.24.24,0,0,1-.28.24C291.8,125.67,291.88,125.57,292.11,125.65Z"/><path class="cls-1" d="M293,125.09c0,.2-.12.28-.32.25C292.64,125.08,292.76,125,293,125.09Z"/><path class="cls-1" d="M294.52,124.71a.34.34,0,0,1-.35-.25C294.44,124.34,294.53,124.45,294.52,124.71Z"/><path class="cls-1" d="M301.18,88.16l.1,0-.09,0Z"/><path class="cls-1" d="M332.11,87.73c0,.15-.06.23-.22.22C331.86,87.78,331.94,87.7,332.11,87.73Z"/><path class="cls-1" d="M304.85,132.63a.26.26,0,0,1-.36.12C304.55,132.53,304.66,132.47,304.85,132.63Z"/><path class="cls-1" d="M339.14,126.5a1.76,1.76,0,0,0-.47.3c-.57.64-1,.48-1.4-.17a2.13,2.13,0,0,0-1.42-1.29c-.55-.12-.52-.74-.79-1.11-.11-.15.15-.39.32-.33.48.16,1.14-.05,1.43.49C337.33,125.38,338.61,125.44,339.14,126.5Z"/><path class="cls-1" d="M340.8,126.36c-.19.45-.17.7.25.78s.58.41.3.73a.58.58,0,0,1-.89,0,2,2,0,0,1-.58-1.41c0-.38.08-.69.54-.67S340.86,126.14,340.8,126.36Z"/><path class="cls-1" d="M336.13,130.28l0-.07,0,.06Z"/><path class="cls-1" d="M334.32,126.69l.1.08s0,0-.05,0,0,0,0-.07Z"/><path class="cls-1" d="M355.18,111.93a55.76,55.76,0,0,1-.87,8.7c-.12.59-.23,1-1,.83s-1-.59-.76-1.25a20.22,20.22,0,0,0,.81-5.83,41.25,41.25,0,0,0-1.09-12.32,63.81,63.81,0,0,0-2.66-7.75c-.24-.58-.38-1,.41-1.32s.78.37,1,.78a34.43,34.43,0,0,1,2.84,8.09A44,44,0,0,1,355.18,111.93Z"/><path class="cls-1" d="M292.46,147.75c0-.24.07-.46.38-.41.07,0,.19.16.17.21-.1.27-.36.16-.56.19Z"/><path class="cls-1" d="M340.54,118c-.11.33-.15.74-.59.81a.32.32,0,0,1-.39-.4c.1-.37.16-.85.58-1S340.46,117.71,340.54,118Z"/><path class="cls-1" d="M342.17,120.42c0-.18,0-.38.27-.37,0,0,.08,0,.08.07,0,.27-.18.26-.36.29Z"/><path class="cls-1" d="M334.45,108c.2,0,.27.06.27.16a.58.58,0,0,1-.13.38c-.19.14-.23,0-.23-.18A1.72,1.72,0,0,1,334.45,108Z"/><path class="cls-1" d="M293.36,141.48l.08-.1s0,0,0,.05l-.08,0Z"/><text class="cls-4" transform="translate(0 161.54) scale(1.04 1)">VISION</text><text class="cls-5" transform="translate(146.86 34)">P<tspan class="cls-6" x="28.32" y="0">R</tspan><tspan class="cls-7" x="57.24" y="0">O</tspan><tspan class="cls-8" x="90.2" y="0">J</tspan><tspan class="cls-9" x="110.24" y="0">E</tspan><tspan class="cls-10" x="136.84" y="0">C</tspan><tspan class="cls-11" x="165.24" y="0">T</tspan></text></g></g></svg>