<svg xmlns="http://www.w3.org/2000/svg" viewBox="0 0 436.49 73.97"><defs><style>.cls-1{fill:#6099d3;}.cls-2{fill:#14141d;}.cls-3{fill:#fefefe;}.cls-4{font-size:55.65px;font-family:Montserrat-Regular, Montserrat;}.cls-5{font-size:69.57px;font-family:Lato-Light, Lato;font-weight:300;}</style></defs><g id="Layer_2" data-name="Layer 2"><g id="Layer_1-2" data-name="Layer 1"><path class="cls-1" d="M379.46,35.34a16.39,16.39,0,0,1-.55,4.68,22.38,22.38,0,0,1-2,5.3c-.16.3-.29.39-.59.21s-.37,0-.34.28.14.5.19.75a.21.21,0,0,1-.16.26c-.12,0-.12-.11-.16-.18s-.07-.47-.16-.75a.44.44,0,0,0-.11.54c.42.77-.1,1.31-.48,1.85a18.48,18.48,0,0,1-2.53,2.92,25.07,25.07,0,0,1-3.47,2.87,25.87,25.87,0,0,1-3.9,2c-.37.15-.5.05-.57-.29-.14-.68,0-1,.7-1.29a.47.47,0,0,0,.23-.74,21.45,21.45,0,0,1-1.51-3.31c-.13-.38-.41-.3-.68-.2-.78.27-1.54.6-2.32.82a9.27,9.27,0,0,1-3.62.51c-.61-.08-.86.18-.86.78,0,1.09,0,2.19,0,3.28,0,.59.36.71.72.62a14.5,14.5,0,0,1,2.71-.11c.17,0,.18.11.23.19.2.33,0,.72.14,1.08.06.14-.2.18-.34.2a23.14,23.14,0,0,1-4.16.25.81.81,0,0,0-.11-1,2.11,2.11,0,0,0,0,1,4.21,4.21,0,0,1-2-.25c-.12-.06-.33.09-.51,0a8.31,8.31,0,0,1,0-1.32c-.17.41-.52.77-.28,1.26a4.12,4.12,0,0,1-1.74-.25A23.85,23.85,0,0,1,341.08,52,19.17,19.17,0,0,1,339,49.79c-.18-.21-.13-.44-.14-.68s0-.68-.51-.46c-.25.1-.33-.09-.44-.24a20.68,20.68,0,0,1-2.73-5.07c-.35-1-.67-2-.94-3a21.42,21.42,0,0,1-.62-7.31,23.18,23.18,0,0,1,2-7.73,20.89,20.89,0,0,1,1.63-2.92c.13-.21.19-.25.39,0,.49.5.63.46.94-.17a1.4,1.4,0,0,0,.18-.34c.09-.45.34-.3.49-.1a1.53,1.53,0,0,0,.78.57c.2.06.29.22.2.48-.2.59-.17.61.46.51.12-.21-.41-.17-.16-.41s.45.12.69.16.26.25.16.45a2.9,2.9,0,0,1-.25.36.53.53,0,0,0,.05.66c.19-.28.59.53.71-.14,0-.11.11-.13.21-.13a.18.18,0,0,1,.21.2c0,.4.16.34.39.14.42-.36.4-.68-.1-.89-.21-.09-.21-.32-.39-.44a5.17,5.17,0,0,0-.73-.49c-.23-.09-.51-.22-.43-.6s.16-.71.42-.71.82.17.9.51.5.39.8.51c.11,0,.3-.06.33.11.09.49.34.37.61.19s.41,0,.39-.23a.77.77,0,0,0-.29-.46c-.17-.15-.29.06-.42.14a.84.84,0,0,1-.14.06s-.08-.08-.07-.09a.64.64,0,1,0-.94-.86c-.09.08-.24.16-.35,0s.05-.19.08-.28c.14-.36,0-.77.28-1.11a3.62,3.62,0,0,1,1.05-.93,6.14,6.14,0,0,0,1.18-1c.2-.19.07-.36,0-.54-.28-.41-.73-.69-.82-1.22l.07-.08a1.84,1.84,0,0,1,.84.86c.23.41.71.71.15,1.39a1.08,1.08,0,0,1,1.17.24c.15.11.24.16.33,0s.08-.28-.15-.3a.46.46,0,0,1-.43-.3,4.16,4.16,0,0,0-1.72-2.19c-.35-.24-.32,0-.29.24l-.08.06a2.81,2.81,0,0,0-1.81,1.2c-.42.46-1,.74-1.34,1.29a.17.17,0,0,1-.25,0c-.13-.13,0-.23.06-.33.37-.37.78-.67,1.18-1s.81-.74,1.25-1.08a15.06,15.06,0,0,1,2.19-1.36,1.51,1.51,0,0,1,.38-.08h0c.29.6.53,1.23.87,1.8a3.82,3.82,0,0,1,.73,1.45c0,.11,0,.25.13.28.3.05.26.39.45.52s-.11.56.27.54c.19,0,.35-.3.55-.35.55-.15.54-.83,1-1,.35-.14.71-.19,1.05-.31,1-.33,1-.5.62-1.45a1.07,1.07,0,0,1-.08-1c.21.5.39.92.55,1.35.09.24.17.36.47.26a15.81,15.81,0,0,1,3.71-.83c.31,0,.52-.22.5-.65,0-.91-.21-1.79-.32-2.68s-.11-.8.67-.82a29,29,0,0,1,3.73.32,1.6,1.6,0,0,1,.37.12c-.06.57-.06.57.41.54,0-.25-.28-.33-.36-.54a1.1,1.1,0,0,1,.73.16c0,.31.1.61.17,1a1,1,0,0,0,.21-.91,12.35,12.35,0,0,1,2.61.81,25.17,25.17,0,0,1,3.56,1.69,22.82,22.82,0,0,1,3.61,2.73c-.24.24-.27.61-.53.84-.09.08-.22.2-.1.32s.18-.06.26-.1.17,0,.23.13.18.05.22-.07h0c.31,0,.46-.31.73-.38a10.58,10.58,0,0,1,2,2.2A22.45,22.45,0,0,1,378,26.9a8,8,0,0,1,.22.84c-.39-.1-.4.22-.5.45a.48.48,0,0,1-.23-.36,11.69,11.69,0,0,0-1.27-3.16c-.09-.19-.17-.3-.4-.3a1.16,1.16,0,0,0-1,1.52,17.68,17.68,0,0,1,1.6,4.67,21,21,0,0,1,.32,5.87c-.07.89-.24,1.76-.39,2.63-.05.28,0,.43.33.5,1,.24,1.25.73,1.51-.88a25.17,25.17,0,0,0,0-8.35,10.77,10.77,0,0,1-.45-2.1c.24,0,.43-.07.46-.35.33.13.28.46.35.71a19.31,19.31,0,0,1,.85,5.85c-.38,0-.29.38-.34.58S379.26,35.32,379.46,35.34ZM354.52,19.06c.17-.07.29.19.41.1s.08-.33,0-.5.05-.33-.1-.46c-.38.16-.19.54-.32.8-.18,0-.43-.32-.53.06-.05.21-.06.58.2.62s.25-.31.3-.53Zm18.6,8.3c-.49,0-.89.4-1.42.38-.23,0-.38.26-.53.45a.2.2,0,0,0,0,.2c.06.09.15.06.24,0a3.21,3.21,0,0,1,1.43-.64.36.36,0,0,0,.3-.41h0s0,0,0,0ZM351.39,49c.06.19-.11.53.19.54s.16-.31.21-.49.08-.24,0-.36c.2,0,.45,0,.48-.32s-.26-.17-.37-.27a.62.62,0,0,1-.07-.19,22.14,22.14,0,0,0,2.56.75,5.42,5.42,0,0,0,1.22.22c.74-.08,1.48.24,2.21-.07a.9.9,0,0,1,.43-.06c.23,0,.59-.06.42.4,0,.14-.06.33.2.26s.27-.1.3.1-.16.15-.27.21-.34.15-.26.38a2.93,2.93,0,0,0,1.18,0,.56.56,0,0,0-.07-.67c-.14-.16-.16-.54-.49-.38-.15.07-.18,0-.23-.06a.19.19,0,0,1,.16-.29,20.12,20.12,0,0,0,4.89-1.86,17,17,0,0,0,1.68-1.13c.41-.28.61-.17.7.33a1.62,1.62,0,0,0,0,.22.73.73,0,0,0,.48.56c.27.07.36-.17.42-.39s.36-.23.53-.27,0,.24.11.34c.76-.34.77-.34.32-1-.13-.2,0-.42-.16-.65l-.26.85a.57.57,0,0,1,0-.6c.05-.1.09-.25,0-.3-.7-.25,0-.68-.13-1,.18,0,.27-.41.55-.17.13.1.29,0,.43,0h0c0,.18,0,.35-.16.51a.41.41,0,0,0,.29.71c.47-.07.91.08,1.36,0,.15,0,.34-.07.36-.22.06-.5.34-.21.56-.19s.25.33.49.32v.05l0,0h-.05c0-.22-.14-.5.29-.43s.44-.48.82-.4a.35.35,0,0,0,.09-.23,6.09,6.09,0,0,1,0-1.28c0-.08.08-.27-.11-.22s-.24.16-.3,0a.41.41,0,0,1,.14-.44c.52-.53.53-.83,0-1.34-.14-.14-.14-.36-.34-.54a1.34,1.34,0,0,1-.57.82c-.2.17-.42.29-.65.14s0-.34,0-.51.28-.23.47-.16.22.06.28-.07a.26.26,0,0,0-.08-.35.75.75,0,0,0-.67-.13c-.28.09-.67.58-.83-.13,0,0-.09-.05-.09-.05-.27.36-.69-.18-1,.17a.37.37,0,0,1-.47,0c-.2-.21-.44-.16-.67-.14a2.16,2.16,0,0,1-.76-.12c-.12,0-.24-.28-.35-.06s.09.32.24.37a2.3,2.3,0,0,1,.7.44.29.29,0,0,1,.06.4c-.1.13-.22.05-.34,0a3.14,3.14,0,0,0-.57-.24c-.18,0-.43-.28-.54-.11s.22.27.32.42.24.2.31.31c.21.38,1,.36.74,1h0c-.46-.65-1.26-.59-1.87-1-.07.31.11.36.23.47a3.29,3.29,0,0,1,1.25,1.7.46.46,0,0,1-.23.56c-.2.12-.35,0-.47-.16s0-.34.16-.42c.42-.2,0-.4,0-.42a5.4,5.4,0,0,1-1.13-.81c-.1-.06-.19-.22-.32-.09s0,.24.08.33.35.36.17.57-.41,0-.59-.1-.28-.26-.43-.1.12.2.15.34.3.48.11.67-.28-.2-.45-.25l-.1,0c-.12-.05-.23-.18-.36-.08s0,.23,0,.36c.16.49.63.75.89,1.16a.35.35,0,0,0,.41.2c.24-.05.21-.24.18-.4s0-.33.22-.34.4-.08.5.13-.11.28-.25.34a.35.35,0,0,0-.23.4c0,.13,0,.27-.11.35-.49.36-1,.74-1.47,1.06a16,16,0,0,1-1.9.94,12.71,12.71,0,0,1-3.25,1c-.94.15-1.88,0-2.81.11a10.32,10.32,0,0,1-3.83-.64,9,9,0,0,1-2.54-1.3,10.13,10.13,0,0,1-3-2.65c-.71-1.07-1.58-2-2.23-3.19a2.18,2.18,0,0,1-.26-1.49c0-.16-.09-.27,0-.42h0v0c-.51,0-.54-.37-.59-.71s-.07-.6-.13-.91a3.64,3.64,0,0,1-.2-2.09c.59.12.9-.09.82-.57l-.83.4a.36.36,0,0,1,0-.51c.33-.27.78-.14,1.13-.38s.75-.19.93.3a.62.62,0,0,0,.15.29c.32.25.22.52,0,.75s-.17.39.2.46.6.12.49.57c-.06.2.11.26.3.29.34,0,.6.33.53.6a.61.61,0,0,1-.7.5c0-.34-.24-.37-.51-.29s-.77.24-1.17.31c-.22,0-.38.09-.3.32s.28.2.46.11a8.27,8.27,0,0,1,1.52-.45c0,.07,0,.22.15.21.48-.08.35.66.82.58,0,.17.05.34-.09.47l-.28.26c-.64,0-1.1.56-1.75.56-.08,0-.16.2-.13.33s.18.14.31.1c.46-.13.83-.48,1.32-.51-.08.2-.13.38.15.45-.22.32-.59.38-.91.54s-.45.26-.42.45.33.1.51.1c0,.22.22.31.34.47s-.33.29-.08.46.3-.05.43-.14a4.57,4.57,0,0,1,1.24-.81c.11.17,0,.23-.13.29s-.16.24,0,.35c-.1.4-.49.5-.73.75s-.32.11-.25.32a.32.32,0,0,0,.16.2c.2.08.29-.08.42-.19.32-.28.5-.74,1-.8,0,.27.23.19.38.15s.35-.12.43,0c.31.43.55.15.81,0s.39-.06.37,0c-.19.28.53.48,0,.79-.14.09.07.22.23.26s.3-.22.52-.14c0,.38.24.71.16,1.1-.68.27-.84.92-1.07,1.51-.06.15.09.29.27.21s.39-.19.42-.46a3.37,3.37,0,0,1,.45-1.19c.25,0,.17.45.49.33.06.6-.62.87-.65,1.46,0,.2-.22.41.09.52s.35-.15.45-.35c.21-.48.23-1,.62-1.43l.44.17a4.23,4.23,0,0,1-.48,1.4c-.08.21-.22.49,0,.59s.24-.24.35-.39.13-.75.5-1c.08.11.15.24.33.21-.07.4-.13.79-.19,1.19,0,.1,0,.25.07.28a.34.34,0,0,0,.3-.1c.08-.09.08-.24.14-.35.17-.36,0-.81.29-1.13.14.11.18.33.41.35a3.23,3.23,0,0,1-.09,1c0,.2-.1.42.2.48.07.23-.23.33-.27.56a1,1,0,0,0,.8-.9c.06-.46-.18-.17-.32-.14-.08-.53.21-1,.11-1.58.29-.1.54.07.8.14a8.76,8.76,0,0,0-.31,1.67.27.27,0,0,0,.19.35c.22.05.22-.13.24-.28,0-.43.09-.87.14-1.3a.69.69,0,0,0,.51,0c0,.49.06,1,.07,1.47,0,.14.05.21.17.23s.21-.11.21-.25a5.82,5.82,0,0,0-.12-1.86c.18-.1.2-.1.22,0,.07.29.11.6.16.9a6.92,6.92,0,0,0,.19-1c0-.16.17-.43.26-.32.3.39.67.07,1,.18a2.23,2.23,0,0,0,.08,1.77c.05.15.1.37.32.31s.21-.3.17-.47a6.58,6.58,0,0,0-.37-1.5c.28.14.44-.08.63-.2a7.59,7.59,0,0,1,.28,1.42c0,.22,0,.53.3.47s.12-.34.11-.52c0-.46-.34-.86-.3-1.34.14,0,.31,0,.3-.22s.1-.23.25-.24a2.91,2.91,0,0,0,.34,1.71l-.14,0,0,.06.1-.09s.1.07.12.12.26.32.43.27.08-.32.15-.48-.21-.26-.25-.44-.18-.3.06-.42.35-.08.45.14.11.31.18.46.17.32.38.18a.26.26,0,0,0,0-.43,3.63,3.63,0,0,1-.45-.82c-.12-.23-.17-.56-.53-.57,0-.12.05-.21.1-.3s0-.37.18-.33.05.24.06.37,0,.1.17.1a2.64,2.64,0,0,0,.13-2.1,6.8,6.8,0,0,1-.29-1.67,4.1,4.1,0,0,0-.45-2.1c-.56-1,0-1.74,0-2.7.23.33,0,.65.27.89.22-.25,0-.6.24-.85.16.28,0,.6.21.87.13-.24-.11-.42.06-.58.3.06.22.35.33.53a.82.82,0,0,0,.49-1.25c.27,0,.43.48.68.08a.7.7,0,0,1,1-.34c.06,0,.13.06.19,0,.08-.27-.28-.34-.25-.62.54.07.75-.66,1.35-.52.15,0,.16-.18.15-.31,0-.3.07-.61-.16-.9a1.4,1.4,0,0,0-.82-.39.41.41,0,0,1,.46-.22c.6.22.63-.11.65-.57,0-.15-.15-.8.46-.39.12.08.22-.11.33-.14s.54-.18.53.27c0,.09,0,.19.17.16s.06-.51.11-.48c.69.27.31-.18.3-.4s.18-.25.35-.25.21-.21.1-.24c-.72-.25-.14-.47,0-.71s.36-.21.32-.51c-.37,0-.72,0-1.09.07a1.45,1.45,0,0,0-1.23.77c-.2.41-.52.26-.75.21s-.33-.34-.22-.64a6.06,6.06,0,0,1,1.61-2.5c.31-.25.55-.57.24-1a9.52,9.52,0,0,0-1.17-1.45c-.64-.62-.77-1.19.12-1.63.13.28.26.31.54.13s.18-.45.14-.69c.42-.54,1.08-.9,1.26-1.63,0-.12.12-.26,0-.35s-.17.09-.26.12a1.55,1.55,0,0,0-.88.71c-.28.49-.82.73-1.19,1.14a2,2,0,0,1-.68.61c-.12,0-.19.17-.34.07a3.38,3.38,0,0,1-.82-.73c-.18-.21.2-.36.15-.59.55.06.4-.46.59-.71.1,0,.19.12.28,0,.26-.43.17-1.05.73-1.31.1,0,.06-.2,0-.3s-.15-.2-.27-.15a4.27,4.27,0,0,0-1.06.76,2.3,2.3,0,0,0-.53.94c-.07.23-.31.61-.61.49a2.8,2.8,0,0,1-1.5-.87c.47-.07.41-.44.43-.77.25,0,.37-.21.54-.35.37-.31.24-.86.58-1.17a.84.84,0,0,0,.21-.8,3.94,3.94,0,0,0-1.71,1c.18.28.41,0,.64,0a3.16,3.16,0,0,0-.26,1.26c-.48.07-.36.47-.43.77-.11,0-.22-.05-.32,0a1.1,1.1,0,0,1-1.16,0,.59.59,0,0,1-.44-.69,5.24,5.24,0,0,1,.27-1c.21-.9-.28-1.66-.42-2.51-1,.55-1,.64-.45,1.61a.3.3,0,0,1,0,.21,7.76,7.76,0,0,1-.69,1.66,1.84,1.84,0,0,1-.56.47c-.13.09-.18,0-.23-.18s.12-.61-.14-1c-.07.52-.66.61-.69,1.13,0-.31,0-.57-.35-.58-.67,0-.21.69-.58.91a.37.37,0,0,0-.32-.32c-.16,0-.35-.16-.24-.38a.38.38,0,0,0-.29-.58c-.23,0-.29.27-.3.49a1.48,1.48,0,0,1-.56,1.09c-.13.11-.34.54-.44-.05,0-.12-.26-.12-.33.06a2.44,2.44,0,0,0-.05.39c0,.15,0,.38-.21.42s-.25-.17-.33-.31-.12-.24-.31-.17l-.05.94c-.28-.25-.45-.81-.76-.12-.07.16-.64-.05-.58-.23.15-.45-.19-.61-.32-.89A2.54,2.54,0,0,0,350,19.66c-.07.48.3.67.46,1s.52.32.23.7c-.05.07.06.36.2.3.32-.13.23.08.27.23a2.53,2.53,0,0,1,.1.82h0c-.26-.32-.8-.31-.85-.82-.28.18.15.59-.32.62-.18-.11-.31-.21-.58,0a12.24,12.24,0,0,0-2.89,2.37,15,15,0,0,0-2.87,4.77,13.56,13.56,0,0,0-.88,6c.05.59.15,1.17.15,1.76a12.24,12.24,0,0,0,.45,1.88,6.11,6.11,0,0,0,.9,2,15.82,15.82,0,0,0,2.48,3.38c.28.28.6.49.86.79a9.35,9.35,0,0,0,2.36,1.7c.52.32,1.13.45,1.64.8C351.18,48.18,351.05,48.66,351.39,49Zm-2.25-6.2c-.1-.12.08-.37-.14-.42s-.24.14-.35.23l-.84.8c-.11.1-.25.21-.12.37s.26,0,.36-.07.24-.29.37-.41.34-.51.71-.44a.4.4,0,0,0,.15.41.21.21,0,0,1-.21.21c-.06-.07,0-.25-.17-.2s-.15.2-.08.34c.1.3-.23.32-.32.5s-.28.25-.13.41.42.23.55,0c.34-.54.9-.95,1-1.63.1-.11.28-.24.1-.37s-.08.26-.27.22a.36.36,0,0,1-.32.22C349.27,43,349.3,42.75,349.14,42.78ZM344,36.57c0,.33.13.54.55.39a8,8,0,0,1,1.18-.25c.11,0,.31,0,.29-.15s-.22-.16-.36-.16a6,6,0,0,1-1.47.1c.06-.22.41-.07.44-.4-.17-.06-.39-.06-.53-.21C344,36.13,344.05,36.36,344,36.57Zm3.34,12.66h0c.27.19.41,0,.42-.21a5.55,5.55,0,0,0,.1-1.49c-.06.24-.12.42-.37.39s-.28.05-.21.21,0,.3-.2.39-.45.29-.43.42.35.18.54.27S347.31,49.22,347.36,49.23Zm20.48-13.88c0,.18-.09.39.2.42.51.06,1,.1,1.54.15.11,0,.24,0,.26-.16a.28.28,0,0,0-.17-.32.71.71,0,0,0-.43,0,1.84,1.84,0,0,1-1.16-.11c0-.18,0-.38.14-.52s.14-.52,0-.74a1,1,0,0,1,.36-1.43c-.25-.35-.81-.26-.95-.73l-.55,1.25c-.25-.16,0-.47-.29-.6-.05.18,0,.37-.13.48a.91.91,0,0,0,0,1.35.26.26,0,0,1,0,.21c-.13.46-.09.51.42.45-.17.37-.27.72.23.91C367.3,35.13,367.3,35.13,367.84,35.35Zm3.83,3.39h0c.21.35.61.44.92.63s.42-.08.53-.34-.07-.65.06-1c0,0-.09-.16-.12-.15-.31.09-.74-.26-1,.24-.06.12-.3.28-.3.13,0-.47-.52-.53-.57-.9a.73.73,0,0,0-.74-.6,4.82,4.82,0,0,1-.86-.14c-.65-.14-1.31-.22-2-.33a1.08,1.08,0,0,0-.52,1.51c0-.59.47-.69.5-1.1a5.47,5.47,0,0,1,1.14.22c.24,0,.48.08.43.38s-.34.23-.54.2-.61-.14-.92-.19a.22.22,0,0,0-.28.13c0,.12.07.16.15.19a8.57,8.57,0,0,0,1.36.43,3.57,3.57,0,0,1,1.27.14A7.36,7.36,0,0,1,371.67,38.74ZM346.92,52.35h0c0,.18.18.38-.1.53a.2.2,0,0,0,0,.33c.18.18.19.29-.08.4a.16.16,0,0,0,0,.28c.15.1.09-.17.15-.13s.22-.07.31-.15a3.34,3.34,0,0,0,.76-1.61c-.33,0-1-.42-1-.65.07-.42-.2-.81-.09-1.24s-.24-.32-.42-.41-.33-.16-.33,0c0,.46-.56.64-.46,1.11-.3,0-.6-.43-.78,0-.09.21-.05.16-.24.09s-.42.2-.54.42-.06.23.05.23c.7,0,.51.3.33.67a.22.22,0,0,0,0,.21c.22.23.16.41-.05.61a.24.24,0,0,0,0,.39c.18.12.21-.09.29-.21s.22-.6.52-.3.61.24.83.51.27,0,.33-.18A1.21,1.21,0,0,1,346.92,52.35Zm-8.8-10.28c.11-.39-.17-.65-.28-.94-.25.11-.57-.16-.78.09s0,.45,0,.68.33.25.13.42a1,1,0,0,0-.46.94c0,.06-.15.15,0,.22a.3.3,0,0,0,.26,0c.8-.48,1.72-.77,2.49-1.28s1.5-.64,2.14-1.15a.14.14,0,0,1,.14,0c.44.23.63.16.62-.38s.7-.18.72-.64a.43.43,0,0,0,0-.11c-.1-.4-.37-.51-.77-.3s-.82.4-1.2.65c-.22.14-.48.09-.71.18-.38.15-.73.45-1.2.39-.17,0-.57.24-.49.46C338.94,41.93,338.44,41.91,338.12,42.07Zm25.13,4.13c.35-.25.26-.53.16-.82a.37.37,0,0,1,.1-.45c.22-.15.24.08.33.17a.29.29,0,0,0,.39.09c.15-.1.1-.27,0-.4-.2-.31-.4-.61-.61-.91-.1-.13-.22-.27-.41-.24s-.1.25-.15.37,0,.33-.26.23-.23-.32-.41-.14-.08.41,0,.63C362.57,45.28,363.07,45.63,363.25,46.2Zm11.85-11c.7-.32.83-.72.4-1.18-.11.11.11.37-.15.4s-.23-.17-.26-.3a.83.83,0,0,0-1.17-.76c-.13,0-.37.13-.32.15.36.12-.12.7.38.68C374.89,34.2,375.13,34.41,375.1,35.23Zm.24-2.07a1.9,1.9,0,0,1,0-1.09c.1-.42-.14-.83-.47-.77s-.76-.08-.9.2-.07.77.18.85C374.63,32.49,374.82,33,375.34,33.16Zm-2.6,3.13c-.05-.47-.24-.85-.1-1.23s.11-.73-.36-.88c-.11,0,0-.3-.29-.2s-.33.41-.42.65,0,.38.15.36c.46,0,.38.37.36.51C372,36,372.34,36.12,372.74,36.29Zm-33.87-2.65-.65,0a4.25,4.25,0,0,0-1.59.07c-.23.09-.48.23-.16.5A1.88,1.88,0,0,0,338.87,33.64ZM350.21,53l.09,0A8,8,0,0,0,352,51a.2.2,0,0,0,0-.14.34.34,0,0,0-.2,0A3,3,0,0,0,350.21,53Zm19.18-7.33c.4.74.76,1,1.27.88.15,0,.45,0,.42-.31s-.31-.6-.5-.54C370.17,45.86,369.82,45.62,369.39,45.71Zm-20.14-.59c-.05.12-.1.22,0,.28a.27.27,0,0,0,.31,0,6.93,6.93,0,0,0,1.05-1.53c.07-.12,0-.21-.09-.28s-.2,0-.26.1a7.59,7.59,0,0,1-.62.84C349.5,44.69,349.14,44.8,349.25,45.12Zm8.41,1.06c0,.32.07.69.1,1,0,.15,0,.31.22.33s.24-.17.24-.3a4,4,0,0,0-.18-1.51c0-.09-.08-.18-.19-.17a.19.19,0,0,0-.19.22Zm12-23.47c-.33,0-.93.76-.84,1.08,0,.14.15.14.25.07l1-.75c.15-.11.09-.2,0-.25A2.86,2.86,0,0,0,369.63,22.71Zm-25,16.38a5.89,5.89,0,0,0,1.79-.52c.09-.08.17-.17.1-.28s-.19-.07-.3,0l-1.14.4C344.87,38.74,344.67,38.83,344.63,39.09Zm24.24.14c.11,0,.27,0,.33-.15s-.08-.26-.21-.34a6.73,6.73,0,0,0-1.53-.45.14.14,0,0,0-.21.11.25.25,0,0,0,.1.18A6.22,6.22,0,0,0,368.87,39.23Zm-2.09,7.92c0,.52-.06,1.06.73,1.13.43,0,.34-.11.26-.33C367.59,47.51,367.09,47.45,366.78,47.15Zm4.5-15.53c.07.24-.42.27-.15.58-.19.12,0,.63-.51.41-.15-.07-.39,0-.35.23s.45.16.67.28.4.08.38-.16C371.29,32.52,371.66,32.08,371.28,31.62Zm3.58,5.13c-.53.16-.94-.39-1.44-.16C373.76,37.37,373.9,37.39,374.86,36.75ZM366.2,21.21a.52.52,0,0,0-.53-.62c-.22,0-.23.26-.25.47a.59.59,0,0,0,.55.63C366.18,21.73,366.17,21.37,366.2,21.21Zm5.74,29c.16-.49.66-.63,1-.94.13-.12.18-.2.09-.36s-.2-.11-.31,0a7,7,0,0,1-.66.56C371.74,49.69,371.75,49.93,371.94,50.22Zm-2.69,2.12c0-.24,0-.47-.29-.45a.38.38,0,0,0-.37.41c0,.23.11.57.43.55S369.26,52.55,369.25,52.34Zm-27-23.51c-.2.08-.4.19-.34.35s.43.4.69.49.22-.21.21-.36C342.75,28.94,342.33,29.06,342.21,28.83Zm-1.47,2.81a2.59,2.59,0,0,0,1,.46c.14,0,.32.07.33-.16a.26.26,0,0,0-.26-.3Zm3.6-11.14a1,1,0,0,1,0-.3c.08-.43-.49-.17-.51-.49,0,0-.08,0-.08,0-.15.25.09.27.22.37s.05.17,0,.18c-.25,0-.31.11-.15.28s.24.32.45.27S344.33,20.6,344.34,20.5ZM365,48c.05-.3-.22-.35-.41-.38a.34.34,0,0,0-.37.33c0,.31.29.4.55.42S365,48.16,365,48Zm-15.5-26.82c0-.24,0-.46-.33-.48s-.32.24-.33.38a.44.44,0,0,0,.42.43C349.46,21.53,349.45,21.31,349.46,21.15Zm-7.61,15.56c0-.32.21-.41.44-.5a.22.22,0,0,0,.12-.23c0-.12-.13-.13-.22-.11s-.53-.12-.56,0A.71.71,0,0,0,341.85,36.71ZM356.6,50.07c0,.17,0,.46.28.47s.28-.32.3-.54,0-.44-.3-.44S356.6,49.8,356.6,50.07Zm-13-21.44a3.21,3.21,0,0,0-1.35-.39C342.6,28.86,342.85,28.92,343.61,28.63Zm5.58,19c-.14.13-.44.14-.43.41s.07.36.3.32a.46.46,0,0,0,.4-.51C349.45,47.67,349.37,47.59,349.19,47.6Zm22.12-18c.18-.09.48-.06.53-.41,0-.19-.06-.26-.21-.23s-.57.09-.66.39C370.93,29.44,371.1,29.56,371.31,29.56Zm-9.23,19.13c-.15.05-.25.16-.2.32s.1.52.4.51.23-.27.23-.45S362.3,48.75,362.08,48.69Zm-20.65-14c.17,0,.46.17.45-.21s-.25-.21-.42-.21-.41,0-.41.23S341.26,34.78,341.43,34.73Zm29,12.37c-.13,0-.34.06-.25.15a1.57,1.57,0,0,0,.67.48c.34.1-.09-.34.19-.35C370.91,47.12,370.6,47.24,370.44,47.1Zm-16,2.66c0-.19,0-.41-.25-.39s-.26.28-.28.47,0,.33.2.33S354.47,50,354.47,49.76Zm16.78-24.58c.39-.25.69-.47.93,0a.12.12,0,0,0,.19,0c.07-.07,0-.13,0-.19s-.11-.39-.29-.35S371.41,24.64,371.25,25.18ZM342,33.8c.15-.16.58,0,.58-.23s-.33,0-.5-.1l-.1,0c-.12-.07-.22-.23-.38-.09a.21.21,0,0,0,0,.19C341.69,33.67,341.78,33.82,342,33.8Zm28.13-6.69c.15-.21.58-.1.62-.49,0-.14-.13-.19-.23-.15s-.59,0-.65.4C369.86,27,369.93,27.12,370.14,27.11Zm-18.2-7c-.09-.18-.13-.46-.44-.51-.11,0-.24,0-.22.18a.77.77,0,0,0,.44.65C351.83,20.42,351.92,20.26,351.94,20.06Zm14.61,17.65a2.18,2.18,0,0,0-.38,1.44C366.54,38.69,366.8,38.32,366.55,37.71Zm-19.7,9.15a1.31,1.31,0,0,0,.45-.6c.06-.2-.17-.15-.27-.14-.29.05-.38.3-.43.54S346.64,46.87,346.85,46.86Zm3-27.92c.08.27.39.37.61.54s.17-.12.13-.18c-.14-.23-.26-.5-.54-.59S349.84,18.75,349.84,18.94Zm19.25,5.58c0-.14-.08-.27-.23-.27s-.4.25-.49.45.11.22.24.19S369,24.78,369.09,24.52Zm-27.46,13c.1,0,.31.07.35-.18s-.26-.24-.41-.32a.22.22,0,0,0-.31.21C341.24,37.43,341.4,37.49,341.63,37.5Zm3.81,6.89a.17.17,0,0,0-.21-.18.59.59,0,0,0-.52.43.16.16,0,0,0,.2.19A.63.63,0,0,0,345.44,44.39Zm-2-1.76c.14-.12.4-.2.4-.48,0-.11-.16-.23-.23-.15s-.52.09-.5.43C343.14,42.57,343.26,42.64,343.47,42.63Zm3.78-20a.42.42,0,0,0-.34-.38.2.2,0,0,0-.21.26c.05.2.13.41.37.44S347.26,22.83,347.25,22.63ZM372,37c-.11,0-.38,0-.34.21s.41.14.62.25.26,0,.22-.14S372.27,37.06,372,37ZM356.77,17.32c0,.35-.19.73.08,1.13A1,1,0,0,0,356.77,17.32Zm-3.54,2.5-.15,0,.26,1C353.53,20.49,353.3,20.17,353.23,19.82Zm-8.07,5c.09,0,.24.05.22-.14s-.21-.33-.4-.4-.21,0-.2.16A.36.36,0,0,0,345.16,24.82Zm0,9.8c-.23.14-.49.06-.58.33,0,0,.07.08.11.09C345,35.1,345.14,35,345.2,34.62Zm23,13.73c.15-.25.38-.57-.2-.63Zm.27-16.67a.16.16,0,0,0-.18-.16.18.18,0,0,0-.21.14.11.11,0,0,0,.11.15C368.28,31.82,368.39,31.81,368.44,31.68ZM336.73,42s0,.06,0,.08.05,0,.08,0a.2.2,0,0,0,0-.08S336.76,42,336.73,42Zm32.2-11.74,0,0h0Zm-2,7.84,0,0s0,.05,0,.08l0,0Zm1.57-14.06s0,0,0,0,0,0,0-.05l-.07,0Z" transform="translate(-4.42)"/><path class="cls-1" d="M360.2,54.36c0,.27-.1.55.13.8s0,.27-.14.26c-.95-.09-1.87.29-2.82.14-.18,0-.32-.05-.28-.23.18-.76-.07-1.52.07-2.29s.07-.83.9-.89a27.48,27.48,0,0,0,3.28-.42,8,8,0,0,0,1.67-.68c.66-.3.84-.28,1,.36a17.94,17.94,0,0,0,.89,2c.22.66.19.72-.52.73a1,1,0,0,0-.52.13c-.51.27-1.05.48-1.59.71-.11.05-.26.11-.33-.06s.08-.2.17-.25.25-.08.36-.14.05-.09.05-.14-.06-.09-.12-.06-.1.1-.21,0c-.34-.33-.58-.25-.62.23,0,.3-.09.49-.4.55s-.46-.09-.55-.39C360.55,54.57,360.34,54.48,360.2,54.36Z" transform="translate(-4.42)"/><path class="cls-1" d="M355.6,15.44c.07.16,0,.18-.16.18a9.92,9.92,0,0,0-2.74.68c-.28.1-.29-.1-.34-.22-.36-1-.71-2.06-1.06-3.09-.11-.31,0-.45.32-.51a17.09,17.09,0,0,1,3.1-.4c.16,0,.37-.06.4.18Q355.38,13.85,355.6,15.44Z" transform="translate(-4.42)"/><path class="cls-1" d="M349.59,13.63c.08.34-.17.72.12,1,.07.08.09.24.17.28.83.33.55,1.26,1,1.81a.3.3,0,0,1-.19.44,22.21,22.21,0,0,0-2.34,1,.3.3,0,0,1-.45-.12c-.53-.79-.85-1.71-1.45-2.47a.42.42,0,0,1,.11-.68,10.4,10.4,0,0,1,3-1.33Z" transform="translate(-4.42)"/><path class="cls-1" d="M344.32,17.87c0,.12-.27.21-.42.3-.74.44-1.17,1.2-1.82,1.72a9.92,9.92,0,0,0-1.47,1.7.26.26,0,0,1-.33.12.74.74,0,0,1-.4-1.23c.17-.19.35-.41.63-.09a.37.37,0,0,0,.62,0c.24-.29,0-.41-.2-.5s-.25-.33-.08-.52a11.42,11.42,0,0,1,1.61-1.65l.67-.49c.18-.14.3-.45.59-.28A1.23,1.23,0,0,1,344.32,17.87Z" transform="translate(-4.42)"/><path class="cls-1" d="M360.72,56.61c.18.13.43.49.5-.08,0-.18.24-.19.4-.23s.29-.07.31-.26-.05-.35.18-.32.13.24.16.37a1.15,1.15,0,0,1-1.46,1.38C360.59,57.41,360.57,57.25,360.72,56.61Z" transform="translate(-4.42)"/><path class="cls-1" d="M362.81,55.58c.23.05.15.77.59.09l.05.8c.15-.11.34-.35.48,0s-.15.28-.29.36a.76.76,0,0,1-.21.08c-.32.08-.74.4-1,.11s0-.73.19-1.07Z" transform="translate(-4.42)"/><path class="cls-2" d="M371.9,19c0,.12-.08.28-.22.07s-.08-.21-.23-.13-.14.22-.26.1,0-.24.1-.32c.26-.23.29-.6.53-.84l.8.74c-.27.07-.42.38-.73.38l-.05-.17s0,0,0,0S371.83,19,371.9,19Z" transform="translate(-4.42)"/><path class="cls-2" d="M353,57.58c-.24-.49.11-.85.28-1.26a8.31,8.31,0,0,0,0,1.32Z" transform="translate(-4.42)"/><path class="cls-2" d="M379.46,35.34c-.2,0-.41-.15-.36-.32s0-.56.34-.58Z" transform="translate(-4.42)"/><path class="cls-2" d="M362,12.64a1,1,0,0,1-.21.91c-.07-.37-.12-.67-.17-1Z" transform="translate(-4.42)"/><path class="cls-1" d="M347.93,13.69a2.11,2.11,0,0,1-1.14.5A2.11,2.11,0,0,1,347.93,13.69Z" transform="translate(-4.42)"/><path class="cls-2" d="M355.78,57.9a2.11,2.11,0,0,1,0-1,.81.81,0,0,1,.11,1Z" transform="translate(-4.42)"/><path class="cls-2" d="M378.24,27.88c0,.28-.22.34-.46.35l0,0c.1-.23.11-.55.5-.45Z" transform="translate(-4.42)"/><path class="cls-2" d="M360.93,12.41c.08.21.34.29.36.54-.47,0-.47,0-.41-.54Z" transform="translate(-4.42)"/><path class="cls-1" d="M344,16.29l-.11-.11.08-.06.1.09Z" transform="translate(-4.42)"/><path class="cls-1" d="M345.58,14.86l0,0,0,0Z" transform="translate(-4.42)"/><path class="cls-1" d="M349.59,13.63l.06,0s0,0,0,0Z" transform="translate(-4.42)"/><path class="cls-2" d="M351.93,44.53c-.32.12-.24-.34-.49-.33a.16.16,0,0,1-.07-.07c.08-.39-.17-.72-.16-1.1-.22-.08-.33.18-.52.14s-.37-.17-.23-.26c.48-.31-.24-.51,0-.79,0,0-.24-.06-.37,0s-.5.47-.81,0c-.08-.1-.28,0-.43,0s-.34.12-.38-.15a.28.28,0,0,0,.05-.46c-.15-.16-.28,0-.42.06a1.24,1.24,0,0,1-.23.12c-.15-.11-.15-.22,0-.35s.24-.12.13-.29,0-.18,0-.26,0-.19-.17-.13a1.15,1.15,0,0,0-.59.32c-.11,0-.18,0-.16.12h0c-.14-.06-.2,0-.21.14a.1.1,0,0,0-.07,0c-.12,0-.15,0-.14.12l-.23.16c-.12-.16-.31-.25-.34-.47a4.15,4.15,0,0,1,1-.6c.23-.09.55-.21.36-.59s-.21-.24-.31,0l-.25.11c-.28-.07-.23-.25-.15-.45s.41-.2.25-.48l.28-.26c.14-.13.11-.3.09-.47-.47.08-.34-.66-.82-.58-.1,0-.1-.14-.15-.21h0a.61.61,0,0,0,.7-.5c.07-.27-.19-.55-.53-.6-.19,0-.36-.09-.3-.29.11-.45-.25-.52-.49-.57s-.49-.13-.2-.46.31-.5,0-.75a.62.62,0,0,1-.15-.29c-.18-.49-.52-.59-.93-.3s-.8.11-1.13.38c0-.17,0-.33,0-.5a9.13,9.13,0,0,0,1.71-.52c.59-.31.59-.54,0-.94-.27-.19-.63-.28-.8-.6.2-.26.65.19.72-.31,0,0,.13,0,.05-.08l0,.09-.79-.34c.67-.1.67-.1.52-.52l.22,0c.16,0,.39,0,.33-.25s-.25-.06-.38,0a.76.76,0,0,1-.85-.23l.14-.53c.29.05.57.09.85.15.09,0,.18.07.23,0s-.05-.17-.11-.21l-.72-.38.16-.33h1.53c-.07-.13-.1-.19-.14-.25-.19-.22-.43-.37,0-.71s.54-.73-.15-1c0,0,0-.06-.06-.09l.45-.63c.19-.21.55.56.65-.12.72.07-.06-.49.28-.6.06,0,.08.09.11.15a.37.37,0,0,0,.54.06c.18-.12,0-.36-.08-.41-.34-.18,0-.43-.11-.63l.09-.08c.06.08.12.22.25.16s.12-.24.05-.38l.21-.24c.2.07.24,0,.19-.19l.05,0a1.56,1.56,0,0,0,1-.08,1.11,1.11,0,0,1-.2-.55c.41,0,.57-.39.83-.6.47,0,0-.45.32-.63,0,.51.59.5.85.82l.05,0-.05,0a2.53,2.53,0,0,0-.1-.82c0-.15,0-.36-.27-.23-.14.06-.25-.23-.2-.3.29-.38-.11-.48-.23-.7s-.53-.48-.46-1a2.54,2.54,0,0,1,1.12,1.15c.13.28.47.44.32.89-.06.18.51.39.58.23.31-.69.48-.13.76.12l.05-.94c.19-.07.24.07.31.17s.13.36.33.31.17-.27.21-.42a2.44,2.44,0,0,1,.05-.39c.07-.18.31-.18.33-.06.1.59.31.16.44.05a1.48,1.48,0,0,0,.56-1.09c0-.22.07-.52.3-.49a.38.38,0,0,1,.29.58c-.11.22.08.35.24.38a.37.37,0,0,1,.32.32c.37-.22-.09-.92.58-.91.35,0,.38.27.35.58,0-.52.62-.61.69-1.13.26.36.07.68.14,1s.1.27.23.18a1.84,1.84,0,0,0,.56-.47,7.76,7.76,0,0,0,.69-1.66.3.3,0,0,0,0-.21c-.53-1-.51-1.06.45-1.61.14.85.63,1.61.42,2.51a5.24,5.24,0,0,0-.27,1,.59.59,0,0,0,.44.69,1.1,1.1,0,0,0,1.16,0c.1-.08.21,0,.32,0h0a2.8,2.8,0,0,0,1.5.87c.3.12.54-.26.61-.49a2.3,2.3,0,0,1,.53-.94,4.27,4.27,0,0,1,1.06-.76c.12-.05.21.05.27.15s.09.26,0,.3c-.56.26-.47.88-.73,1.31-.09.16-.18,0-.28,0-.19-.26-.35-.14-.51,0s-.1.44-.08.67-.33.38-.15.59a3.38,3.38,0,0,0,.82.73c.15.1.22,0,.34-.07a2,2,0,0,0,.68-.61c.37-.41.91-.65,1.19-1.14a1.55,1.55,0,0,1,.88-.71c.09,0,.13-.22.26-.12s0,.23,0,.35c-.18.73-.84,1.09-1.26,1.63-.21,0-.29.15-.41.28s-.12,0-.11.11l-.16.17c-.89.44-.76,1-.12,1.63a9.52,9.52,0,0,1,1.17,1.45c.31.46.07.78-.24,1a6.06,6.06,0,0,0-1.61,2.5c-.11.3-.07.57.22.64s.55.2.75-.21a1.45,1.45,0,0,1,1.23-.77c.37-.05.72-.05,1.09-.07,0,.3-.22.35-.32.51s-.71.46,0,.71c.11,0,.13.24-.1.24s-.36,0-.35.25.39.67-.3.4c-.05,0,.05.34-.11.48s-.17-.07-.17-.16c0-.45-.28-.35-.53-.27s-.21.22-.33.14c-.61-.41-.46.24-.46.39,0,.46-.05.79-.65.57a.41.41,0,0,0-.46.22,1.4,1.4,0,0,1,.82.39c.23.29.14.6.16.9,0,.13,0,.34-.15.31-.6-.14-.81.59-1.35.52,0,.28.33.35.25.62-.06.07-.13,0-.19,0a.7.7,0,0,0-1,.34c-.25.4-.41-.06-.68-.08a.82.82,0,0,1-.49,1.25c-.11-.18,0-.47-.33-.53-.17.16.07.34-.06.58-.22-.27,0-.59-.21-.87-.24.25,0,.6-.24.85-.24-.24,0-.56-.27-.89,0,1-.6,1.75,0,2.7a4.1,4.1,0,0,1,.45,2.1,6.8,6.8,0,0,0,.29,1.67,2.64,2.64,0,0,1-.13,2.1c-.14,0-.17,0-.17-.1s.16-.33-.06-.37-.13.21-.18.33-.14.18-.1.3h0c-.2.05-.36.33-.6,0-.08-.09-.15.1-.21.19l-.1.07c-.15,0-.25.08-.25.24s-.16.2-.3.22c-.12-.14-.25-.18-.39,0s-.35.34-.63.2l-.2-.11c-.31-.11-.68.21-1-.18-.09-.11-.24.16-.26.32a6.92,6.92,0,0,1-.19,1c-.05-.3-.09-.61-.16-.9,0-.13,0-.13-.22,0s-.32.2-.33.41a.69.69,0,0,1-.51,0c0-.2.07-.44-.26-.44s-.51-.24-.8-.14h-.18c-.08,0-.18,0-.22.05s0,.11.05.17l-.08.39c-.23,0-.27-.24-.41-.35,0-.17.05-.34-.15-.42s-.23.06-.3.18a.21.21,0,0,0-.14.27.24.24,0,0,0,0,.08c-.18,0-.25-.1-.33-.21s0-.28.11-.38.15-.36-.18-.31l-.11,0c-.09-.08-.14,0-.17.06l0,0-.44-.17a.24.24,0,0,0-.22-.26c0-.11-.07-.21-.2-.17s-.15.12-.09.24Zm7.59-24.77c.31-.15.2-.48.31-.71s-.07-.2-.2-.19c-.38,0-.33.34-.4.55S359.36,19.69,359.52,19.76Z" transform="translate(-4.42)"/><path class="cls-3" d="M344.21,29.46l-.14.53a7,7,0,0,0-.71,2.35,2.76,2.76,0,0,0,0,1.4c0,.17,0,.33,0,.5a.36.36,0,0,0,0,.51v.17a3.64,3.64,0,0,0,.2,2.09c.06.31.09.61.13.91s.08.73.59.71h0c-.05.15.07.26,0,.42a2.18,2.18,0,0,0,.26,1.49c.65,1.14,1.52,2.12,2.23,3.19a10.13,10.13,0,0,0,3,2.65,9,9,0,0,0,2.54,1.3,10.32,10.32,0,0,0,3.83.64c.93-.09,1.87,0,2.81-.11a12.71,12.71,0,0,0,3.25-1,16,16,0,0,0,1.9-.94c.51-.32,1-.7,1.47-1.06.13-.08.12-.22.11-.35a.35.35,0,0,1,.23-.4c.14-.06.36-.12.25-.34s-.33-.13-.5-.13-.27.14-.22.34.06.35-.18.4a.35.35,0,0,1-.41-.2c-.26-.41-.73-.67-.89-1.16,0-.13-.12-.26,0-.36s.24,0,.36.08l.1,0c.17.05.22.46.45.25s-.07-.44-.11-.67-.32-.17-.15-.34.29,0,.43.1.4.32.59.1,0-.41-.17-.57-.21-.21-.08-.33.22,0,.32.09a5.4,5.4,0,0,0,1.13.81c.06,0,.46.22,0,.42-.16.08-.34.18-.16.42s.27.28.47.16a.46.46,0,0,0,.23-.56,3.29,3.29,0,0,0-1.25-1.7c-.12-.11-.3-.16-.23-.47.61.41,1.41.35,1.87,1l0,0h0l-.05,0c.25-.69-.53-.67-.74-1-.07-.11-.22-.19-.31-.31s-.48-.17-.32-.42.36.07.54.11a3.14,3.14,0,0,1,.57.24c.12.06.24.14.34,0a.29.29,0,0,0-.06-.4,2.3,2.3,0,0,0-.7-.44c-.15-.05-.34-.18-.24-.37s.23,0,.35.06a2.16,2.16,0,0,0,.76.12c.23,0,.47-.07.67.14a.37.37,0,0,0,.47,0c.3-.35.72.19,1-.17,0,0,.09,0,.09.05.16.71.55.22.83.13a.75.75,0,0,1,.67.13.26.26,0,0,1,.08.35c-.06.13-.16.11-.28.07s-.42-.16-.47.16-.23.37,0,.51.45,0,.65-.14a1.34,1.34,0,0,0,.57-.82c.2.18.2.4.34.54.52.51.51.81,0,1.34a.41.41,0,0,0-.14.44c.06.19.18.06.3,0s.11.14.11.22a6.09,6.09,0,0,0,0,1.28.35.35,0,0,1-.09.23c-.38-.08-.48.45-.82.4s-.32.21-.29.43h0c-.24,0-.27-.3-.49-.32s-.5-.31-.56.19c0,.15-.21.19-.36.22-.45.09-.89-.06-1.36,0a.41.41,0,0,1-.29-.71c.16-.16.12-.33.16-.51l0,0,0,0c-.14,0-.3.07-.43,0-.28-.24-.37.12-.55.17.13.31-.57.74.13,1,.12,0,.08.2,0,.3a.57.57,0,0,0,0,.6l.26-.85c.14.23,0,.45.16.65.45.69.44.69-.32,1-.12-.1.11-.39-.11-.34s-.45,0-.53.27-.15.46-.42.39a.73.73,0,0,1-.48-.56,1.62,1.62,0,0,1,0-.22c-.09-.5-.29-.61-.7-.33a17,17,0,0,1-1.68,1.13,20.12,20.12,0,0,1-4.89,1.86A.19.19,0,0,0,359,49c.05.11.08.13.23.06.33-.16.35.22.49.38a.56.56,0,0,1,.07.67,2.93,2.93,0,0,1-1.18,0c-.08-.23.12-.31.26-.38s.29,0,.27-.21-.18-.13-.3-.1-.25-.12-.2-.26c.17-.46-.19-.37-.42-.4a.9.9,0,0,0-.43.06c-.73.31-1.47,0-2.21.07a5.42,5.42,0,0,1-1.22-.22,22.14,22.14,0,0,1-2.56-.75l-.1,0c-.51-.35-1.12-.48-1.64-.8a9.35,9.35,0,0,1-2.36-1.7c-.26-.3-.58-.51-.86-.79a15.82,15.82,0,0,1-2.48-3.38,6.11,6.11,0,0,1-.9-2A12.24,12.24,0,0,1,343,37.3c0-.59-.1-1.17-.15-1.76a13.56,13.56,0,0,1,.88-6,15,15,0,0,1,2.87-4.77,12.24,12.24,0,0,1,2.89-2.37c.27-.16.4-.06.58.06-.26.21-.42.58-.83.6a2,2,0,0,0-.82.63l-.05,0a.17.17,0,0,0-.19.19l-.21.24a.27.27,0,0,0-.3.22l-.09.08A5.28,5.28,0,0,0,346.21,26l-.45.63a4.55,4.55,0,0,0-1.14,2l-.16.34A.78.78,0,0,0,344.21,29.46Zm26,12.31c-.26-.53-.9-.56-1.16-1.05-.14-.27-.47-.17-.71-.25-.08,0-.21.09-.16.17s.12.49.39.55a1,1,0,0,1,.71.64c.19.33.42.41.7.09C370,41.84,370.1,41.81,370.16,41.77Zm.83-.07c0-.11.07-.29-.19-.3s-.27.14-.27.33a1,1,0,0,0,.29.7.29.29,0,0,0,.44,0c.14-.16.07-.32-.15-.36S370.89,41.92,371,41.7Z" transform="translate(-4.42)"/><path class="cls-3" d="M377.76,28.19l0,0a10.77,10.77,0,0,0,.45,2.1,25.17,25.17,0,0,1,0,8.35c-.26,1.61-.47,1.12-1.51.88-.32-.07-.38-.22-.33-.5.15-.87.32-1.74.39-2.63a21,21,0,0,0-.32-5.87,17.68,17.68,0,0,0-1.6-4.67,1.16,1.16,0,0,1,1-1.52c.23,0,.31.11.4.3a11.69,11.69,0,0,1,1.27,3.16A.48.48,0,0,0,377.76,28.19Zm.39,6.32a21.92,21.92,0,0,0-.64-5,17.42,17.42,0,0,0-1.42-4c-.1-.2,0-.55-.49-.38s-.32.36-.2.65a32.51,32.51,0,0,1,1.32,3.86,20.54,20.54,0,0,1,.55,6.14,10.65,10.65,0,0,1-.41,2.91c-.11.32.06.53.38.62s.42-.12.48-.42A27,27,0,0,0,378.15,34.51Z" transform="translate(-4.42)"/><path class="cls-3" d="M346.92,52.35a1.21,1.21,0,0,0-.55.86c-.06.22-.19.35-.33.18s-.58-.26-.83-.51-.39.13-.52.3-.11.33-.29.21a.24.24,0,0,1,0-.39c.21-.2.27-.38.05-.61a.22.22,0,0,1,0-.21c.18-.37.37-.72-.33-.67-.11,0-.1-.15-.05-.23s.26-.52.54-.42.15.12.24-.09c.18-.44.48-.06.78,0-.1-.47.45-.65.46-1.11,0-.12.24,0,.33,0s.5.12.42.41.16.82.09,1.24c0,.23.63.67,1,.65a3.34,3.34,0,0,1-.76,1.61c-.09.08-.12.25-.31.15s0,.23-.15.13a.16.16,0,0,1,0-.28c.27-.11.26-.22.08-.4a.2.2,0,0,1,0-.33c.28-.15.11-.35.1-.53.1,0,.23,0,.28-.09s-.05-.1-.09-.1S346.92,52.23,346.92,52.35Z" transform="translate(-4.42)"/><path class="cls-3" d="M338.12,42.07c.32-.16.82-.14.6-.78-.08-.22.32-.48.49-.46.47.06.82-.24,1.2-.39.23-.09.49,0,.71-.18.38-.25.8-.44,1.2-.65s.67-.1.77.3a.43.43,0,0,1,0,.11c0,.46-.72.21-.72.64s-.18.61-.62.38a.14.14,0,0,0-.14,0c-.64.51-1.46.69-2.14,1.15s-1.69.8-2.49,1.28a.3.3,0,0,1-.26,0c-.12-.07,0-.16,0-.22a1,1,0,0,1,.46-.94c.2-.17-.09-.27-.13-.42s-.22-.47,0-.68.53,0,.78-.09C338,41.42,338.23,41.68,338.12,42.07Z" transform="translate(-4.42)"/><path class="cls-3" d="M367.67,36.3c.65.11,1.31.19,2,.33a4.82,4.82,0,0,0,.86.14.73.73,0,0,1,.74.6c0,.37.58.43.57.9,0,.15.24,0,.3-.13.22-.5.65-.15,1-.24,0,0,.14.12.12.15-.13.32.06.65-.06,1s-.31.49-.53.34-.71-.28-.92-.63c.09,0,.19,0,.18-.14s0,0,0,0-.13.1-.14.19a7.36,7.36,0,0,0-1.41-.53,3.57,3.57,0,0,0-1.27-.14,8.57,8.57,0,0,1-1.36-.43c-.08,0-.19-.07-.15-.19a.22.22,0,0,1,.28-.13c.31,0,.61.15.92.19s.49.13.54-.2-.19-.36-.43-.38a5.47,5.47,0,0,0-1.14-.22A.43.43,0,0,1,367.67,36.3Zm3.19,1.21c0-.12-.05-.31-.2-.28s-.24.3-.29.48a.17.17,0,0,0,.2.2C370.78,37.88,370.81,37.68,370.86,37.51Z" transform="translate(-4.42)"/><path class="cls-2" d="M367.84,35.35c-.54-.22-.54-.22-.47.59-.5-.19-.4-.54-.23-.91-.51.06-.55,0-.42-.45a.26.26,0,0,0,0-.21.91.91,0,0,1,0-1.35c.09-.11.08-.3.13-.48.27.13,0,.44.29.6l.55-1.25c.14.47.7.38.95.73a1,1,0,0,0-.36,1.43c.1.22.25.51,0,.74s-.11.34-.14.52Zm0-2.8a.78.78,0,0,0-.05.18c0,.07,0,.15.12.09a.31.31,0,0,0,.06-.19C368,32.58,367.93,32.52,367.83,32.55Z" transform="translate(-4.42)"/><path class="cls-3" d="M363.25,46.2c-.18-.57-.68-.92-.86-1.47-.07-.22-.17-.44,0-.63s.27.09.41.14.22-.12.26-.23-.07-.33.15-.37.31.11.41.24c.21.3.41.6.61.91.09.13.14.3,0,.4a.29.29,0,0,1-.39-.09c-.09-.09-.11-.32-.33-.17a.37.37,0,0,0-.1.45C363.51,45.67,363.6,46,363.25,46.2Z" transform="translate(-4.42)"/><path class="cls-3" d="M360.52,44.84l.1-.07c.29.13.29.7.69.56s.07-.51.12-.78h0c.36,0,.41.34.53.57a3.63,3.63,0,0,0,.45.82.26.26,0,0,1,0,.43c-.21.14-.3,0-.38-.18s-.11-.31-.18-.46-.24-.25-.45-.14-.1.26-.06.42.37.19.25.44.08.42-.15.48-.34-.08-.43-.27-.08-.08-.12-.12h0A2.91,2.91,0,0,1,360.52,44.84Z" transform="translate(-4.42)"/><path class="cls-2" d="M344.1,16.21l-.1-.09c0-.23-.06-.48.29-.24A4.16,4.16,0,0,1,346,18.07a.46.46,0,0,0,.43.3c.23,0,.23.14.15.3s-.18.14-.33,0a1.08,1.08,0,0,0-1.17-.24c.56-.68.08-1-.15-1.39A1.84,1.84,0,0,0,344.1,16.21Z" transform="translate(-4.42)"/><path class="cls-2" d="M362.39,19.57a3.16,3.16,0,0,1,.26-1.26c-.23-.07-.46.25-.64,0a3.94,3.94,0,0,1,1.71-1,.84.84,0,0,1-.21.8c-.34.31-.21.86-.58,1.17-.17.14-.29.33-.54.35Z" transform="translate(-4.42)"/><path class="cls-2" d="M375.1,35.23c0-.82-.21-1-1.12-1-.5,0,0-.56-.38-.68-.05,0,.19-.11.32-.15a.83.83,0,0,1,1.17.76c0,.13.07.33.26.3s0-.29.15-.4C375.93,34.51,375.8,34.91,375.1,35.23Z" transform="translate(-4.42)"/><path class="cls-3" d="M375.34,33.16c-.52-.21-.71-.67-1.17-.81-.25-.08-.27-.65-.18-.85s.59-.14.9-.2.57.35.47.77A1.9,1.9,0,0,0,375.34,33.16Z" transform="translate(-4.42)"/><path class="cls-3" d="M372.74,36.29c-.4-.17-.74-.27-.66-.79,0-.14.1-.54-.36-.51-.14,0-.2-.21-.15-.36s.09-.53.42-.65.18.16.29.2c.47.15.51.46.36.88S372.69,35.82,372.74,36.29Z" transform="translate(-4.42)"/><path class="cls-2" d="M338.87,33.64a1.88,1.88,0,0,1-2.4.54c-.32-.27-.07-.41.16-.5a4.25,4.25,0,0,1,1.59-.07Z" transform="translate(-4.42)"/><path class="cls-2" d="M350.21,53a3,3,0,0,1,1.59-2.16.34.34,0,0,1,.2,0,.2.2,0,0,1,0,.14,8,8,0,0,1-1.72,2.07Z" transform="translate(-4.42)"/><path class="cls-3" d="M349.92,42.91c-.1.68-.66,1.09-1,1.63-.13.2-.4.13-.55,0s.06-.28.13-.41.42-.2.32-.5c.13,0,.17-.09.25-.14a.21.21,0,0,0,.21-.21l.15-.27a.36.36,0,0,0,.32-.22Z" transform="translate(-4.42)"/><path class="cls-2" d="M369.39,45.71c.43-.09.78.15,1.19,0,.19-.06.46.22.5.54s-.27.27-.42.31C370.15,46.72,369.79,46.45,369.39,45.71Z" transform="translate(-4.42)"/><path class="cls-3" d="M347.36,49.23c-.05,0-.12,0-.16,0s-.52,0-.54-.27.25-.33.43-.42.31-.14.2-.39.06-.23.21-.21.31-.15.37-.39a5.55,5.55,0,0,1-.1,1.49c0,.18-.15.4-.42.21l0,0s0,0,0,0Z" transform="translate(-4.42)"/><path class="cls-3" d="M349.25,45.12c-.11-.32.25-.43.39-.63a7.59,7.59,0,0,0,.62-.84c.06-.11.13-.18.26-.1s.16.16.09.28a6.93,6.93,0,0,1-1.05,1.53.27.27,0,0,1-.31,0C349.15,45.34,349.2,45.24,349.25,45.12Z" transform="translate(-4.42)"/><path class="cls-3" d="M352.22,44.47a.24.24,0,0,1,.22.26c-.39.39-.41,1-.62,1.43-.1.2-.15.46-.45.35s-.1-.32-.09-.52c0-.59.71-.86.65-1.46h0A.26.26,0,0,0,352.22,44.47Z" transform="translate(-4.42)"/><path class="cls-3" d="M347,39.14c.16.28-.07.37-.25.48-.49,0-.86.38-1.32.51-.13,0-.26.07-.31-.1s.05-.33.13-.33C345.85,39.7,346.31,39.14,347,39.14Z" transform="translate(-4.42)"/><path class="cls-3" d="M353.08,44.82l.11,0a.28.28,0,0,0,.18.31c-.13.1-.09.25-.11.38-.37.22-.28.68-.5,1s-.1.5-.35.39-.09-.38,0-.59a4.23,4.23,0,0,0,.48-1.4l0,0A.11.11,0,0,0,353.08,44.82Z" transform="translate(-4.42)"/><path class="cls-3" d="M346.85,40.07l.25-.11h.31c.19.38-.13.5-.36.59a4.15,4.15,0,0,0-1,.6c-.18,0-.46.16-.51-.1s.24-.36.42-.45S346.63,40.39,346.85,40.07Z" transform="translate(-4.42)"/><path class="cls-3" d="M347.82,41.78a1.24,1.24,0,0,0,.23-.12c.14-.09.27-.22.42-.06a.28.28,0,0,1-.05.46c-.5.06-.68.52-1,.8-.13.11-.22.27-.42.19a.32.32,0,0,1-.16-.2c-.07-.21.15-.22.25-.32S347.72,42.18,347.82,41.78Z" transform="translate(-4.42)"/><path class="cls-3" d="M357.66,46.18V45.8a.19.19,0,0,1,.19-.22c.11,0,.15.08.19.17a4,4,0,0,1,.18,1.51c0,.13,0,.32-.24.3s-.21-.18-.22-.33C357.73,46.87,357.69,46.5,357.66,46.18Z" transform="translate(-4.42)"/><path class="cls-3" d="M346.35,37.62a8.27,8.27,0,0,0-1.52.45c-.18.09-.38.13-.46-.11s.08-.28.3-.32c.4-.07.78-.21,1.17-.31s.48,0,.51.29Z" transform="translate(-4.42)"/><path class="cls-3" d="M367.84,35.35l.24,0a1.84,1.84,0,0,0,1.16.11.71.71,0,0,1,.43,0,.28.28,0,0,1,.17.32c0,.12-.15.16-.26.16-.52-.05-1-.09-1.54-.15C367.75,35.74,367.81,35.53,367.84,35.35Z" transform="translate(-4.42)"/><path class="cls-2" d="M369.63,22.71a2.86,2.86,0,0,1,.44.15c.11.05.17.14,0,.25l-1,.75c-.1.07-.21.07-.25-.07C368.7,23.47,369.3,22.68,369.63,22.71Z" transform="translate(-4.42)"/><path class="cls-3" d="M347.18,41.07a1.15,1.15,0,0,1,.59-.32.17.17,0,0,0,.17.13c0,.08,0,.17,0,.26a4.57,4.57,0,0,0-1.24.81c-.13.09-.28.25-.43.14s.08-.3.08-.46l.23-.16a.13.13,0,0,0,.14-.12s.05,0,.07,0,.19,0,.21-.13h0A.12.12,0,0,0,347.18,41.07Z" transform="translate(-4.42)"/><path class="cls-3" d="M344.63,39.09c0-.26.24-.35.45-.43l1.14-.4c.11,0,.23-.1.3,0s0,.2-.1.28A5.89,5.89,0,0,1,344.63,39.09Z" transform="translate(-4.42)"/><path class="cls-3" d="M351.37,44.13a.16.16,0,0,0,.07.07,3.37,3.37,0,0,0-.45,1.19c0,.27-.23.37-.42.46s-.33-.06-.27-.21C350.53,45.05,350.69,44.4,351.37,44.13Z" transform="translate(-4.42)"/><path class="cls-3" d="M344.21,36.5a6,6,0,0,0,1.47-.1c.14,0,.33,0,.36.16s-.18.13-.29.15a8,8,0,0,0-1.18.25c-.42.15-.51-.06-.55-.39Z" transform="translate(-4.42)"/><path class="cls-3" d="M368.87,39.23a6.22,6.22,0,0,1-1.52-.65.25.25,0,0,1-.1-.18.14.14,0,0,1,.21-.11,6.73,6.73,0,0,1,1.53.45c.13.08.26.16.21.34S369,39.18,368.87,39.23Z" transform="translate(-4.42)"/><path class="cls-3" d="M358.75,45.36l.2.11a6.58,6.58,0,0,1,.37,1.5c0,.17.06.41-.17.47s-.27-.16-.32-.31A2.23,2.23,0,0,1,358.75,45.36Z" transform="translate(-4.42)"/><path class="cls-3" d="M353.59,45.74a.24.24,0,0,1,0-.08c.16,0,.24-.11.14-.27.07-.12.14-.23.3-.18s.19.25.15.42c-.31.32-.12.77-.29,1.13-.06.11-.06.26-.14.35a.34.34,0,0,1-.3.1c-.11,0-.09-.18-.07-.28C353.46,46.53,353.52,46.14,353.59,45.74Z" transform="translate(-4.42)"/><path class="cls-3" d="M356.61,46c0-.21,0-.43.33-.41a5.82,5.82,0,0,1,.12,1.86c0,.14,0,.27-.21.25s-.17-.09-.17-.23C356.67,46.93,356.63,46.44,356.61,46Z" transform="translate(-4.42)"/><path class="cls-3" d="M349.13,42.84c-.37-.07-.5.25-.71.44s-.24.28-.37.41-.23.24-.36.07,0-.27.12-.37l.84-.8c.11-.09.19-.27.35-.23s0,.3.14.42A0,0,0,0,1,349.13,42.84Z" transform="translate(-4.42)"/><path class="cls-2" d="M366.78,47.15c.31.3.81.36,1,.8.08.22.17.37-.26.33C366.72,48.21,366.82,47.67,366.78,47.15Z" transform="translate(-4.42)"/><path class="cls-3" d="M371.28,31.62c.38.46,0,.9,0,1.34,0,.24-.26.22-.38.16s-.59.05-.67-.28.2-.3.35-.23c.48.22.32-.29.51-.41C370.86,31.89,371.35,31.86,371.28,31.62Z" transform="translate(-4.42)"/><path class="cls-3" d="M354.61,46l.08-.39a.22.22,0,0,0,.17-.22H355c.1.54-.19,1-.11,1.58a.51.51,0,0,1-.21.48c-.3-.06-.24-.28-.2-.48A3.23,3.23,0,0,0,354.61,46Z" transform="translate(-4.42)"/><path class="cls-3" d="M359.58,45.27c.14-.15.27-.11.39,0,0,.48.27.88.3,1.34,0,.18.14.48-.11.52s-.3-.25-.3-.47A7.59,7.59,0,0,0,359.58,45.27Z" transform="translate(-4.42)"/><path class="cls-3" d="M355.84,45.52c.33,0,.26.24.26.44-.05.43-.1.87-.14,1.3,0,.15,0,.33-.24.28a.27.27,0,0,1-.19-.35A8.76,8.76,0,0,1,355.84,45.52Z" transform="translate(-4.42)"/><path class="cls-2" d="M374.86,36.75c-1,.64-1.1.62-1.44-.16C373.92,36.36,374.33,36.91,374.86,36.75Z" transform="translate(-4.42)"/><path class="cls-2" d="M351.71,47.86l.1,0a.62.62,0,0,0,.07.19c.11.1.4,0,.37.27s-.28.28-.48.32-.35.09-.38.31C351.05,48.66,351.18,48.18,351.71,47.86Z" transform="translate(-4.42)"/><path class="cls-2" d="M366.2,21.21c0,.16,0,.52-.23.48a.59.59,0,0,1-.55-.63c0-.21,0-.49.25-.47A.52.52,0,0,1,366.2,21.21Z" transform="translate(-4.42)"/><path class="cls-2" d="M373.12,27.35a.36.36,0,0,1-.3.41,3.21,3.21,0,0,0-1.43.64c-.09.05-.18.08-.24,0a.2.2,0,0,1,0-.2c.15-.19.3-.46.53-.45.53,0,.93-.34,1.42-.38Z" transform="translate(-4.42)"/><path class="cls-3" d="M371.94,50.22c-.19-.29-.2-.53.12-.75a7,7,0,0,0,.66-.56c.11-.1.21-.16.31,0s0,.24-.09.36C372.6,49.59,372.1,49.73,371.94,50.22Z" transform="translate(-4.42)"/><path class="cls-3" d="M369.25,52.34c0,.21,0,.5-.23.51s-.4-.32-.43-.55a.38.38,0,0,1,.37-.41C369.29,51.87,369.28,52.1,369.25,52.34Z" transform="translate(-4.42)"/><path class="cls-3" d="M342.21,28.83c.12.23.54.11.56.48,0,.15-.07.41-.21.36s-.59-.2-.69-.49S342,28.91,342.21,28.83Z" transform="translate(-4.42)"/><path class="cls-3" d="M340.74,31.64h1.07a.26.26,0,0,1,.26.3c0,.23-.19.17-.33.16A2.59,2.59,0,0,1,340.74,31.64Z" transform="translate(-4.42)"/><path class="cls-2" d="M344.34,20.5c0,.1.11.29-.1.34s-.33-.14-.45-.27-.1-.27.15-.28c.07,0,.08-.13,0-.18s-.37-.12-.22-.37c0,0,.05,0,.08,0,0,.32.59.06.51.49A1,1,0,0,0,344.34,20.5Z" transform="translate(-4.42)"/><path class="cls-3" d="M365,48c0,.19,0,.39-.23.37s-.53-.11-.55-.42a.34.34,0,0,1,.37-.33C364.74,47.62,365,47.67,365,48Z" transform="translate(-4.42)"/><path class="cls-3" d="M349.46,21.15c0,.16,0,.38-.24.33a.44.44,0,0,1-.42-.43c0-.14.07-.39.33-.38S349.46,20.91,349.46,21.15Z" transform="translate(-4.42)"/><path class="cls-2" d="M341.85,36.71a.71.71,0,0,1-.22-.81c0-.15.36,0,.56,0s.19,0,.22.11a.22.22,0,0,1-.12.23C342.06,36.3,341.85,36.39,341.85,36.71Z" transform="translate(-4.42)"/><path class="cls-2" d="M367.67,36.3a.43.43,0,0,0,0,.41c0,.41-.55.51-.5,1.1A1.08,1.08,0,0,1,367.67,36.3Z" transform="translate(-4.42)"/><path class="cls-3" d="M356.6,50.07c0-.27,0-.5.28-.51s.32.22.3.44,0,.55-.3.54S356.6,50.24,356.6,50.07Z" transform="translate(-4.42)"/><path class="cls-2" d="M343.61,28.63c-.76.29-1,.23-1.35-.39A3.21,3.21,0,0,1,343.61,28.63Z" transform="translate(-4.42)"/><path class="cls-3" d="M349.19,47.6c.18,0,.26.07.27.22a.46.46,0,0,1-.4.51c-.23,0-.29-.18-.3-.32S349.05,47.73,349.19,47.6Z" transform="translate(-4.42)"/><path class="cls-3" d="M371.31,29.56c-.21,0-.38-.12-.34-.25.09-.3.4-.34.66-.39s.23,0,.21.23C371.79,29.5,371.49,29.47,371.31,29.56Z" transform="translate(-4.42)"/><path class="cls-2" d="M354.51,19c.13-.26-.06-.64.32-.8.15.13,0,.32.1.46s.17.37,0,.5-.24-.17-.41-.1A.13.13,0,0,0,354.51,19Z" transform="translate(-4.42)"/><path class="cls-3" d="M362.08,48.69c.22.06.42.13.43.38s0,.43-.23.45-.33-.3-.4-.51S361.93,48.74,362.08,48.69Z" transform="translate(-4.42)"/><path class="cls-3" d="M354.51,19a.13.13,0,0,1,0,.06l0,.09c-.05.22,0,.58-.3.53s-.25-.41-.2-.62C354.08,18.68,354.33,19,354.51,19Z" transform="translate(-4.42)"/><path class="cls-3" d="M341.43,34.73c-.17.05-.38.1-.38-.19s.24-.24.41-.23.41-.1.42.21S341.6,34.68,341.43,34.73Z" transform="translate(-4.42)"/><path class="cls-2" d="M370.44,47.1c.16.14.47,0,.61.28-.28,0,.15.45-.19.35a1.57,1.57,0,0,1-.67-.48C370.1,47.16,370.31,47.12,370.44,47.1Z" transform="translate(-4.42)"/><path class="cls-3" d="M354.47,49.76c0,.23-.07.42-.33.41s-.22-.17-.2-.33,0-.45.28-.47S354.47,49.57,354.47,49.76Z" transform="translate(-4.42)"/><path class="cls-2" d="M371.25,25.18c.16-.54.53-.48.81-.54s.2.21.29.35.09.12,0,.19a.12.12,0,0,1-.19,0C371.94,24.71,371.64,24.93,371.25,25.18Z" transform="translate(-4.42)"/><path class="cls-3" d="M366.66,22.46c.12-.13.2-.29.41-.28,0,.24.2.48-.14.69s-.41.15-.54-.13l.16-.17A.1.1,0,0,0,366.66,22.46Z" transform="translate(-4.42)"/><path class="cls-2" d="M342,33.8c-.23,0-.32-.13-.4-.28a.21.21,0,0,1,0-.19c.16-.14.26,0,.38.09l.1,0c.17.07.5-.27.5.1S342.16,33.64,342,33.8Z" transform="translate(-4.42)"/><path class="cls-3" d="M370.14,27.11c-.21,0-.28-.11-.26-.24.06-.37.42-.3.65-.4s.25,0,.23.15C370.72,27,370.29,26.9,370.14,27.11Z" transform="translate(-4.42)"/><path class="cls-3" d="M351.39,49c0-.22.2-.27.38-.31.1.12.06.23,0,.36s0,.5-.21.49S351.45,49.17,351.39,49Z" transform="translate(-4.42)"/><path class="cls-3" d="M351.94,20.06c0,.2-.11.36-.22.32a.77.77,0,0,1-.44-.65c0-.15.11-.2.22-.18C351.81,19.6,351.85,19.88,351.94,20.06Z" transform="translate(-4.42)"/><path class="cls-2" d="M366.55,37.71c.25.61,0,1-.38,1.44A2.18,2.18,0,0,1,366.55,37.71Z" transform="translate(-4.42)"/><path class="cls-3" d="M346.85,46.86c-.21,0-.28-.08-.25-.2s.14-.49.43-.54c.1,0,.33-.06.27.14A1.31,1.31,0,0,1,346.85,46.86Z" transform="translate(-4.42)"/><path class="cls-2" d="M349.84,18.94c0-.19.06-.28.2-.23s.4.36.54.59c0,.06-.05.24-.13.18S349.92,19.21,349.84,18.94Z" transform="translate(-4.42)"/><path class="cls-2" d="M354.72,47.44a.51.51,0,0,0,.21-.48c.14,0,.38-.32.32.14a1,1,0,0,1-.8.9C354.49,47.77,354.79,47.67,354.72,47.44Z" transform="translate(-4.42)"/><path class="cls-3" d="M364.32,21.53c0-.23-.1-.47.08-.67s.32-.3.51,0C364.72,21.07,364.87,21.59,364.32,21.53Z" transform="translate(-4.42)"/><path class="cls-2" d="M343.32,34.92v-.17l.83-.4C344.22,34.83,343.91,35,343.32,34.92Z" transform="translate(-4.42)"/><path class="cls-3" d="M369.09,24.52c0,.26-.27.32-.48.37s-.31,0-.24-.19.22-.43.49-.45S369.07,24.38,369.09,24.52Z" transform="translate(-4.42)"/><path class="cls-3" d="M341.63,37.5c-.23,0-.39-.07-.37-.29a.22.22,0,0,1,.31-.21c.15.08.47,0,.41.32S341.73,37.47,341.63,37.5Z" transform="translate(-4.42)"/><path class="cls-3" d="M345.44,44.39a.63.63,0,0,1-.53.44.16.16,0,0,1-.2-.19.59.59,0,0,1,.52-.43A.17.17,0,0,1,345.44,44.39Z" transform="translate(-4.42)"/><path class="cls-3" d="M343.47,42.63c-.21,0-.33-.06-.33-.2,0-.34.34-.26.5-.43s.23,0,.23.15C343.87,42.43,343.61,42.51,343.47,42.63Z" transform="translate(-4.42)"/><path class="cls-3" d="M347.25,22.63c0,.2,0,.35-.18.32s-.32-.24-.37-.44a.2.2,0,0,1,.21-.26A.42.42,0,0,1,347.25,22.63Z" transform="translate(-4.42)"/><path class="cls-3" d="M362.39,19.57c0,.33,0,.7-.43.77h0c.07-.3,0-.7.43-.77Z" transform="translate(-4.42)"/><path class="cls-3" d="M372,37c.24,0,.46.09.5.32s-.13.19-.22.14-.56.06-.62-.25S371.92,37.07,372,37Z" transform="translate(-4.42)"/><path class="cls-2" d="M356.77,17.32a1,1,0,0,1,.08,1.13C356.58,18.05,356.79,17.67,356.77,17.32Z" transform="translate(-4.42)"/><path class="cls-2" d="M344.21,36.5l-.19.07c0-.21-.06-.44.1-.68.14.15.36.15.53.21C344.62,36.43,344.27,36.28,344.21,36.5Z" transform="translate(-4.42)"/><path class="cls-2" d="M353.23,19.82c.07.35.3.67.11,1.08l-.26-1Z" transform="translate(-4.42)"/><path class="cls-3" d="M345.16,24.82a.36.36,0,0,1-.38-.38c0-.13.05-.22.2-.16s.37.17.4.4S345.25,24.81,345.16,24.82Z" transform="translate(-4.42)"/><path class="cls-2" d="M345.2,34.62c-.06.36-.2.48-.47.42,0,0-.11-.07-.11-.09C344.71,34.68,345,34.76,345.2,34.62Z" transform="translate(-4.42)"/><path class="cls-2" d="M368.17,48.35l-.2-.63C368.55,47.78,368.32,48.1,368.17,48.35Z" transform="translate(-4.42)"/><path class="cls-2" d="M368.44,31.68c-.05.13-.16.14-.28.13a.11.11,0,0,1-.11-.15.18.18,0,0,1,.21-.14A.16.16,0,0,1,368.44,31.68Z" transform="translate(-4.42)"/><path class="cls-2" d="M349.92,42.91l-.17-.15c.19,0,.13-.32.27-.22S350,42.8,349.92,42.91Z" transform="translate(-4.42)"/><path class="cls-2" d="M349.13,42.84a0,0,0,0,0,0-.06c.16,0,.13.23.29.2l-.15.27A.4.4,0,0,1,349.13,42.84Z" transform="translate(-4.42)"/><path class="cls-2" d="M349.07,43.46c-.08,0-.12.17-.25.14s-.08-.29.08-.34S349,43.39,349.07,43.46Z" transform="translate(-4.42)"/><path class="cls-3" d="M336.73,42s.08,0,.09,0a.2.2,0,0,1,0,.08s-.07,0-.08,0S336.72,42.05,336.73,42Z" transform="translate(-4.42)"/><polygon class="cls-2" points="364.51 30.28 364.51 30.24 364.53 30.25 364.51 30.28"/><path class="cls-2" d="M366.92,38.12l0,.08,0,0s0,0,0-.08Z" transform="translate(-4.42)"/><path class="cls-2" d="M368.49,24.06l0,0,.07,0s0,0,0,.05S368.51,24.05,368.49,24.06Z" transform="translate(-4.42)"/><path class="cls-3" d="M360.85,46.54l-.1.09,0-.06.14,0Z" transform="translate(-4.42)"/><polygon class="cls-3" points="339.82 38.63 339.83 38.61 339.81 38.62 339.82 38.63"/><path class="cls-2" d="M373.12,27.36l.05-.05s0,0,0,0h0Z" transform="translate(-4.42)"/><path class="cls-3" d="M371.56,44.76h.05l0,0v-.05Z" transform="translate(-4.42)"/><path class="cls-1" d="M371.9,19c-.07,0-.12-.06-.1-.14s0,0,0,0l.05.17Z" transform="translate(-4.42)"/><path class="cls-1" d="M343.33,33.74a2.76,2.76,0,0,1,0-1.4,7,7,0,0,1,.71-2.35.76.76,0,0,0,.85.23c.13,0,.33-.16.38,0s-.17.23-.33.25l-.22,0c.15.42.15.42-.52.52l.79.34h0c-.07.5-.52.05-.72.31.17.32.53.41.8.6.54.4.54.63,0,.94A9.13,9.13,0,0,1,343.33,33.74Z" transform="translate(-4.42)"/><path class="cls-1" d="M344.62,28.65a4.55,4.55,0,0,1,1.14-2s0,.08.06.09c.69.22.42.71.15,1s-.15.49,0,.71c0,.06.07.12.14.25Z" transform="translate(-4.42)"/><path class="cls-1" d="M346.21,26a5.28,5.28,0,0,1,1.39-1.55c.07.2-.23.45.11.63.09,0,.26.29.08.41a.37.37,0,0,1-.54-.06c0-.06-.05-.14-.11-.15-.34.11.44.67-.28.6C346.76,26.58,346.4,25.81,346.21,26Z" transform="translate(-4.42)"/><path class="cls-3" d="M359.52,19.76c-.16-.07-.33-.2-.29-.35s0-.55.4-.55c.13,0,.24.09.2.19S359.83,19.61,359.52,19.76Z" transform="translate(-4.42)"/><path class="cls-1" d="M348.44,23.71a2,2,0,0,1,.82-.63,1.11,1.11,0,0,0,.2.55A1.56,1.56,0,0,1,348.44,23.71Z" transform="translate(-4.42)"/><path class="cls-1" d="M361.43,44.55c-.05.27.21.66-.12.78s-.4-.43-.69-.56c.06-.09.13-.28.21-.19C361.07,44.88,361.23,44.6,361.43,44.55Z" transform="translate(-4.42)"/><path class="cls-1" d="M344.21,29.46a.78.78,0,0,1,.25-.47c.24.12.49.24.72.37.06,0,.16.1.11.21s-.14.06-.23,0C344.78,29.55,344.5,29.51,344.21,29.46Z" transform="translate(-4.42)"/><path class="cls-1" d="M347.69,24.39a.27.27,0,0,1,.3-.22c.07.14.13.29-.05.38S347.75,24.47,347.69,24.39Z" transform="translate(-4.42)"/><path class="cls-1" d="M352.22,44.47a.26.26,0,0,1-.29.07c-.06-.12,0-.21.09-.24S352.2,44.36,352.22,44.47Z" transform="translate(-4.42)"/><path class="cls-1" d="M348.2,23.93a.17.17,0,0,1,.19-.19C348.44,23.91,348.4,24,348.2,23.93Z" transform="translate(-4.42)"/><path class="cls-1" d="M354.86,45.37a.22.22,0,0,1-.17.22c0-.06-.07-.13-.05-.17S354.78,45.35,354.86,45.37Z" transform="translate(-4.42)"/><path class="cls-1" d="M347.41,40h-.31C347.2,39.73,347.31,39.72,347.41,40Z" transform="translate(-4.42)"/><path class="cls-1" d="M353.75,45.39c.1.16,0,.24-.14.27A.21.21,0,0,1,353.75,45.39Z" transform="translate(-4.42)"/><path class="cls-1" d="M353.37,45.15a.28.28,0,0,1-.18-.31C353.52,44.79,353.35,45,353.37,45.15Z" transform="translate(-4.42)"/><path class="cls-1" d="M347,41.19c0,.12-.08.17-.21.13S346.88,41.13,347,41.19Z" transform="translate(-4.42)"/><path class="cls-1" d="M345,31.38l0-.09c.08.08,0,.06-.05.08Z" transform="translate(-4.42)"/><path class="cls-1" d="M346.74,41.35a.13.13,0,0,1-.14.12C346.59,41.35,346.62,41.31,346.74,41.35Z" transform="translate(-4.42)"/><path class="cls-1" d="M347.18,41.07a.12.12,0,0,1-.16.12C347,41.06,347.07,41,347.18,41.07Z" transform="translate(-4.42)"/><path class="cls-1" d="M347.94,40.88a.17.17,0,0,1-.17-.13C347.9,40.69,348,40.75,347.94,40.88Z" transform="translate(-4.42)"/><path class="cls-1" d="M351.26,22.67l.05,0-.05,0Z" transform="translate(-4.42)"/><path class="cls-1" d="M366.66,22.46a.1.1,0,0,1-.11.11C366.54,22.48,366.58,22.45,366.66,22.46Z" transform="translate(-4.42)"/><path class="cls-1" d="M353.08,44.82a.11.11,0,0,1-.17.06C352.94,44.77,353,44.74,353.08,44.82Z" transform="translate(-4.42)"/><path class="cls-1" d="M370.16,41.77c-.06,0-.17.07-.23.15-.28.32-.51.24-.7-.09a1,1,0,0,0-.71-.64c-.27-.06-.25-.37-.39-.55s.08-.2.16-.17c.24.08.57,0,.71.25C369.26,41.21,369.9,41.24,370.16,41.77Z" transform="translate(-4.42)"/><path class="cls-1" d="M371,41.7c-.1.22-.08.34.12.39s.29.2.15.36a.29.29,0,0,1-.44,0,1,1,0,0,1-.29-.7c0-.19,0-.34.27-.33S371,41.59,371,41.7Z" transform="translate(-4.42)"/><path class="cls-1" d="M368.66,43.65l0,0,0,0Z" transform="translate(-4.42)"/><path class="cls-1" d="M367.76,41.86l.05,0h0l0,0Z" transform="translate(-4.42)"/><path class="cls-1" d="M378.15,34.51a27,27,0,0,1-.43,4.33c-.06.3-.11.52-.48.42s-.49-.3-.38-.62a10.65,10.65,0,0,0,.41-2.91,20.54,20.54,0,0,0-.55-6.14,32.51,32.51,0,0,0-1.32-3.86c-.12-.29-.19-.5.2-.65s.39.18.49.38a17.42,17.42,0,0,1,1.42,4A21.92,21.92,0,0,1,378.15,34.51Z" transform="translate(-4.42)"/><path class="cls-1" d="M346.92,52.35c0-.12,0-.23.18-.2s.1.08.09.1-.18.08-.28.09Z" transform="translate(-4.42)"/><path class="cls-1" d="M370.86,37.51c-.05.17-.08.37-.29.4a.17.17,0,0,1-.2-.2c.05-.18.08-.42.29-.48S370.82,37.39,370.86,37.51Z" transform="translate(-4.42)"/><path class="cls-1" d="M371.67,38.74c0-.09,0-.19.14-.19s0,0,0,0-.09.13-.18.14Z" transform="translate(-4.42)"/><path class="cls-1" d="M367.83,32.55c.1,0,.13,0,.13.08a.31.31,0,0,1-.06.19c-.1.06-.12,0-.12-.09A.78.78,0,0,1,367.83,32.55Z" transform="translate(-4.42)"/><path class="cls-1" d="M347.36,49.23l0,0s0,0,0,0l0,0Z" transform="translate(-4.42)"/><text class="cls-4" transform="translate(181.9 59.39) scale(1.04 1)"> <tspan class="cls-5" x="14.58" y="0">VISION</tspan></text><path d="M4.42,58.53V9.93H16.49a13.37,13.37,0,0,1,7.13,1.62,9,9,0,0,1,3.7,4.5,18.6,18.6,0,0,1,1.12,6.78,17,17,0,0,1-1.15,6.33,9.76,9.76,0,0,1-3.79,4.65,12.46,12.46,0,0,1-6.94,1.74H9.15v23Zm4.73-26.4h6a11.92,11.92,0,0,0,4.94-.87,5.38,5.38,0,0,0,2.77-2.91,14.34,14.34,0,0,0,.88-5.52A17.65,17.65,0,0,0,23,17a4.75,4.75,0,0,0-2.58-2.88,13.3,13.3,0,0,0-5.2-.81H9.15Z" transform="translate(-4.42)"/><path d="M34.48,58.53V9.93H45.87a15.74,15.74,0,0,1,7.44,1.47,8.53,8.53,0,0,1,3.89,4.26,17.08,17.08,0,0,1,1.18,6.63,20.48,20.48,0,0,1-.62,5.1,9.71,9.71,0,0,1-2.12,4.08,7.36,7.36,0,0,1-4.23,2.22l7.72,24.84H54.52L47.11,34.65h-7.9V58.53Zm4.73-27.24h6.41a9.8,9.8,0,0,0,4.92-1,5.7,5.7,0,0,0,2.49-3,14.45,14.45,0,0,0,.74-5q0-4.5-1.61-6.72t-6.41-2.22H39.21Z" transform="translate(-4.42)"/><path d="M78.23,59.13a13.94,13.94,0,0,1-7.81-1.89,10,10,0,0,1-4-5.28,24.06,24.06,0,0,1-1.15-7.77V24a22.13,22.13,0,0,1,1.21-7.71,9.92,9.92,0,0,1,4-5.07,14.19,14.19,0,0,1,7.68-1.8A14.36,14.36,0,0,1,86,11.25a9.76,9.76,0,0,1,4,5.07A22.89,22.89,0,0,1,91.18,24V44.25A24.06,24.06,0,0,1,90,52a10.13,10.13,0,0,1-4,5.25Q83.28,59.13,78.23,59.13Zm0-3.66a8.54,8.54,0,0,0,5.11-1.29,6.5,6.5,0,0,0,2.39-3.6,19.63,19.63,0,0,0,.66-5.37v-22a19.3,19.3,0,0,0-.66-5.34,6.21,6.21,0,0,0-2.39-3.51,8.86,8.86,0,0,0-5.11-1.23,8.83,8.83,0,0,0-5.07,1.23,6.22,6.22,0,0,0-2.43,3.51,19.71,19.71,0,0,0-.65,5.34v22a20,20,0,0,0,.65,5.37,6.51,6.51,0,0,0,2.43,3.6A8.51,8.51,0,0,0,78.23,55.47Z" transform="translate(-4.42)"/><path d="M95.1,60.63V57.21a20.51,20.51,0,0,0,4.14-.33,4.09,4.09,0,0,0,2.3-1.23,5,5,0,0,0,1-2.58,31.39,31.39,0,0,0,.25-4.32V9.93h4.73V49a24.17,24.17,0,0,1-.75,6.6,6.14,6.14,0,0,1-2.92,3.81,13.51,13.51,0,0,1-6.48,1.23Z" transform="translate(-4.42)"/><path d="M116.26,58.53V9.93H134.5v3.54H121.05V31.71h11v3.36h-11v20h13.57v3.42Z" transform="translate(-4.42)"/><path d="M152.8,59.13c-3.41,0-6-.68-7.88-2a10.47,10.47,0,0,1-3.83-5.49A26.2,26.2,0,0,1,140,44V24.63a26,26,0,0,1,1.09-7.92A9.87,9.87,0,0,1,145,11.37c1.86-1.28,4.46-1.92,7.78-1.92a13,13,0,0,1,7.12,1.68,9.25,9.25,0,0,1,3.7,4.77,21.51,21.51,0,0,1,1.13,7.35v2.94h-4.49V23.37a24.67,24.67,0,0,0-.52-5.46,6.08,6.08,0,0,0-2.15-3.54,7.71,7.71,0,0,0-4.79-1.26,8.08,8.08,0,0,0-5.08,1.35,6.63,6.63,0,0,0-2.3,3.81,24.78,24.78,0,0,0-.59,5.7v20.7a21.62,21.62,0,0,0,.71,6,6.43,6.43,0,0,0,2.46,3.6,8.35,8.35,0,0,0,4.8,1.2,7.45,7.45,0,0,0,4.79-1.32,6.41,6.41,0,0,0,2.15-3.69,25.92,25.92,0,0,0,.52-5.55V41.73h4.49v2.88a25.6,25.6,0,0,1-1,7.56,9.58,9.58,0,0,1-3.61,5.13Q157.53,59.13,152.8,59.13Z" transform="translate(-4.42)"/><path d="M178.38,58.53V13.47h-9.53V9.93h23.47v3.54h-9.21V58.53Z" transform="translate(-4.42)"/></g></g></svg>