<svg xmlns="http://www.w3.org/2000/svg" viewBox="0 0 92.2 92.31"><defs><style>.cls-1{fill:#6099d3;}.cls-2{fill:#14141d;}.cls-3{fill:#fefefe;}</style></defs><g id="Layer_2" data-name="Layer 2"><g id="Layer_1-2" data-name="Layer 1"><path class="cls-1" d="M92.17,46.93a33.1,33.1,0,0,1-1.1,9.4A45.52,45.52,0,0,1,87.14,67c-.32.61-.59.79-1.18.43s-.76.08-.68.56.28,1,.37,1.51a.44.44,0,0,1-.33.52c-.23,0-.23-.22-.32-.37-.26-.43-.13-.94-.31-1.51a.9.9,0,0,0-.24,1.08c.86,1.56-.18,2.64-1,3.72a36.79,36.79,0,0,1-5.07,5.87,49.26,49.26,0,0,1-7,5.76,52.27,52.27,0,0,1-7.84,4.12c-.74.31-1,.1-1.13-.59-.29-1.36.05-2,1.41-2.6A.93.93,0,0,0,64.34,84a42.37,42.37,0,0,1-3-6.65c-.27-.77-.83-.6-1.38-.41-1.55.56-3.08,1.21-4.66,1.67a18.25,18.25,0,0,1-7.26,1c-1.21-.14-1.72.37-1.72,1.58,0,2.2.06,4.39,0,6.58,0,1.18.72,1.42,1.44,1.25,1.82-.43,3.63-.13,5.45-.22.33,0,.36.21.45.37.4.68,0,1.46.29,2.18.11.28-.41.36-.69.39a45.76,45.76,0,0,1-8.35.51,1.59,1.59,0,0,0-.22-2,4.09,4.09,0,0,0,0,1.94c-1.36,0-2.74.18-4-.49-.25-.13-.68.17-1,0a13.69,13.69,0,0,1,0-2.64c-.34.82-1,1.54-.56,2.53a8.56,8.56,0,0,1-3.51-.5A47.8,47.8,0,0,1,15.11,80.45,37.88,37.88,0,0,1,11,75.94c-.36-.42-.24-.89-.28-1.36s0-1.35-1-.92c-.49.21-.66-.18-.87-.48A40.61,40.61,0,0,1,3.29,63C2.58,61,2,59,1.4,57A43.13,43.13,0,0,1,.15,42.3a47.07,47.07,0,0,1,4-15.53,42.59,42.59,0,0,1,3.28-5.86c.27-.41.39-.5.79-.08,1,1,1.25.93,1.88-.34a3.09,3.09,0,0,0,.37-.69c.17-.89.68-.6,1-.2a3,3,0,0,0,1.57,1.14c.4.14.58.44.4,1-.41,1.18-.34,1.23.92,1,.23-.42-.82-.35-.33-.82s.91.24,1.39.32.52.5.32.89a6.76,6.76,0,0,1-.49.74,1,1,0,0,0,.1,1.31c.38-.56,1.18,1.07,1.41-.27,0-.22.24-.27.44-.27a.39.39,0,0,1,.42.41c0,.8.31.67.78.27.84-.72.8-1.35-.21-1.78-.41-.18-.41-.64-.78-.88a9,9,0,0,0-1.47-1c-.46-.18-1-.45-.86-1.2s.33-1.44.85-1.43,1.63.33,1.81,1c.26,1,1,.8,1.6,1,.22.09.61-.11.67.24.17,1,.68.74,1.22.38.27-.18.81-.07.79-.47a1.61,1.61,0,0,0-.59-.92c-.35-.31-.58.11-.84.28a1.85,1.85,0,0,1-.29.13c-.06-.08-.15-.17-.14-.19a1.58,1.58,0,0,0,0-1.92,1.61,1.61,0,0,0-1.9.19c-.18.16-.48.33-.7.09s.09-.38.17-.57c.28-.71-.05-1.55.56-2.23a7.14,7.14,0,0,1,2.1-1.87,11.76,11.76,0,0,0,2.37-2c.4-.37.14-.73-.1-1.09-.55-.81-1.46-1.39-1.64-2.44a1,1,0,0,1,.13-.16,3.56,3.56,0,0,1,1.68,1.72c.48.83,1.44,1.43.31,2.79a2.17,2.17,0,0,1,2.35.48c.31.23.48.33.67-.06s.15-.57-.31-.61a.88.88,0,0,1-.86-.59,8.3,8.3,0,0,0-3.46-4.4c-.69-.47-.62,0-.57.47l-.17.14c-1.66.12-2.63,1.33-3.62,2.4s-2.05,1.48-2.71,2.59a.3.3,0,0,1-.48.08c-.28-.25-.08-.46.11-.65a30.58,30.58,0,0,1,2.38-2c.84-.7,1.61-1.49,2.49-2.16A30.54,30.54,0,0,1,23.39,6a3,3,0,0,1,.75-.15h0a38.76,38.76,0,0,0,1.75,3.61,7.56,7.56,0,0,1,1.45,2.92c0,.22,0,.5.27.55.61.11.52.79.9,1.06s-.21,1.13.55,1.07c.38,0,.69-.59,1.1-.7,1.11-.3,1.09-1.66,2.1-2.07.69-.29,1.41-.39,2.1-.63,1.93-.67,2.06-1,1.24-2.92a2.17,2.17,0,0,1-.16-1.93c.42,1,.79,1.85,1.1,2.71.18.49.35.72,1,.53a31.08,31.08,0,0,1,7.44-1.67c.63,0,1-.45,1-1.3-.07-1.82-.43-3.6-.66-5.39C45.09.06,45.07,0,46.64,0a56.76,56.76,0,0,1,7.49.64,3.9,3.9,0,0,1,.73.24C54.75,2,54.75,2,55.68,2c0-.5-.55-.67-.7-1.09a2.15,2.15,0,0,1,1.44.33c.11.61.22,1.22.35,2a2.07,2.07,0,0,0,.43-1.82A24.85,24.85,0,0,1,62.44,3a51.33,51.33,0,0,1,7.14,3.41,45.54,45.54,0,0,1,7.25,5.48c-.49.47-.53,1.22-1,1.68-.18.16-.45.4-.2.65s.34-.12.52-.21.33.07.46.27c.27.42.35.1.43-.15h0c.61,0,.91-.63,1.47-.76a21,21,0,0,1,4.06,4.41A45.31,45.31,0,0,1,89.33,30a15.9,15.9,0,0,1,.43,1.68c-.79-.2-.8.45-1,.91a.92.92,0,0,1-.48-.73c-.31-2.33-1.6-4.26-2.55-6.33-.18-.39-.34-.62-.8-.61-1.42,0-2.69,1.82-2,3.05a35.48,35.48,0,0,1,3.21,9.39,41.5,41.5,0,0,1,.64,11.77c-.14,1.79-.48,3.53-.79,5.29-.09.56,0,.86.67,1,2.08.47,2.51,1.47,3-1.77a51,51,0,0,0,0-16.77c-.24-1.42-.94-2.74-.9-4.21.46,0,.86-.15.92-.71.66.26.56.93.7,1.42a38.77,38.77,0,0,1,1.71,11.77c-.77,0-.6.74-.7,1.15S91.77,46.89,92.17,46.93ZM42.11,14.24c.33-.14.57.39.81.21s.17-.66,0-1,.1-.67-.19-.94c-.78.33-.39,1.1-.65,1.62-.37,0-.86-.65-1.06.12-.11.43-.12,1.16.4,1.24s.5-.63.6-1.05A.72.72,0,0,1,42.11,14.24ZM79.45,30.91c-1,.09-1.8.8-2.86.77-.46,0-.77.52-1.06.89a.44.44,0,0,0,0,.4c.11.18.29.14.48,0,.92-.5,1.7-1.28,2.87-1.29a.74.74,0,0,0,.6-.82s.07,0,.09,0,0,0,0-.06ZM35.81,74.33c.12.37-.22,1,.38,1.07.44,0,.32-.63.44-1a.66.66,0,0,0-.05-.7c.4-.09.9,0,1-.66s-.52-.33-.74-.54a.91.91,0,0,1-.14-.38c1.73.42,3.33,1.28,5.13,1.5a12.34,12.34,0,0,0,2.46.46c1.48-.17,3,.47,4.43-.15a1.84,1.84,0,0,1,.87-.12c.46.05,1.18-.13.84.81-.1.27-.12.65.39.52.26-.07.56-.2.61.19s-.33.31-.54.42-.69.3-.51.76a5.47,5.47,0,0,0,2.35.07,1.1,1.1,0,0,0-.13-1.35c-.27-.31-.32-1.08-1-.76-.31.14-.36.11-.46-.13s0-.54.31-.57a29.47,29.47,0,0,0,3.45-1A28.2,28.2,0,0,0,61.25,70a27.83,27.83,0,0,0,3.37-2.25c.84-.57,1.23-.35,1.41.66,0,.14,0,.31,0,.44A1.45,1.45,0,0,0,67,70c.55.14.71-.33.85-.78s.72-.46,1.05-.54,0,.49.23.68c1.51-.68,1.53-.69.63-2.07-.25-.39,0-.85-.32-1.31l-.51,1.72a1.12,1.12,0,0,1-.08-1.21c.1-.21.17-.51-.08-.6-1.39-.51,0-1.36-.25-2,.37-.1.54-.82,1.11-.34.25.22.57.08.86.07h0c-.07.34,0,.69-.31,1A.8.8,0,0,0,70.75,66c.93-.13,1.83.17,2.74,0,.28-.06.67-.13.71-.43.12-1,.69-.43,1.13-.38s.51.65,1,.63l0,.1.07-.06-.1,0c0-.45-.29-1,.58-.88.69.11.88-.94,1.64-.78a.74.74,0,0,0,.2-.47,11,11,0,0,1,0-2.57c0-.15.16-.53-.21-.44s-.49.32-.61-.07a.8.8,0,0,1,.29-.88c1-1.06,1-1.67,0-2.68-.3-.29-.3-.73-.7-1.1a2.72,2.72,0,0,1-1.14,1.66c-.41.34-.84.58-1.3.27s0-.68.06-1c.1-.64.55-.46,1-.32.23.08.44.12.56-.14a.54.54,0,0,0-.16-.71,1.48,1.48,0,0,0-1.35-.25c-.56.18-1.34,1.16-1.67-.27,0-.05-.17-.1-.18-.09-.55.71-1.39-.36-2,.35a.75.75,0,0,1-.94-.07,1.47,1.47,0,0,0-1.35-.29,4.38,4.38,0,0,1-1.53-.24c-.24-.06-.46-.56-.7-.11s.19.64.48.74a4.61,4.61,0,0,1,1.4.88.56.56,0,0,1,.14.8c-.2.27-.46.1-.7,0A5.12,5.12,0,0,0,67,56.67c-.37-.08-.87-.55-1.08-.21s.43.53.64.83.48.41.61.63c.43.75,2,.71,1.5,2.11h0c-.92-1.31-2.53-1.19-3.75-2-.13.62.21.73.47.94a6.74,6.74,0,0,1,2.51,3.42.91.91,0,0,1-.48,1.12c-.4.23-.69,0-.94-.32s0-.7.33-.85c.83-.4,0-.8-.09-.85a11.31,11.31,0,0,1-2.26-1.61c-.2-.13-.39-.46-.65-.19s0,.49.16.67c.34.33.71.72.35,1.14s-.82,0-1.19-.2-.56-.52-.87-.2.26.41.31.68c.08.45.61,1,.21,1.34s-.55-.4-.9-.5a1.86,1.86,0,0,1-.2-.1c-.23-.1-.46-.36-.71-.16s-.09.47,0,.72c.33,1,1.26,1.51,1.79,2.34a.73.73,0,0,0,.83.4c.47-.1.42-.49.35-.8s0-.68.44-.68.81-.17,1,.25-.22.56-.51.69a.71.71,0,0,0-.47.79c0,.26,0,.54-.21.72-1,.71-1.93,1.48-3,2.11a30.61,30.61,0,0,1-3.8,1.9,25.89,25.89,0,0,1-6.53,2c-1.89.3-3.79,0-5.65.21-2.71.24-5.2-.56-7.68-1.28a17.91,17.91,0,0,1-5.11-2.61c-2.19-1.51-4.39-2.93-6-5.33-1.43-2.15-3.18-4.11-4.48-6.4a4.3,4.3,0,0,1-.52-3c.05-.33-.19-.56-.08-.84l0,0,0,0c-1,.05-1.07-.74-1.17-1.42s-.15-1.21-.27-1.82c-.28-1.38-1-2.75-.41-4.21,1.19.23,1.82-.18,1.66-1.13l-1.66.78a.72.72,0,0,1,0-1c.66-.54,1.57-.28,2.28-.77s1.5-.37,1.86.62a1.38,1.38,0,0,0,.29.58c.65.51.44,1,0,1.5-.59.67-.35.78.39.92.49.1,1.21.24,1,1.14-.11.42.23.52.61.59.67.1,1.21.66,1.05,1.21a1.2,1.2,0,0,1-1.39,1c-.07-.67-.49-.73-1-.59-.78.22-1.55.48-2.34.62-.44.08-.76.18-.61.66s.56.39.93.22a14.67,14.67,0,0,1,3.05-.91c.1.14.09.45.3.41,1-.15.71,1.34,1.64,1.18a1,1,0,0,1-.17.95c-.18.18-.38.34-.57.51-1.28,0-2.21,1.12-3.51,1.13-.17,0-.33.39-.26.66s.36.27.63.2c.91-.27,1.65-1,2.64-1-.16.39-.26.76.31.9-.46.63-1.19.77-1.83,1.09-.37.18-.92.51-.85.9s.66.2,1,.2c.06.44.45.63.69.94,0,.32-.66.59-.17.93.3.22.61-.1.87-.29a9.7,9.7,0,0,1,2.49-1.62c.23.34-.09.45-.27.59s-.31.46,0,.7c-.21.79-1,1-1.49,1.51-.19.19-.63.21-.5.62a.7.7,0,0,0,.34.41c.39.17.57-.15.82-.38.65-.56,1-1.49,2-1.6.08.53.46.37.77.3s.7-.25.85,0c.62.85,1.11.29,1.63-.08.26-.19.78-.11.74-.06-.38.57,1.06,1,.1,1.59-.27.18.16.44.46.51s.62-.44,1.06-.27c0,.75.48,1.42.32,2.2-1.37.54-1.7,1.85-2.16,3-.12.31.19.58.55.42s.79-.37.83-.92a7.11,7.11,0,0,1,.92-2.39c.49,0,.34.9,1,.67.11,1.21-1.25,1.74-1.31,2.92,0,.42-.44.83.19,1s.7-.29.89-.71c.42-1,.46-2.07,1.25-2.86l.88.35a8.37,8.37,0,0,1-1,2.81c-.17.41-.43,1,0,1.18s.47-.49.7-.78c.45-.6.27-1.51,1-2,.16.24.31.5.66.43-.12.8-.25,1.59-.37,2.39,0,.21-.08.51.15.57a.7.7,0,0,0,.59-.2c.16-.18.17-.48.28-.71.35-.72,0-1.62.59-2.27.27.23.37.67.82.7a6.31,6.31,0,0,1-.18,2c-.08.39-.2.83.41,1,.13.48-.46.67-.55,1.13a2,2,0,0,0,1.61-1.8c.12-.92-.36-.35-.65-.28-.17-1.07.43-2.09.23-3.17.58-.21,1.07.13,1.6.28a17.32,17.32,0,0,0-.63,3.36.54.54,0,0,0,.4.69c.43.1.44-.26.47-.56.09-.87.18-1.75.28-2.62a1.34,1.34,0,0,0,1,0c.05,1,.12,2,.14,3,0,.28.11.44.34.47s.43-.23.43-.5A11.41,11.41,0,0,0,47,67.42c.37-.2.41-.21.46,0,.12.59.21,1.2.32,1.8a15,15,0,0,0,.37-1.94c0-.31.35-.87.52-.65.6.78,1.35.15,2,.37a4.5,4.5,0,0,0,.16,3.56c.09.29.2.74.64.62s.42-.61.34-.94a13.5,13.5,0,0,0-.73-3c.55.27.87-.18,1.26-.4a15,15,0,0,1,.57,2.84c0,.44,0,1.06.59,1s.23-.69.21-1.06c-.05-.92-.67-1.73-.59-2.69.28-.05.62,0,.61-.44s.2-.46.5-.48a5.77,5.77,0,0,0,.68,3.43l-.28,0,.06.12.2-.18c.08.07.19.13.24.23.18.37.51.65.87.55s.14-.65.3-1c.23-.49-.43-.52-.51-.87s-.35-.6.12-.84.71-.16.91.27.21.63.36.92.34.66.77.37a.51.51,0,0,0,.07-.85,7.59,7.59,0,0,1-.89-1.66c-.25-.46-.35-1.12-1.08-1.14-.09-.25.11-.42.2-.61s-.1-.75.36-.67.1.49.12.75.07.2.35.2a5.31,5.31,0,0,0,.26-4.21,13.68,13.68,0,0,1-.58-3.35,8.47,8.47,0,0,0-.91-4.23c-1.12-1.89,0-3.48.08-5.41.47.65.06,1.3.54,1.79.45-.51,0-1.22.49-1.7.32.55,0,1.2.43,1.74.24-.49-.24-.86.1-1.17.6.11.45.7.67,1.07a1.65,1.65,0,0,0,1-2.51c.54,0,.86,1,1.36.16a1.42,1.42,0,0,1,2-.68c.13.06.28.12.4,0,.14-.52-.58-.66-.52-1.23,1.08.14,1.51-1.33,2.72-1,.3.07.32-.36.31-.61,0-.61.14-1.24-.34-1.81a2.71,2.71,0,0,0-1.63-.79.81.81,0,0,1,.91-.44c1.22.43,1.27-.22,1.3-1.15,0-.3-.3-1.61.92-.78.25.16.45-.22.68-.29.51-.15,1.08-.35,1.06.56,0,.18.08.36.33.32.34-.28.12-1,.24-1,1.38.56.61-.34.59-.8s.36-.49.72-.49.4-.42.19-.49c-1.46-.5-.28-.94,0-1.41s.72-.44.64-1c-.75.05-1.46.05-2.21.15a2.9,2.9,0,0,0-2.46,1.53c-.39.84-1,.53-1.5.43s-.68-.68-.44-1.27a12.08,12.08,0,0,1,3.23-5c.62-.52,1.11-1.16.48-2.09a17.52,17.52,0,0,0-2.34-2.89c-1.29-1.26-1.56-2.4.23-3.28.25.55.52.62,1.09.26s.36-.9.28-1.4c.85-1.08,2.16-1.79,2.52-3.26.07-.25.26-.51,0-.71s-.34.19-.51.25a3.13,3.13,0,0,0-1.77,1.42c-.57,1-1.64,1.46-2.39,2.29a4,4,0,0,1-1.37,1.22c-.23.08-.37.34-.69.15a6.64,6.64,0,0,1-1.64-1.48c-.35-.42.4-.72.3-1.18,1.11.13.82-.92,1.2-1.41.18,0,.37.23.56-.1.51-.85.33-2.09,1.46-2.62.2-.09.12-.41,0-.61s-.29-.4-.53-.29a8.63,8.63,0,0,0-2.13,1.51,4.63,4.63,0,0,0-1.06,1.9c-.15.46-.64,1.22-1.23,1a5.81,5.81,0,0,1-3-1.75c1-.14.84-.89.88-1.54.49,0,.73-.44,1.07-.72.75-.62.49-1.72,1.16-2.34a1.69,1.69,0,0,0,.43-1.61c-1.47.22-2.37,1.28-3.44,2.06.37.58.83-.07,1.29.06a6.1,6.1,0,0,0-.51,2.54c-1,.13-.74.95-.88,1.55-.21.05-.43-.1-.64.06a2.25,2.25,0,0,1-2.32.09,1.21,1.21,0,0,1-.89-1.41,11.76,11.76,0,0,1,.54-2c.42-1.81-.56-3.33-.83-5-1.93,1.1-2,1.29-.91,3.24a.74.74,0,0,1,0,.42,15.9,15.9,0,0,1-1.4,3.32,3.88,3.88,0,0,1-1.11.95c-.27.19-.38,0-.47-.36-.16-.58.23-1.21-.28-1.94-.15,1-1.33,1.21-1.39,2.26.07-.62,0-1.14-.7-1.16-1.34,0-.42,1.39-1.16,1.84a.74.74,0,0,0-.64-.65c-.32-.07-.71-.33-.49-.76a.77.77,0,0,0-.58-1.18c-.47-.06-.59.56-.61,1a3,3,0,0,1-1.12,2.18c-.27.23-.68,1.08-.88-.1,0-.24-.53-.24-.67.12s0,.53-.1.77,0,.77-.42.86-.49-.35-.67-.62-.23-.49-.61-.36l-.11,1.89c-.55-.49-.9-1.61-1.51-.24-.15.34-1.3-.1-1.18-.46.31-.9-.38-1.21-.64-1.78A5.05,5.05,0,0,0,33,15.46c-.14.94.6,1.33.92,1.91s1.06.65.48,1.41c-.11.15.11.72.39.6.63-.26.46.17.54.47a5.12,5.12,0,0,1,.2,1.65h0c-.53-.64-1.61-.62-1.71-1.64-.56.35.3,1.17-.64,1.25-.37-.23-.62-.43-1.17-.1a24.88,24.88,0,0,0-5.81,4.74,30.54,30.54,0,0,0-5.76,9.58,27.39,27.39,0,0,0-1.76,12c.09,1.18.3,2.36.3,3.54,0,1.34.7,2.47.9,3.77a12.31,12.31,0,0,0,1.8,4,32.46,32.46,0,0,0,5,6.79c.56.55,1.2,1,1.73,1.57a18.54,18.54,0,0,0,4.73,3.43c1.06.63,2.27.9,3.29,1.59C35.4,72.72,35.13,73.68,35.81,74.33Zm-4.5-12.45c-.21-.26.16-.75-.29-.86s-.49.28-.71.48c-.57.52-1.13,1.06-1.69,1.59-.21.2-.5.44-.24.75s.53.06.73-.15.48-.56.75-.81c.42-.38.68-1,1.42-.9a.84.84,0,0,0,.3.84.4.4,0,0,1-.42.41c-.13-.13-.05-.5-.34-.4s-.31.41-.17.69c.2.6-.45.65-.63,1s-.57.52-.27.84.84.45,1.09.05c.7-1.08,1.82-1.89,2-3.27.22-.21.58-.47.22-.73s-.17.51-.55.42a.7.7,0,0,1-.64.45C31.56,62.33,31.63,61.82,31.31,61.88ZM21,49.4c.08.66.25,1.08,1.1.78a17.18,17.18,0,0,1,2.37-.49c.22,0,.62.09.57-.31s-.42-.33-.71-.32c-1,0-1.94.45-3,.21.12-.45.83-.15.89-.81-.35-.13-.78-.13-1.08-.43C20.89,48.52,21.07,49,21,49.4Zm6.7,25.42v0c.54.38.82,0,.83-.42a10.74,10.74,0,0,0,.2-3c-.12.48-.23.82-.73.77-.3,0-.58.11-.43.43.22.5,0,.59-.4.78s-.89.57-.87.83c0,.48.71.37,1.09.56A1.07,1.07,0,0,0,27.72,74.82ZM68.85,47c-.06.37-.18.78.38.85,1,.11,2.07.2,3.1.29.22,0,.49-.08.53-.31a.56.56,0,0,0-.35-.64,1.41,1.41,0,0,0-.86,0,3.72,3.72,0,0,1-2.33-.23c.07-.35-.07-.76.28-1,.58-.47.28-1.06.08-1.49a2.11,2.11,0,0,1,.74-2.88c-.51-.7-1.63-.53-1.91-1.46L67.4,42.52c-.5-.32-.05-1-.59-1.22a2.79,2.79,0,0,1-.26,1,1.83,1.83,0,0,0,0,2.72.48.48,0,0,1,0,.41c-.26.92-.18,1,.86.91-.36.73-.56,1.44.46,1.81C67.76,46.51,67.76,46.51,68.85,47Zm7.69,6.81h0c.42.7,1.22.87,1.85,1.26.44.29.85-.16,1.06-.68s-.14-1.31.13-1.95c0-.06-.19-.33-.24-.31-.64.17-1.49-.53-1.93.48-.12.25-.61.57-.6.27,0-.94-1-1.06-1.16-1.81a1.43,1.43,0,0,0-1.47-1.2,9.77,9.77,0,0,1-1.73-.29c-1.3-.28-2.63-.44-3.94-.66-1.14.58-1.56,1.55-1,3-.11-1.18,1-1.38,1-2.2a11,11,0,0,1,2.29.43c.48.06,1,.16.87.77s-.69.46-1.09.4c-.62-.08-1.23-.27-1.85-.39a.47.47,0,0,0-.56.27c-.08.24.13.32.3.38a16.09,16.09,0,0,0,2.74.86,7.28,7.28,0,0,1,2.55.29A14.4,14.4,0,0,1,76.54,53.76ZM26.83,81.09l0,0c0,.37.38.77-.18,1.06a.39.39,0,0,0-.1.66c.37.37.38.59-.14.81a.32.32,0,0,0-.05.56c.3.2.18-.34.3-.27.38.22.44-.14.62-.3,1-.86,1.14-2.08,1.52-3.23-.65,0-2-.84-1.92-1.3.13-.85-.41-1.62-.18-2.49.16-.58-.49-.64-.84-.83-.19-.1-.67-.32-.67-.07,0,.91-1.12,1.27-.92,2.23-.6-.11-1.2-.87-1.57,0-.18.42-.09.33-.48.19-.57-.2-.84.41-1.09.84-.09.17-.11.47.11.45,1.39-.1,1,.6.66,1.35a.46.46,0,0,0,.05.43c.42.46.3.82-.11,1.22-.23.21-.33.6-.05.79s.44-.19.6-.42.43-1.21,1-.6,1.21.48,1.67,1c.27.33.53.08.66-.36A2.47,2.47,0,0,1,26.83,81.09ZM9.16,60.45c.23-.8-.32-1.31-.54-1.9-.51.24-1.15-.32-1.57.19s-.06.91.08,1.37c.08.29.66.5.25.84a2.05,2.05,0,0,0-.93,1.88c0,.13-.28.31,0,.45a.57.57,0,0,0,.51,0c1.63-1,3.47-1.54,5-2.56s3-1.3,4.31-2.31a.33.33,0,0,1,.29,0c.87.48,1.26.34,1.24-.76,0-.86,1.39-.36,1.44-1.28a.57.57,0,0,0,0-.22c-.2-.8-.75-1-1.55-.6s-1.64.8-2.4,1.29c-.45.29-1,.19-1.44.37-.75.3-1.45.91-2.41.79-.33,0-1.14.47-1,.92C10.81,60.17,9.81,60.12,9.16,60.45Zm50.47,8.28c.71-.5.52-1.06.33-1.63a.7.7,0,0,1,.2-.9c.42-.31.47.15.65.33s.53.37.79.18.19-.54,0-.8c-.4-.62-.81-1.23-1.24-1.83-.19-.27-.44-.55-.82-.48s-.19.49-.29.74-.06.67-.53.47c-.27-.11-.45-.65-.82-.28s-.15.82,0,1.25C58.26,66.89,59.26,67.59,59.63,68.73Zm23.79-22c1.4-.64,1.67-1.44.8-2.37-.21.24.23.76-.3.82-.38.05-.47-.33-.52-.61A1.67,1.67,0,0,0,81.06,43c-.27.07-.74.26-.65.29.72.25-.24,1.41.76,1.38C83,44.64,83.49,45.07,83.42,46.7Zm.48-4.14a3.7,3.7,0,0,1,0-2.2c.18-.83-.28-1.65-.94-1.54s-1.55-.16-1.81.4c-.19.4-.14,1.55.35,1.7C82.48,41.22,82.85,42.14,83.9,42.56Zm-5.23,6.29c-.1-1-.47-1.71-.19-2.48s.22-1.46-.73-1.77c-.22-.07,0-.6-.57-.4s-.66.82-.84,1.31c-.11.3,0,.76.3.73.91-.08.75.74.71,1C77.2,48.3,77.88,48.49,78.67,48.85Zm-68-5.32c-.45,0-.9-.08-1.3-.07a8.56,8.56,0,0,0-3.19.14c-.47.18-1,.45-.33,1C7,45.59,9.89,45,10.67,43.53Zm22.78,39c.1,0,.15.06.17,0a16.38,16.38,0,0,0,3.46-4.14.4.4,0,0,0,0-.3.67.67,0,0,0-.4,0C35.11,79.24,33.63,80.39,33.45,82.48ZM72,67.75c.79,1.5,1.53,2,2.55,1.77.3-.08.9,0,.83-.63s-.62-1.2-1-1.08C73.52,68.06,72.81,67.57,72,67.75ZM31.52,66.56c-.11.25-.21.44,0,.56a.51.51,0,0,0,.63-.07A14.69,14.69,0,0,0,34.26,64a.39.39,0,0,0-.19-.56c-.27-.16-.4,0-.51.21-.34.62-.88,1.11-1.26,1.67S31.29,65.93,31.52,66.56ZM48.4,68.71c.06.63.14,1.37.2,2.1,0,.31,0,.63.44.66s.49-.34.49-.6a8.23,8.23,0,0,0-.37-3c-.07-.18-.15-.35-.37-.34a.39.39,0,0,0-.39.44C48.39,68.16,48.4,68.38,48.4,68.71Zm24-47.13c-.65-.07-1.87,1.53-1.69,2.15.09.3.32.29.52.15.71-.49,1.4-1,2.11-1.51.3-.21.17-.39,0-.49A5.27,5.27,0,0,0,72.43,21.58ZM22.24,54.46a11.55,11.55,0,0,0,3.6-1.05c.18-.16.33-.33.2-.56s-.39-.13-.6-.06l-2.29.82C22.73,53.76,22.33,53.94,22.24,54.46Zm48.67.27c.22-.09.55.06.65-.28s-.15-.53-.41-.69a13.11,13.11,0,0,0-3.06-.9c-.16,0-.41,0-.43.22a.43.43,0,0,0,.2.35A11.45,11.45,0,0,0,70.91,54.73ZM66.72,70.64c.06,1.06-.12,2.13,1.45,2.27.88.08.7-.23.53-.66C68.34,71.37,67.33,71.25,66.72,70.64Zm9-31.17c.13.48-.84.54-.32,1.16-.36.24,0,1.27-1,.83-.3-.14-.78,0-.69.45.15.67.89.33,1.33.56.25.13.8.17.77-.31C75.77,41.27,76.52,40.4,75.76,39.47Zm7.18,10.29c-1.07.32-1.89-.79-2.9-.31C80.73,51,81,51.05,82.94,49.76ZM65.55,18.57a1.05,1.05,0,0,0-1.06-1.26c-.45,0-.46.54-.5,1a1.2,1.2,0,0,0,1.09,1.28C65.52,19.61,65.48,18.88,65.55,18.57ZM77.08,76.8c.32-1,1.33-1.25,2-1.87.28-.25.38-.4.19-.72s-.4-.24-.63,0a11.76,11.76,0,0,1-1.31,1.14A.92.92,0,0,0,77.08,76.8Zm-5.4,4.27c0-.48.08-.95-.58-.91a.77.77,0,0,0-.74.83c0,.47.21,1.14.85,1.11S71.69,81.48,71.68,81.07ZM17.38,33.86c-.4.16-.8.39-.68.7.21.59.86.8,1.38,1,.29.1.45-.41.43-.72C18.46,34.08,17.61,34.33,17.38,33.86Zm-2.94,5.65a5.2,5.2,0,0,0,2,.91c.27,0,.64.15.66-.32a.51.51,0,0,0-.52-.59Zm7.22-22.37a2.64,2.64,0,0,1,0-.61c.16-.86-1-.34-1-1-.06,0-.16,0-.18,0-.28.52.2.56.46.76s.1.34,0,.35c-.5,0-.61.22-.29.57s.48.65.9.55S21.63,17.34,21.66,17.14ZM63.06,72.3c.09-.6-.44-.71-.83-.77a.66.66,0,0,0-.73.67c0,.61.57.8,1.1.84S63.06,72.68,63.06,72.3ZM31.93,18.43c0-.48,0-.92-.66-.94s-.65.48-.66.75c0,.48.41.79.85.87S31.92,18.76,31.93,18.43ZM16.66,49.68c0-.64.42-.82.87-1a.4.4,0,0,0,.24-.46c0-.23-.25-.25-.43-.23-.39.06-1.07-.23-1.11.08A1.39,1.39,0,0,0,16.66,49.68ZM46.28,76.51c0,.34,0,.92.55.94.66,0,.57-.64.61-1.09s0-.88-.59-.87S46.28,76,46.28,76.51Zm-26.09-43a6.33,6.33,0,0,0-2.7-.79C18.17,33.92,18.68,34.05,20.19,33.47ZM31.4,71.56c-.28.25-.88.26-.86.81,0,.28.14.72.59.65a.91.91,0,0,0,.8-1C31.92,71.7,31.76,71.53,31.4,71.56ZM75.8,35.33c.37-.19,1-.12,1.07-.83,0-.38-.12-.52-.41-.47-.53.11-1.16.2-1.34.8C75,35.08,75.39,35.32,75.8,35.33ZM57.28,73.74a.5.5,0,0,0-.41.64c.14.42.2,1.05.8,1,.38,0,.47-.53.46-.89S57.73,73.86,57.28,73.74Zm-41.47-28c.36-.1.93.35.9-.43,0-.61-.5-.42-.82-.42s-.84,0-.85.47S15.47,45.81,15.81,45.71ZM74.06,70.55c-.27,0-.67.11-.5.3a3.2,3.2,0,0,0,1.35,1c.68.2-.18-.68.37-.71C75,70.58,74.39,70.82,74.06,70.55ZM42,75.9c0-.39,0-.84-.51-.8s-.51.56-.56,1,0,.64.41.65S42,76.35,42,75.9ZM75.7,26.53c.76-.51,1.38-.94,1.85,0a.24.24,0,0,0,.39,0c.14-.13,0-.26,0-.38s-.22-.78-.58-.7C76.75,25.57,76,25.45,75.7,26.53ZM17,43.85c.32-.32,1.18,0,1.18-.47,0-.74-.67-.07-1-.2a.75.75,0,0,1-.2-.1c-.23-.15-.44-.46-.76-.18a.41.41,0,0,0,0,.39C16.33,43.57,16.51,43.87,17,43.85Zm56.5-13.44c.29-.43,1.15-.21,1.24-1,0-.29-.27-.38-.46-.3-.47.2-1.18.06-1.31.79C72.89,30.19,73,30.43,73.47,30.41ZM36.91,16.26c-.17-.37-.26-.92-.87-1-.23,0-.49.06-.45.36a1.53,1.53,0,0,0,.88,1.3C36.69,17,36.88,16.65,36.91,16.26ZM66.25,51.69a4.49,4.49,0,0,0-.76,2.89C66.24,53.65,66.76,52.93,66.25,51.69ZM26.69,70.06a2.54,2.54,0,0,0,.91-1.2c.12-.41-.34-.3-.53-.27-.6.08-.77.58-.88,1.07C26.13,69.9,26.27,70.09,26.69,70.06ZM32.7,14c.17.55.78.76,1.23,1.09.16.11.33-.23.25-.37-.28-.46-.51-1-1.07-1.18C32.83,13.45,32.7,13.63,32.7,14ZM71.36,25.2c-.06-.27-.17-.54-.46-.52-.55,0-.81.48-1,.89s.22.44.48.38C70.82,25.86,71.25,25.72,71.36,25.2ZM16.21,51.28c.2-.08.62.14.71-.37.13-.71-.53-.48-.82-.64a.44.44,0,0,0-.63.42C15.44,51.14,15.75,51.26,16.21,51.28ZM23.87,65.1a.36.36,0,0,0-.43-.36,1.21,1.21,0,0,0-1,.87c-.09.25.19.44.41.39A1.29,1.29,0,0,0,23.87,65.1Zm-4-3.53c.29-.25.81-.4.82-1,0-.21-.33-.46-.48-.3-.3.34-1,.19-1,.86C19.26,61.44,19.49,61.6,19.9,61.57Zm7.61-40.16a.83.83,0,0,0-.69-.75.38.38,0,0,0-.41.52c.09.39.26.81.72.88S27.53,21.82,27.51,21.41ZM77.25,50.33c-.22.08-.76-.06-.68.41.12.63.83.28,1.24.5.19.11.52,0,.46-.27C78.17,50.5,77.75,50.39,77.25,50.33ZM46.62,10.76c0,.7-.39,1.46.17,2.25A2.06,2.06,0,0,0,46.62,10.76Zm-7.11,5-.3.05.52,2.11C40.1,17.12,39.64,16.48,39.51,15.77Zm-16.2,10c.17,0,.47.09.43-.28s-.41-.66-.8-.81-.42.06-.41.32A.73.73,0,0,0,23.31,25.81Zm.08,19.68c-.47.27-1,.12-1.16.66,0,0,.13.16.21.18C23,46.46,23.27,46.22,23.39,45.49ZM69.51,73.05c.29-.49.76-1.13-.4-1.26ZM70,39.58c0-.23-.15-.31-.36-.32a.37.37,0,0,0-.42.29.23.23,0,0,0,.23.3C69.73,39.87,69.94,39.85,70,39.58ZM6.39,60.34c0,.06-.08.13-.07.17s.11.05.16.08.09-.13.07-.17S6.45,60.37,6.39,60.34ZM71,36.77l0-.06h0ZM67,52.52s-.07,0-.07.06a1.66,1.66,0,0,0,.06.16l.08-.06A1.11,1.11,0,0,0,67,52.52Zm3.15-28.23s.07,0,.08-.06a.19.19,0,0,0,0-.1l-.13.07Z"/><path class="cls-1" d="M53.51,85.12c.07.55-.22,1.1.25,1.61.24.25,0,.55-.28.52-1.9-.18-3.75.58-5.66.29-.35-.06-.64-.11-.56-.46.36-1.53-.15-3.06.14-4.61s.14-1.66,1.81-1.78a55.31,55.31,0,0,0,6.58-.85,16.72,16.72,0,0,0,3.35-1.36c1.32-.61,1.69-.56,2,.72.31,1.5,1.31,2.61,1.78,4s.38,1.43-1.05,1.46a2.1,2.1,0,0,0-1,.25c-1,.55-2.12,1-3.18,1.43-.24.1-.54.22-.67-.11s.15-.41.34-.51.49-.16.72-.27a.35.35,0,0,0,.1-.29.15.15,0,0,0-.23-.13c-.15.08-.21.22-.44,0-.68-.65-1.15-.5-1.24.46-.06.6-.17,1-.8,1.1s-.92-.18-1.11-.78C54.2,85.54,53.79,85.36,53.51,85.12Z"/><path class="cls-1" d="M44.28,7c.13.33-.09.36-.33.37a20.06,20.06,0,0,0-5.5,1.36c-.58.2-.6-.19-.68-.44C37,6.2,36.34,4.13,35.63,2.06c-.22-.62.07-.91.64-1A32.7,32.7,0,0,1,42.5.24c.32,0,.74-.12.81.36C43.64,2.72,44,4.85,44.28,7Z"/><path class="cls-1" d="M32.19,3.34c.18.68-.34,1.44.24,2.08.15.16.19.48.35.55,1.66.66,1.11,2.54,2,3.63a.6.6,0,0,1-.38.9,44.35,44.35,0,0,0-4.68,2.07c-.41.19-.63.17-.9-.24-1.08-1.59-1.72-3.43-2.92-5A.84.84,0,0,1,26.11,6,20.58,20.58,0,0,1,32.2,3.35Z"/><path class="cls-1" d="M21.61,11.86c0,.25-.53.42-.84.61-1.48.88-2.35,2.39-3.65,3.44a19.6,19.6,0,0,0-3,3.42.53.53,0,0,1-.66.24,1.48,1.48,0,0,1-.8-2.47c.33-.38.69-.82,1.26-.18a.75.75,0,0,0,1.25,0c.48-.58-.05-.82-.4-1-.57-.31-.51-.66-.17-1a24.06,24.06,0,0,1,3.24-3.3c.45-.33.9-.65,1.34-1s.61-.91,1.18-.55A2.38,2.38,0,0,1,21.61,11.86Z"/><path class="cls-1" d="M54.54,89.63c.38.28.87,1,1-.14,0-.36.5-.39.82-.47s.58-.14.61-.53-.09-.7.37-.64.26.48.32.75a2.31,2.31,0,0,1-2.94,2.77C54.28,91.25,54.24,90.93,54.54,89.63Z"/><path class="cls-1" d="M58.74,87.57c.47.11.31,1.55,1.18.18l.1,1.61c.32-.22.68-.71,1-.09s-.32.54-.59.72a1.17,1.17,0,0,1-.42.15c-.65.16-1.48.81-1.93.23s0-1.46.38-2.16C58.54,88,58.62,87.82,58.74,87.57Z"/><path class="cls-2" d="M77,14.1c-.08.25-.16.57-.43.15-.13-.2-.17-.42-.46-.27s-.29.45-.52.21,0-.49.2-.65c.52-.46.56-1.21,1-1.68l1.62,1.49c-.56.13-.86.75-1.47.76l-.1-.35s-.07,0-.08.05S76.84,14.06,77,14.1Z"/><path class="cls-2" d="M39,91.59c-.49-1,.22-1.71.56-2.53a13.69,13.69,0,0,0,0,2.64Z"/><path class="cls-2" d="M92.17,46.93c-.4,0-.81-.29-.73-.64s-.07-1.11.7-1.15Z"/><path class="cls-2" d="M57.2,1.36a2.07,2.07,0,0,1-.43,1.82c-.13-.74-.24-1.35-.35-2Z"/><path class="cls-1" d="M28.87,3.47a4.1,4.1,0,0,1-2.29,1A4.2,4.2,0,0,1,28.87,3.47Z"/><path class="cls-2" d="M44.64,92.23a4.09,4.09,0,0,1,0-1.94,1.59,1.59,0,0,1,.22,2Z"/><path class="cls-2" d="M89.73,32c-.06.56-.46.68-.92.71l0-.08c.19-.46.2-1.11,1-.91Z"/><path class="cls-2" d="M55,.89c.15.42.67.59.7,1.09-.93,0-.93,0-.82-1.09Z"/><path class="cls-1" d="M21,8.69l-.23-.22L21,8.33l.19.2A1,1,0,0,0,21,8.69Z"/><path class="cls-1" d="M24.14,5.82l0-.1-.05.09Z"/><path class="cls-1" d="M32.2,3.35l.11-.08s0,0,0,.06H32.2Z"/><path class="cls-2" d="M36.9,65.39c-.64.23-.49-.68-1-.67a.27.27,0,0,1-.14-.14c.16-.78-.35-1.45-.32-2.2-.44-.17-.67.35-1.06.27s-.73-.33-.46-.51c1-.63-.48-1-.1-1.59,0,0-.48-.13-.74.06-.52.37-1,.93-1.63.08-.15-.21-.56,0-.85,0s-.69.23-.77-.3A.58.58,0,0,0,30,59.5c-.3-.31-.58-.07-.84.12a2.94,2.94,0,0,1-.46.25c-.31-.24-.31-.45,0-.7s.5-.25.27-.59c0-.17,0-.35-.05-.53s-.07-.37-.34-.26a2.53,2.53,0,0,0-1.18.64c-.23-.07-.35,0-.32.25h0c-.28-.12-.41,0-.43.28a.33.33,0,0,0-.14,0c-.23-.08-.31,0-.28.24l-.46.33c-.24-.31-.63-.5-.69-.94a8,8,0,0,1,2-1.2c.47-.18,1.11-.43.73-1.2-.21-.5-.41-.48-.62,0l-.49.21c-.57-.14-.47-.51-.31-.9.36-.22.82-.39.5-1,.19-.17.39-.33.57-.51a1,1,0,0,0,.17-.95c-.93.16-.68-1.33-1.64-1.18-.21,0-.2-.27-.3-.41h0a1.2,1.2,0,0,0,1.39-1c.16-.55-.38-1.11-1.05-1.21-.38-.07-.72-.17-.61-.59.23-.9-.49-1-1-1.14-.74-.14-1-.25-.39-.92.4-.46.61-1,0-1.5a1.38,1.38,0,0,1-.29-.58c-.36-1-1-1.19-1.86-.62s-1.62.23-2.28.77c0-.33,0-.66,0-1a18.72,18.72,0,0,0,3.44-1c1.17-.62,1.17-1.08.1-1.87-.55-.4-1.28-.57-1.61-1.22C22,39.07,22.87,40,23,39c.06,0,.26,0,.09-.16L23,39l-1.58-.68c1.33-.19,1.33-.19,1-1l.44,0c.33,0,.78-.07.67-.5s-.5-.12-.77-.05a1.54,1.54,0,0,1-1.71-.47l.3-1.06c.57.1,1.14.17,1.7.3.18,0,.35.15.46-.07s-.1-.36-.23-.43c-.47-.27-.95-.51-1.43-.76l.32-.68h3.06A3.41,3.41,0,0,0,25,33c-.38-.46-.84-.76-.07-1.44.54-.47,1.08-1.47-.29-1.91-.06,0-.09-.12-.13-.18l.91-1.25c.37-.42,1.1,1.11,1.29-.25,1.45.15-.11-1,.57-1.2.13,0,.15.17.23.29a.73.73,0,0,0,1.08.12c.35-.24,0-.72-.17-.82-.67-.36-.08-.87-.22-1.27l.17-.15c.14.16.26.44.52.32s.23-.49.1-.77l.43-.47c.39.14.47,0,.38-.38l.08-.06a3.28,3.28,0,0,0,2.05-.16,2.51,2.51,0,0,1-.39-1.11c.82-.05,1.13-.79,1.67-1.22.94-.08.08-.9.64-1.25.1,1,1.18,1,1.71,1.64l.08.05-.09,0a5.12,5.12,0,0,0-.2-1.65c-.08-.3.09-.73-.54-.47-.28.12-.5-.45-.39-.6.58-.76-.23-1-.48-1.41s-1.06-1-.92-1.91a5.05,5.05,0,0,1,2.25,2.3c.26.57.95.88.64,1.78-.12.36,1,.8,1.18.46.61-1.37,1-.25,1.51.24l.11-1.89c.38-.13.47.15.61.36s.27.71.67.62.33-.55.42-.86,0-.53.1-.77.63-.36.67-.12c.2,1.18.61.33.88.1a3,3,0,0,0,1.12-2.18c0-.44.14-1.06.61-1a.77.77,0,0,1,.58,1.18c-.22.43.17.69.49.76a.74.74,0,0,1,.64.65c.74-.45-.18-1.87,1.16-1.84.7,0,.77.54.7,1.16.06-1.05,1.24-1.21,1.39-2.26.51.73.12,1.36.28,1.94.09.34.2.55.47.36a3.88,3.88,0,0,0,1.11-.95A15.9,15.9,0,0,0,52,12.18a.74.74,0,0,0,0-.42c-1.07-1.95-1-2.14.91-3.24.27,1.71,1.25,3.23.83,5a11.76,11.76,0,0,0-.54,2A1.21,1.21,0,0,0,54.07,17a2.25,2.25,0,0,0,2.32-.09c.21-.16.43,0,.64-.06h0a5.81,5.81,0,0,0,3,1.75c.59.23,1.08-.53,1.23-1a4.63,4.63,0,0,1,1.06-1.9,8.63,8.63,0,0,1,2.13-1.51c.24-.11.42.09.53.29s.19.52,0,.61c-1.13.53-.95,1.77-1.46,2.62-.19.33-.38.06-.56.1-.39-.54-.72-.29-1,.07s-.2.89-.17,1.34-.65.76-.3,1.18a6.64,6.64,0,0,0,1.64,1.48c.32.19.46-.07.69-.15a4,4,0,0,0,1.37-1.22c.75-.83,1.82-1.3,2.39-2.29a3.13,3.13,0,0,1,1.77-1.42c.17-.06.26-.45.51-.25s0,.46,0,.71c-.36,1.47-1.67,2.18-2.52,3.26-.42,0-.59.32-.83.57-.17,0-.24,0-.21.22l-.33.35c-1.79.88-1.52,2-.23,3.28A17.52,17.52,0,0,1,68,27.81c.63.93.14,1.57-.48,2.09a12.08,12.08,0,0,0-3.23,5c-.24.59-.14,1.13.44,1.27s1.11.41,1.5-.43a2.9,2.9,0,0,1,2.46-1.53c.75-.1,1.46-.1,2.21-.15.08.6-.45.71-.64,1s-1.45.91,0,1.41c.21.07.27.48-.19.49s-.73.06-.72.49.79,1.36-.59.8c-.12,0,.1.7-.24,1-.25,0-.33-.14-.33-.32,0-.91-.55-.71-1.06-.56-.23.07-.43.45-.68.29-1.22-.83-.91.48-.92.78,0,.93-.08,1.58-1.3,1.15a.81.81,0,0,0-.91.44,2.71,2.71,0,0,1,1.63.79c.48.57.3,1.2.34,1.81,0,.25,0,.68-.31.61-1.21-.28-1.64,1.19-2.72,1-.06.57.66.71.52,1.23-.12.16-.27.1-.4,0a1.42,1.42,0,0,0-2,.68c-.5.8-.82-.12-1.36-.16a1.65,1.65,0,0,1-1,2.51c-.22-.37-.07-1-.67-1.07-.34.31.14.68-.1,1.17-.46-.54-.11-1.19-.43-1.74-.49.48,0,1.19-.49,1.7-.48-.49-.07-1.14-.54-1.79-.05,1.93-1.2,3.52-.08,5.41a8.47,8.47,0,0,1,.91,4.23,13.68,13.68,0,0,0,.58,3.35A5.31,5.31,0,0,1,57,65.1c-.28,0-.34-.07-.35-.2s.33-.67-.12-.75-.25.44-.36.67-.29.36-.2.61h0c-.39.09-.73.66-1.21.06-.14-.18-.3.2-.41.37l-.2.15c-.3,0-.5.16-.5.48s-.33.39-.61.44c-.24-.27-.5-.36-.78-.05s-.71.67-1.26.4l-.41-.23c-.62-.22-1.37.41-2-.37-.17-.22-.47.34-.52.65a15,15,0,0,1-.37,1.94c-.11-.6-.2-1.21-.32-1.8,0-.26-.09-.25-.46,0-.62,0-.63.39-.66.81a1.34,1.34,0,0,1-1,0c0-.4.13-.87-.52-.87s-1-.49-1.61-.28l-.35,0c-.17,0-.36-.1-.45.1s.07.22.1.34l-.16.78c-.45,0-.55-.47-.82-.7.07-.35.09-.68-.31-.83s-.47.12-.61.34a.45.45,0,0,0-.27.56.88.88,0,0,0-.05.15c-.35.07-.5-.19-.66-.43,0-.25,0-.56.24-.75,0-.25.28-.72-.37-.62L39.22,66c-.19-.15-.3-.09-.36.12l-.06,0-.88-.34c0-.28-.14-.48-.44-.52,0-.23-.14-.42-.41-.36s-.29.26-.18.49ZM52.14,15.65c.62-.3.41-1,.61-1.42.09-.2-.12-.4-.4-.39-.76,0-.66.69-.79,1.11S51.81,15.51,52.14,15.65Z"/><path class="cls-3" d="M21.41,35.13l-.3,1.06a14.14,14.14,0,0,0-1.42,4.73,5.41,5.41,0,0,0-.06,2.8c0,.34,0,.67,0,1a.72.72,0,0,0,0,1v.35c-.54,1.46.13,2.83.41,4.21.12.61.19,1.21.27,1.82s.15,1.47,1.17,1.42h0c-.11.28.13.51.08.84a4.3,4.3,0,0,0,.52,3c1.3,2.29,3.05,4.25,4.48,6.4,1.59,2.4,3.79,3.82,6,5.33a17.91,17.91,0,0,0,5.11,2.61c2.48.72,5,1.52,7.68,1.28,1.86-.17,3.76.09,5.65-.21a25.89,25.89,0,0,0,6.53-2,30.61,30.61,0,0,0,3.8-1.9c1-.63,2-1.4,3-2.11.25-.18.23-.46.21-.72a.71.71,0,0,1,.47-.79c.29-.13.73-.24.51-.69s-.66-.26-1-.25-.53.26-.44.68.12.7-.35.8a.73.73,0,0,1-.83-.4c-.53-.83-1.46-1.35-1.79-2.34-.08-.25-.23-.52,0-.72s.48.06.71.16a1.86,1.86,0,0,0,.2.1c.35.1.45.93.9.5s-.13-.89-.21-1.34c-.05-.27-.65-.34-.31-.68s.59,0,.87.2.81.65,1.19.2,0-.81-.35-1.14c-.18-.18-.41-.42-.16-.67s.45.06.65.19a11.31,11.31,0,0,0,2.26,1.61c.12.05.92.45.09.85-.32.15-.69.37-.33.85s.54.55.94.32a.91.91,0,0,0,.48-1.12A6.74,6.74,0,0,0,65.42,59c-.26-.21-.6-.32-.47-.94,1.22.81,2.83.69,3.75,2l0,.07.06,0-.1-.08c.5-1.4-1.07-1.36-1.5-2.11-.13-.22-.43-.38-.61-.63s-1-.34-.64-.83.71.13,1.08.21a5.12,5.12,0,0,1,1.13.48c.24.12.5.29.7,0a.56.56,0,0,0-.14-.8,4.61,4.61,0,0,0-1.4-.88c-.29-.1-.68-.35-.48-.74s.46,0,.7.11a4.38,4.38,0,0,0,1.53.24,1.47,1.47,0,0,1,1.35.29.75.75,0,0,0,.94.07c.6-.71,1.44.36,2-.35,0,0,.17,0,.18.09.33,1.43,1.11.45,1.67.27a1.48,1.48,0,0,1,1.35.25.54.54,0,0,1,.16.71c-.12.26-.33.22-.56.14-.4-.14-.85-.32-1,.32,0,.34-.46.75-.06,1s.89.07,1.3-.27A2.72,2.72,0,0,0,77.57,56c.4.37.4.81.7,1.1,1,1,1,1.62,0,2.68a.8.8,0,0,0-.29.88c.12.39.36.13.61.07s.22.29.21.44a11,11,0,0,0,0,2.57.74.74,0,0,1-.2.47c-.76-.16-1,.89-1.64.78-.87-.12-.63.43-.58.88h0c-.48,0-.55-.59-1-.63s-1-.62-1.13.38c0,.3-.43.37-.71.43-.91.19-1.81-.11-2.74,0a.8.8,0,0,1-.58-1.41c.32-.33.24-.68.31-1l0-.06,0,.07c-.29,0-.61.15-.86-.07-.57-.48-.74.24-1.11.34.27.64-1.14,1.49.25,2,.25.09.18.39.08.6a1.12,1.12,0,0,0,.08,1.21L69.44,66c.28.46.07.92.32,1.31.9,1.38.88,1.39-.63,2.07-.25-.19.21-.78-.23-.68s-.9,0-1.05.54-.3.92-.85.78a1.45,1.45,0,0,1-1-1.12c0-.13,0-.3,0-.44-.18-1-.57-1.23-1.41-.66A27.83,27.83,0,0,1,61.25,70a28.2,28.2,0,0,1-6.37,2.77,29.47,29.47,0,0,1-3.45,1c-.3,0-.45.25-.31.57s.15.27.46.13c.66-.32.71.45,1,.76a1.1,1.1,0,0,1,.13,1.35,5.47,5.47,0,0,1-2.35-.07c-.18-.46.22-.6.51-.76s.59,0,.54-.42-.35-.26-.61-.19c-.51.13-.49-.25-.39-.52.34-.94-.38-.76-.84-.81a1.84,1.84,0,0,0-.87.12c-1.45.62-3,0-4.43.15a12.34,12.34,0,0,1-2.46-.46c-1.8-.22-3.4-1.08-5.13-1.5a.86.86,0,0,1-.21-.07c-1-.69-2.23-1-3.29-1.59A18.54,18.54,0,0,1,28.43,67c-.53-.6-1.17-1-1.73-1.57a32.46,32.46,0,0,1-5-6.79,12.31,12.31,0,0,1-1.8-4c-.2-1.3-.91-2.43-.9-3.77,0-1.18-.21-2.36-.3-3.54a27.39,27.39,0,0,1,1.76-12,30.54,30.54,0,0,1,5.76-9.58A24.88,24.88,0,0,1,32,21c.55-.33.8-.13,1.17.1-.54.43-.85,1.17-1.67,1.22a3.92,3.92,0,0,0-1.66,1.27l-.08.06c-.25,0-.39.12-.38.38l-.43.48a.57.57,0,0,0-.62.44l-.17.15a10.68,10.68,0,0,0-2.78,3.13l-.91,1.25a9,9,0,0,0-2.28,4l-.32.68A1.46,1.46,0,0,0,21.41,35.13Zm52.1,24.71c-.53-1.07-1.81-1.12-2.34-2.11-.28-.54-.94-.33-1.42-.5-.17,0-.43.19-.32.34.27.37.23,1,.79,1.11A2.14,2.14,0,0,1,71.64,60c.37.66.83.82,1.39.18A1.58,1.58,0,0,1,73.51,59.84Zm1.65-.14c.07-.23.14-.57-.38-.6s-.53.29-.53.67a2,2,0,0,0,.58,1.41.58.58,0,0,0,.89,0c.27-.33.13-.63-.31-.73S75,60.15,75.16,59.7Z"/><path class="cls-3" d="M88.77,32.58l0,.08c0,1.47.66,2.79.9,4.21a51,51,0,0,1,0,16.77c-.53,3.24-1,2.24-3,1.77-.64-.14-.76-.44-.67-1,.31-1.76.65-3.5.79-5.29a41.5,41.5,0,0,0-.64-11.77A35.48,35.48,0,0,0,82.9,28c-.65-1.23.62-3,2-3.05.46,0,.62.22.8.61,1,2.07,2.24,4,2.55,6.33A.92.92,0,0,0,88.77,32.58Zm.78,12.69a43.6,43.6,0,0,0-1.3-10.08,34,34,0,0,0-2.83-8.08c-.21-.41-.11-1.12-1-.78s-.65.74-.42,1.31a65.77,65.77,0,0,1,2.67,7.76,41.58,41.58,0,0,1,1.09,12.32A20.22,20.22,0,0,1,87,53.55c-.22.66.12,1.07.76,1.25s.83-.24,1-.83A57,57,0,0,0,89.55,45.27Z"/><path class="cls-3" d="M26.83,81.09a2.47,2.47,0,0,0-1.09,1.73c-.13.44-.39.69-.66.36-.46-.54-1.17-.52-1.67-1s-.78.24-1,.6-.22.66-.6.42-.18-.58.05-.79c.41-.4.53-.76.11-1.22a.46.46,0,0,1-.05-.43c.37-.75.73-1.45-.66-1.35-.22,0-.2-.28-.11-.45.25-.43.52-1,1.09-.84.39.14.3.23.48-.19.37-.88,1-.12,1.57,0-.2-1,.91-1.32.92-2.23,0-.25.48,0,.67.07.35.19,1,.25.84.83-.23.87.31,1.64.18,2.49-.07.46,1.27,1.34,1.92,1.3-.38,1.15-.56,2.37-1.52,3.23-.18.16-.24.52-.62.3-.12-.07,0,.47-.3.27a.32.32,0,0,1,.05-.56c.52-.22.51-.44.14-.81a.39.39,0,0,1,.1-.66c.56-.29.21-.69.18-1.06.21,0,.47.09.57-.18,0,0-.1-.2-.17-.21C26.9,80.63,26.85,80.85,26.83,81.09Z"/><path class="cls-3" d="M9.16,60.45c.65-.33,1.65-.28,1.21-1.57-.16-.45.65-1,1-.92,1,.12,1.66-.49,2.41-.79.48-.18,1-.08,1.44-.37.76-.49,1.59-.87,2.4-1.29s1.35-.2,1.55.6a.57.57,0,0,1,0,.22c-.05.92-1.45.42-1.44,1.28,0,1.1-.37,1.24-1.24.76a.33.33,0,0,0-.29,0c-1.3,1-2.92,1.39-4.31,2.31s-3.37,1.61-5,2.56a.57.57,0,0,1-.51,0c-.23-.14.06-.32,0-.45A2.05,2.05,0,0,1,7.38,61c.41-.34-.17-.55-.25-.84-.14-.46-.44-1-.08-1.37s1.06,0,1.57-.19C8.84,59.14,9.39,59.65,9.16,60.45Z"/><path class="cls-3" d="M68.5,48.86c1.31.22,2.64.38,3.94.66a9.77,9.77,0,0,0,1.73.29A1.43,1.43,0,0,1,75.64,51c.11.75,1.17.87,1.16,1.81,0,.3.48,0,.6-.27.44-1,1.29-.31,1.93-.48,0,0,.27.25.24.31-.27.64.12,1.31-.13,1.95s-.62,1-1.06.68c-.63-.39-1.43-.56-1.85-1.26.17,0,.38,0,.36-.29,0,0,0-.07-.08-.07-.27,0-.25.19-.27.37a14.4,14.4,0,0,0-2.83-1.06,7.28,7.28,0,0,0-2.55-.29,16.09,16.09,0,0,1-2.74-.86c-.17-.06-.38-.14-.3-.38a.47.47,0,0,1,.56-.27c.62.12,1.23.31,1.85.39.4.06,1,.26,1.09-.4s-.39-.71-.87-.77a11,11,0,0,0-2.29-.43A.93.93,0,0,1,68.5,48.86Zm6.41,2.43c-.08-.24-.1-.63-.4-.55s-.48.59-.58,1a.32.32,0,0,0,.38.4C74.75,52,74.8,51.62,74.91,51.29Z"/><path class="cls-2" d="M68.85,47c-1.09-.44-1.09-.44-.94,1.18-1-.37-.82-1.08-.46-1.81-1,.12-1.12,0-.86-.91a.48.48,0,0,0,0-.41,1.83,1.83,0,0,1,0-2.72,2.79,2.79,0,0,0,.26-1c.54.27.09.9.59,1.22L68.51,40c.28.93,1.4.76,1.91,1.46a2.11,2.11,0,0,0-.74,2.88c.2.43.5,1-.08,1.49-.35.27-.21.68-.28,1Zm0-5.62a1.72,1.72,0,0,0-.09.36c0,.13,0,.31.23.18s.11-.25.12-.38S69,41.28,68.82,41.33Z"/><path class="cls-3" d="M59.63,68.73c-.37-1.14-1.37-1.84-1.72-3-.14-.43-.35-.89,0-1.25s.55.17.82.28c.47.2.44-.24.53-.47s-.15-.65.29-.74.63.21.82.48c.43.6.84,1.21,1.24,1.83.17.26.27.6,0,.8s-.56.05-.79-.18-.23-.64-.65-.33a.7.7,0,0,0-.2.9C60.15,67.67,60.34,68.23,59.63,68.73Z"/><path class="cls-3" d="M54.15,66l.2-.15c.58.26.58,1.42,1.38,1.14s.13-1,.24-1.57h0c.73,0,.83.68,1.08,1.14a7.59,7.59,0,0,0,.89,1.66.51.51,0,0,1-.07.85c-.43.29-.61-.07-.77-.37s-.23-.62-.36-.92-.49-.49-.91-.27-.2.52-.12.84.74.38.51.87c-.16.33.16.85-.3,1s-.69-.18-.87-.55c0-.1-.16-.16-.24-.23h0A5.77,5.77,0,0,1,54.15,66Z"/><path class="cls-2" d="M21.17,8.53,21,8.33c-.05-.45-.12-.94.57-.47A8.3,8.3,0,0,1,25,12.26a.88.88,0,0,0,.86.59c.46,0,.46.29.31.61s-.36.29-.67.06A2.17,2.17,0,0,0,23.16,13c1.13-1.36.17-2-.31-2.79A3.56,3.56,0,0,0,21.17,8.53Z"/><path class="cls-2" d="M57.91,15.27a6.1,6.1,0,0,1,.51-2.54c-.46-.13-.92.52-1.29-.06,1.07-.78,2-1.84,3.44-2.06a1.69,1.69,0,0,1-.43,1.61c-.67.62-.41,1.72-1.16,2.34-.34.28-.58.67-1.07.72Z"/><path class="cls-2" d="M83.42,46.7c.07-1.63-.43-2.06-2.25-2-1,0,0-1.13-.76-1.38-.09,0,.38-.22.65-.29a1.67,1.67,0,0,1,2.34,1.52c0,.28.14.66.52.61.53-.06.09-.58.3-.82C85.09,45.26,84.82,46.06,83.42,46.7Z"/><path class="cls-3" d="M83.9,42.56c-1.05-.42-1.42-1.34-2.35-1.64-.49-.15-.54-1.3-.35-1.7.26-.56,1.18-.29,1.81-.4s1.12.71.94,1.54A3.7,3.7,0,0,0,83.9,42.56Z"/><path class="cls-3" d="M78.67,48.85c-.79-.36-1.47-.55-1.32-1.59,0-.28.2-1.1-.71-1-.29,0-.41-.43-.3-.73.18-.49.18-1.06.84-1.31s.35.33.57.4c1,.31,1,.93.73,1.77S78.57,47.89,78.67,48.85Z"/><path class="cls-2" d="M10.67,43.53C9.89,45,7,45.59,5.85,44.6c-.63-.55-.14-.82.33-1a8.56,8.56,0,0,1,3.19-.14C9.77,43.45,10.22,43.5,10.67,43.53Z"/><path class="cls-2" d="M33.45,82.48c.18-2.09,1.66-3.24,3.19-4.34a.67.67,0,0,1,.4,0,.4.4,0,0,1,0,.3,16.38,16.38,0,0,1-3.46,4.14S33.55,82.51,33.45,82.48Z"/><path class="cls-3" d="M32.85,62.13c-.19,1.38-1.31,2.19-2,3.27-.25.4-.79.27-1.09-.05s.13-.57.27-.84.83-.39.63-1c.26.07.34-.18.51-.29a.4.4,0,0,0,.42-.41l.3-.55a.7.7,0,0,0,.64-.45Z"/><path class="cls-2" d="M72,67.75c.85-.18,1.56.31,2.37.06.39-.12.94.45,1,1.08s-.53.55-.83.63C73.49,69.78,72.75,69.25,72,67.75Z"/><path class="cls-3" d="M27.72,74.82a1.07,1.07,0,0,1-.32,0c-.38-.19-1-.08-1.09-.56,0-.26.51-.66.87-.83s.62-.28.4-.78c-.15-.32.13-.46.43-.43.5,0,.61-.29.73-.77a10.74,10.74,0,0,1-.2,3c0,.37-.29.8-.83.42,0,0,.06,0,.08,0s0,0,0-.06Z"/><path class="cls-3" d="M31.52,66.56c-.23-.63.51-.84.78-1.26s.92-1,1.26-1.67c.11-.22.24-.37.51-.21a.39.39,0,0,1,.19.56,14.69,14.69,0,0,1-2.11,3.07.51.51,0,0,1-.63.07C31.31,67,31.41,66.81,31.52,66.56Z"/><path class="cls-3" d="M37.48,65.27c.3,0,.41.24.44.52-.79.79-.83,1.91-1.25,2.86-.19.42-.3.92-.89.71s-.21-.63-.19-1c.06-1.18,1.42-1.71,1.31-2.92h0A.52.52,0,0,0,37.48,65.27Z"/><path class="cls-3" d="M26.9,54.56c.32.58-.14.75-.5,1-1,.06-1.73.75-2.64,1-.27.07-.54.15-.63-.2s.09-.66.26-.66C24.69,55.68,25.62,54.56,26.9,54.56Z"/><path class="cls-3" d="M39.22,66l.21.05a.54.54,0,0,0,.37.62c-.27.19-.19.5-.24.75-.73.46-.55,1.37-1,2-.23.29-.2,1-.7.78s-.19-.77,0-1.18a8.37,8.37,0,0,0,1-2.81l.06-.06A.24.24,0,0,0,39.22,66Z"/><path class="cls-3" d="M26.71,56.43l.49-.21h.62c.38.77-.26,1-.73,1.2a8,8,0,0,0-2,1.2c-.36,0-.93.31-1-.2s.48-.72.85-.9C25.52,57.2,26.25,57.06,26.71,56.43Z"/><path class="cls-3" d="M28.66,59.87a2.94,2.94,0,0,0,.46-.25c.26-.19.54-.43.84-.12a.58.58,0,0,1-.11.93c-1,.11-1.37,1-2,1.6-.25.23-.43.55-.82.38a.7.7,0,0,1-.34-.41c-.13-.41.31-.43.5-.62C27.67,60.88,28.45,60.66,28.66,59.87Z"/><path class="cls-3" d="M48.4,68.71c0-.33,0-.55,0-.78a.39.39,0,0,1,.39-.44c.22,0,.3.16.37.34a8.23,8.23,0,0,1,.37,3c0,.26-.06.64-.49.6s-.41-.35-.44-.66C48.54,70.08,48.46,69.34,48.4,68.71Z"/><path class="cls-3" d="M25.7,51.51a14.67,14.67,0,0,0-3.05.91c-.37.17-.77.26-.93-.22s.17-.58.61-.66c.79-.14,1.56-.4,2.34-.62.54-.14,1-.08,1,.59Z"/><path class="cls-3" d="M68.85,47l.47-.08a3.72,3.72,0,0,0,2.33.23,1.41,1.41,0,0,1,.86,0,.56.56,0,0,1,.35.64c0,.23-.31.33-.53.31-1-.09-2.07-.18-3.1-.29C68.67,47.73,68.79,47.32,68.85,47Z"/><path class="cls-2" d="M72.43,21.58a5.27,5.27,0,0,1,.9.3c.21.1.34.28,0,.49-.71.5-1.4,1-2.11,1.51-.2.14-.43.15-.52-.15C70.56,23.11,71.78,21.51,72.43,21.58Z"/><path class="cls-3" d="M27.36,58.43a2.53,2.53,0,0,1,1.18-.64.33.33,0,0,0,.34.26c0,.18,0,.36.05.53a9.7,9.7,0,0,0-2.49,1.62c-.26.19-.57.51-.87.29-.49-.34.16-.61.17-.93l.46-.33a.25.25,0,0,0,.28-.24.33.33,0,0,1,.14,0c.25.08.39,0,.43-.28h0A.25.25,0,0,0,27.36,58.43Z"/><path class="cls-3" d="M22.24,54.46c.09-.52.49-.7.91-.85l2.29-.82c.21-.07.45-.19.6.06s0,.4-.2.56A11.55,11.55,0,0,1,22.24,54.46Z"/><path class="cls-3" d="M35.78,64.58a.27.27,0,0,0,.14.14A7.11,7.11,0,0,0,35,67.11c0,.55-.44.74-.83.92s-.67-.11-.55-.42C34.08,66.43,34.41,65.12,35.78,64.58Z"/><path class="cls-3" d="M21.4,49.27c1,.24,2-.2,3-.21.29,0,.67-.09.71.32s-.35.27-.57.31a17.18,17.18,0,0,0-2.37.49c-.85.3-1-.12-1.1-.78Z"/><path class="cls-3" d="M70.91,54.73a11.45,11.45,0,0,1-3-1.3.43.43,0,0,1-.2-.35c0-.25.27-.27.43-.22a13.11,13.11,0,0,1,3.06.9c.26.16.52.33.41.69S71.13,54.64,70.91,54.73Z"/><path class="cls-3" d="M50.59,67.05l.41.23a13.5,13.5,0,0,1,.73,3c.08.33.13.82-.34.94s-.55-.33-.64-.62A4.5,4.5,0,0,1,50.59,67.05Z"/><path class="cls-3" d="M40.22,67.81a.88.88,0,0,1,.05-.15c.32-.08.47-.23.27-.56.14-.22.3-.46.61-.34s.38.48.31.83c-.62.65-.24,1.55-.59,2.27-.11.23-.12.53-.28.71a.7.7,0,0,1-.59.2c-.23-.06-.18-.36-.15-.57C40,69.4,40.1,68.61,40.22,67.81Z"/><path class="cls-3" d="M46.29,68.23c0-.42,0-.86.66-.81a11.41,11.41,0,0,1,.25,3.73c0,.27-.06.55-.43.5s-.34-.19-.34-.47C46.41,70.2,46.34,69.22,46.29,68.23Z"/><path class="cls-3" d="M31.28,62c-.74-.12-1,.52-1.42.9-.27.25-.49.55-.75.81s-.45.49-.73.15,0-.55.24-.75c.56-.53,1.12-1.07,1.69-1.59.22-.2.39-.56.71-.48s.08.6.29.86A.1.1,0,0,1,31.28,62Z"/><path class="cls-2" d="M66.72,70.64c.61.61,1.62.73,2,1.61.17.43.35.74-.53.66C66.6,72.77,66.78,71.7,66.72,70.64Z"/><path class="cls-3" d="M75.76,39.47c.76.93,0,1.8.07,2.69,0,.48-.52.44-.77.31-.44-.23-1.18.11-1.33-.56-.09-.42.39-.59.69-.45,1,.44.66-.59,1-.83C74.92,40,75.89,40,75.76,39.47Z"/><path class="cls-3" d="M42.28,68.29c0-.26.11-.52.16-.78a.45.45,0,0,0,.35-.44l.35,0c.21,1.08-.39,2.1-.22,3.17,0,.37,0,.74-.41,1-.61-.12-.49-.56-.41-1A6.31,6.31,0,0,0,42.28,68.29Z"/><path class="cls-3" d="M52.26,66.88c.28-.31.54-.22.78.05-.08,1,.54,1.77.59,2.69,0,.37.3,1-.21,1.06s-.61-.52-.59-1A15,15,0,0,0,52.26,66.88Z"/><path class="cls-3" d="M44.75,67.38c.65,0,.52.47.52.87-.1.87-.19,1.75-.28,2.62,0,.3,0,.66-.47.56a.54.54,0,0,1-.4-.69A17.32,17.32,0,0,1,44.75,67.38Z"/><path class="cls-2" d="M82.94,49.76C81,51.05,80.73,51,80,49.45,81.05,49,81.87,50.08,82.94,49.76Z"/><path class="cls-2" d="M36.45,72.06a.86.86,0,0,0,.21.07.91.91,0,0,0,.14.38c.22.21.8-.07.74.54s-.56.57-1,.66-.71.16-.77.62C35.13,73.68,35.4,72.72,36.45,72.06Z"/><path class="cls-2" d="M65.55,18.57c-.07.31,0,1-.47,1A1.2,1.2,0,0,1,64,18.26c0-.41.05-1,.5-1A1.05,1.05,0,0,1,65.55,18.57Z"/><path class="cls-2" d="M79.44,30.9a.74.74,0,0,1-.6.82c-1.17,0-2,.79-2.87,1.29-.19.1-.37.14-.48,0a.44.44,0,0,1,0-.4c.29-.37.6-.91,1.06-.89,1.06,0,1.87-.68,2.86-.77Z"/><path class="cls-3" d="M77.08,76.8a.92.92,0,0,1,.24-1.49,11.76,11.76,0,0,0,1.31-1.14c.23-.2.43-.3.63,0s.09.47-.19.72C78.41,75.55,77.4,75.83,77.08,76.8Z"/><path class="cls-3" d="M71.68,81.07c0,.41.07,1-.47,1s-.8-.64-.85-1.11a.77.77,0,0,1,.74-.83C71.76,80.12,71.73,80.59,71.68,81.07Z"/><path class="cls-3" d="M17.38,33.86c.23.47,1.08.22,1.13,1,0,.31-.14.82-.43.72-.52-.18-1.17-.39-1.38-1C16.58,34.25,17,34,17.38,33.86Z"/><path class="cls-3" d="M14.44,39.51h2.15a.51.51,0,0,1,.52.59c0,.47-.39.34-.66.32A5.2,5.2,0,0,1,14.44,39.51Z"/><path class="cls-2" d="M21.66,17.14c0,.2.22.59-.2.69s-.66-.29-.9-.55-.21-.55.29-.57c.15,0,.16-.26,0-.35s-.74-.24-.46-.76c0,0,.12,0,.18,0,0,.63,1.17.11,1,1A2.64,2.64,0,0,0,21.66,17.14Z"/><path class="cls-3" d="M63.06,72.3c0,.38,0,.77-.46.74s-1.06-.23-1.1-.84a.66.66,0,0,1,.73-.67C62.62,71.59,63.15,71.7,63.06,72.3Z"/><path class="cls-3" d="M31.93,18.43c0,.33,0,.77-.47.68s-.89-.39-.85-.87c0-.27.14-.77.66-.75S31.94,18,31.93,18.43Z"/><path class="cls-2" d="M16.66,49.68a1.39,1.39,0,0,1-.43-1.61c0-.31.72,0,1.11-.08.18,0,.39,0,.43.23a.4.4,0,0,1-.24.46C17.08,48.86,16.66,49,16.66,49.68Z"/><path class="cls-2" d="M68.5,48.86a.93.93,0,0,0,0,.83c0,.82-1.11,1-1,2.2C66.94,50.41,67.36,49.44,68.5,48.86Z"/><path class="cls-3" d="M46.28,76.51c0-.54,0-1,.57-1s.63.44.59.87.05,1.12-.61,1.09C46.33,77.43,46.28,76.85,46.28,76.51Z"/><path class="cls-2" d="M20.19,33.47c-1.51.58-2,.45-2.7-.79A6.33,6.33,0,0,1,20.19,33.47Z"/><path class="cls-3" d="M31.4,71.56c.36,0,.52.14.53.44a.91.91,0,0,1-.8,1c-.45.07-.58-.37-.59-.65C30.52,71.82,31.12,71.81,31.4,71.56Z"/><path class="cls-3" d="M75.8,35.33c-.41,0-.76-.25-.68-.5.18-.6.81-.69,1.34-.8.29-.05.46.09.41.47C76.78,35.21,76.17,35.14,75.8,35.33Z"/><path class="cls-2" d="M42.08,14.13c.26-.52-.13-1.29.65-1.62.29.27.06.65.19.94s.35.73,0,1-.48-.35-.81-.21A.35.35,0,0,0,42.08,14.13Z"/><path class="cls-3" d="M57.28,73.74c.45.12.85.27.85.77s-.08.86-.46.89c-.6,0-.66-.6-.8-1A.5.5,0,0,1,57.28,73.74Z"/><path class="cls-3" d="M42.08,14.13a.35.35,0,0,1,0,.11.72.72,0,0,0-.09.2c-.1.42.07,1.16-.6,1.05s-.51-.81-.4-1.24C41.22,13.48,41.71,14.09,42.08,14.13Z"/><path class="cls-3" d="M15.81,45.71c-.34.1-.77.19-.77-.38s.49-.47.85-.47.8-.19.82.42C16.74,46.06,16.17,45.61,15.81,45.71Z"/><path class="cls-2" d="M74.06,70.55c.33.27.94,0,1.22.55-.55,0,.31.91-.37.71a3.2,3.2,0,0,1-1.35-1C73.39,70.66,73.79,70.59,74.06,70.55Z"/><path class="cls-3" d="M42,75.9c0,.45-.15.82-.66.81s-.45-.34-.41-.65.08-.91.56-1S42,75.51,42,75.9Z"/><path class="cls-2" d="M75.7,26.53c.3-1.08,1-1,1.61-1.08.36-.08.42.43.58.7s.19.25,0,.38a.24.24,0,0,1-.39,0C77.08,25.59,76.46,26,75.7,26.53Z"/><path class="cls-3" d="M66.47,21.07c.24-.25.41-.58.83-.57.08.5.39,1-.28,1.4s-.84.29-1.09-.26l.33-.35C66.42,21.3,66.48,21.22,66.47,21.07Z"/><path class="cls-2" d="M17,43.85c-.46,0-.64-.28-.8-.56a.41.41,0,0,1,0-.39c.32-.28.53,0,.76.18a.75.75,0,0,0,.2.1c.34.13,1-.54,1,.2C18.15,43.84,17.29,43.53,17,43.85Z"/><path class="cls-3" d="M73.47,30.41c-.43,0-.58-.22-.53-.49.13-.73.84-.59,1.31-.79.19-.08.5,0,.46.3C74.62,30.2,73.76,30,73.47,30.41Z"/><path class="cls-3" d="M35.81,74.33c.06-.46.4-.56.77-.62a.66.66,0,0,1,.05.7c-.12.36,0,1-.44,1C35.59,75.37,35.93,74.7,35.81,74.33Z"/><path class="cls-3" d="M36.91,16.26c0,.39-.22.72-.44.63a1.53,1.53,0,0,1-.88-1.3c0-.3.22-.4.45-.36C36.65,15.34,36.74,15.89,36.91,16.26Z"/><path class="cls-2" d="M66.25,51.69c.51,1.24,0,2-.76,2.89A4.49,4.49,0,0,1,66.25,51.69Z"/><path class="cls-3" d="M26.69,70.06c-.42,0-.56-.16-.5-.4.11-.49.28-1,.88-1.07.19,0,.65-.14.53.27A2.54,2.54,0,0,1,26.69,70.06Z"/><path class="cls-2" d="M32.7,14c0-.37.13-.55.41-.46.56.19.79.72,1.07,1.18.08.14-.09.48-.25.37C33.48,14.76,32.87,14.55,32.7,14Z"/><path class="cls-2" d="M42.51,71.22c.37-.21.38-.58.41-1,.29-.07.77-.64.65.28A2,2,0,0,1,42,72.35C42.05,71.89,42.64,71.7,42.51,71.22Z"/><path class="cls-3" d="M61.77,19.2c0-.45-.19-.93.17-1.34s.64-.61,1-.07C62.59,18.28,62.88,19.33,61.77,19.2Z"/><path class="cls-2" d="M19.6,46.09v-.35L21.26,45C21.42,45.91,20.79,46.32,19.6,46.09Z"/><path class="cls-3" d="M71.36,25.2c-.11.52-.54.66-1,.75-.26.06-.62-.07-.48-.38s.44-.87,1-.89C71.19,24.66,71.3,24.93,71.36,25.2Z"/><path class="cls-3" d="M16.21,51.28c-.46,0-.77-.14-.74-.59a.44.44,0,0,1,.63-.42c.29.16.95-.07.82.64C16.83,51.42,16.41,51.2,16.21,51.28Z"/><path class="cls-3" d="M23.87,65.1a1.29,1.29,0,0,1-1.06.9c-.22,0-.5-.14-.41-.39a1.21,1.21,0,0,1,1-.87A.36.36,0,0,1,23.87,65.1Z"/><path class="cls-3" d="M19.9,61.57c-.41,0-.64-.13-.66-.41,0-.67.7-.52,1-.86.15-.16.48.09.48.3C20.71,61.17,20.19,61.32,19.9,61.57Z"/><path class="cls-3" d="M27.51,21.41c0,.41,0,.71-.38.65s-.63-.49-.72-.88a.38.38,0,0,1,.41-.52A.83.83,0,0,1,27.51,21.41Z"/><path class="cls-3" d="M57.91,15.28c0,.65.08,1.4-.88,1.54h0c.14-.6-.09-1.42.88-1.55Z"/><path class="cls-3" d="M77.25,50.33c.5.06.92.17,1,.64.06.3-.27.38-.46.27-.41-.22-1.12.13-1.24-.5C76.49,50.27,77,50.41,77.25,50.33Z"/><path class="cls-2" d="M46.62,10.76A2.06,2.06,0,0,1,46.79,13C46.23,12.22,46.66,11.46,46.62,10.76Z"/><path class="cls-2" d="M21.4,49.27,21,49.4c.05-.43-.13-.88.19-1.37.3.3.73.3,1.08.43C22.23,49.12,21.52,48.82,21.4,49.27Z"/><path class="cls-2" d="M39.51,15.77c.13.71.59,1.35.22,2.16l-.52-2.11Z"/><path class="cls-3" d="M23.31,25.81a.73.73,0,0,1-.78-.77c0-.26.11-.42.41-.32s.74.35.8.81S23.48,25.79,23.31,25.81Z"/><path class="cls-2" d="M23.39,45.49c-.12.73-.41,1-.95.84-.08,0-.22-.14-.21-.18C22.39,45.61,22.92,45.76,23.39,45.49Z"/><path class="cls-2" d="M69.51,73.05l-.4-1.26C70.27,71.92,69.8,72.56,69.51,73.05Z"/><path class="cls-2" d="M70,39.58c-.1.27-.31.29-.55.27a.23.23,0,0,1-.23-.3.37.37,0,0,1,.42-.29C69.89,39.27,70,39.35,70,39.58Z"/><path class="cls-2" d="M32.85,62.13l-.33-.31c.38.09.27-.63.55-.42S33.07,61.92,32.85,62.13Z"/><path class="cls-2" d="M31.28,62a.1.1,0,0,0,0-.1c.32-.06.25.45.57.39l-.3.55A.84.84,0,0,1,31.28,62Z"/><path class="cls-2" d="M31.16,63.23c-.17.11-.25.36-.51.29-.14-.28-.16-.58.17-.69S31,63.1,31.16,63.23Z"/><path class="cls-3" d="M6.39,60.34c.06,0,.14,0,.16.08s0,.11-.07.17-.14,0-.16-.08S6.36,60.4,6.39,60.34Z"/><polygon class="cls-2" points="71.03 36.77 71.02 36.7 71.07 36.71 71.03 36.77"/><path class="cls-2" d="M67,52.52a1.11,1.11,0,0,1,.07.16l-.08.06a1.66,1.66,0,0,1-.06-.16S67,52.54,67,52.52Z"/><path class="cls-2" d="M70.15,24.29l-.06-.09.13-.07a.19.19,0,0,1,0,.1S70.18,24.27,70.15,24.29Z"/><path class="cls-3" d="M54.81,69.43l-.2.18-.06-.12.28,0Z"/><polygon class="cls-3" points="21.45 53.54 21.48 53.49 21.44 53.53 21.45 53.54"/><path class="cls-2" d="M79.45,30.91l.1-.1s0,.06,0,.06-.06,0-.09,0Z"/><path class="cls-3" d="M76.31,65.85l.1,0-.07.06,0-.1Z"/><path class="cls-1" d="M77,14.1c-.15,0-.23-.12-.19-.29s0,0,.08-.05l.1.35Z"/><path class="cls-1" d="M19.63,43.72a5.41,5.41,0,0,1,.06-2.8,14.14,14.14,0,0,1,1.42-4.73,1.54,1.54,0,0,0,1.71.47c.27-.07.67-.32.77.05s-.34.47-.67.5l-.44,0c.29.85.29.85-1,1L23,39h0c-.14,1-1.05.11-1.45.62.33.65,1.06.82,1.61,1.22,1.07.79,1.07,1.25-.1,1.87A18.72,18.72,0,0,1,19.63,43.72Z"/><path class="cls-1" d="M22.23,33.49a9,9,0,0,1,2.28-4c0,.06.07.16.13.18,1.37.44.83,1.44.29,1.91-.77.68-.31,1,.07,1.44a3.41,3.41,0,0,1,.29.48Z"/><path class="cls-1" d="M25.42,28.23A10.68,10.68,0,0,1,28.2,25.1c.14.4-.45.91.22,1.27.18.1.52.58.17.82a.73.73,0,0,1-1.08-.12c-.08-.12-.1-.28-.23-.29-.68.21.88,1.35-.57,1.2C26.52,29.34,25.79,27.81,25.42,28.23Z"/><path class="cls-3" d="M52.14,15.65c-.33-.14-.67-.39-.58-.7s0-1.1.79-1.11c.28,0,.49.19.4.39C52.55,14.69,52.76,15.35,52.14,15.65Z"/><path class="cls-1" d="M29.88,23.59a3.92,3.92,0,0,1,1.66-1.27,2.51,2.51,0,0,0,.39,1.11A3.28,3.28,0,0,1,29.88,23.59Z"/><path class="cls-1" d="M56,65.43c-.11.53.43,1.33-.24,1.57s-.8-.88-1.38-1.14c.11-.17.27-.55.41-.37C55.24,66.09,55.58,65.52,56,65.43Z"/><path class="cls-1" d="M21.41,35.13a1.46,1.46,0,0,1,.5-1c.48.25,1,.49,1.43.76.13.07.34.21.23.43s-.28.11-.46.07C22.55,35.3,22,35.23,21.41,35.13Z"/><path class="cls-1" d="M28.37,25a.57.57,0,0,1,.62-.44c.13.27.26.58-.1.76S28.51,25.11,28.37,25Z"/><path class="cls-1" d="M37.48,65.27a.52.52,0,0,1-.59.13c-.11-.23-.08-.42.18-.49S37.44,65,37.48,65.27Z"/><path class="cls-1" d="M29.42,24c0-.26.13-.38.38-.38C29.89,24,29.81,24.17,29.42,24Z"/><path class="cls-1" d="M42.79,67.07a.45.45,0,0,1-.35.44c0-.12-.13-.26-.1-.34S42.62,67,42.79,67.07Z"/><path class="cls-1" d="M27.82,56.22H27.2C27.41,55.74,27.61,55.72,27.82,56.22Z"/><path class="cls-1" d="M40.54,67.1c.2.33.05.48-.27.56A.45.45,0,0,1,40.54,67.1Z"/><path class="cls-1" d="M39.8,66.63a.54.54,0,0,1-.37-.62C40.08,65.91,39.75,66.38,39.8,66.63Z"/><path class="cls-1" d="M27.05,58.67c0,.25-.18.36-.43.28C26.64,58.67,26.77,58.55,27.05,58.67Z"/><path class="cls-1" d="M23,39l.08-.17c.17.17,0,.13-.09.16Z"/><path class="cls-1" d="M26.48,59a.25.25,0,0,1-.28.24C26.17,59,26.25,58.91,26.48,59Z"/><path class="cls-1" d="M27.36,58.43a.25.25,0,0,1-.32.25C27,58.42,27.13,58.36,27.36,58.43Z"/><path class="cls-1" d="M28.88,58.05a.33.33,0,0,1-.34-.26C28.81,57.68,28.9,57.79,28.88,58.05Z"/><path class="cls-1" d="M35.55,21.5l.09,0-.08-.05Z"/><path class="cls-1" d="M66.47,21.07c0,.15,0,.23-.21.22C66.23,21.11,66.3,21,66.47,21.07Z"/><path class="cls-1" d="M39.22,66a.24.24,0,0,1-.36.12C38.92,65.87,39,65.81,39.22,66Z"/><path class="cls-1" d="M73.51,59.84a1.58,1.58,0,0,0-.48.3c-.56.64-1,.48-1.39-.18a2.14,2.14,0,0,0-1.42-1.28c-.56-.12-.52-.74-.79-1.11-.11-.15.15-.39.32-.34.48.17,1.14,0,1.42.5C71.7,58.72,73,58.77,73.51,59.84Z"/><path class="cls-1" d="M75.16,59.7c-.18.45-.16.69.25.78s.58.4.31.73a.58.58,0,0,1-.89,0,2,2,0,0,1-.58-1.41c0-.38.08-.69.53-.67S75.23,59.47,75.16,59.7Z"/><path class="cls-1" d="M70.49,63.62l0-.07,0,.06Z"/><path class="cls-1" d="M68.69,60l.1.08-.06,0,0-.07Z"/><path class="cls-1" d="M89.55,45.27a57,57,0,0,1-.87,8.7c-.13.59-.23,1-1,.83s-1-.59-.76-1.25a20.22,20.22,0,0,0,.81-5.83A41.58,41.58,0,0,0,86.68,35.4,65.77,65.77,0,0,0,84,27.64c-.23-.57-.38-1,.42-1.31s.78.37,1,.78a34,34,0,0,1,2.83,8.08A43.6,43.6,0,0,1,89.55,45.27Z"/><path class="cls-1" d="M26.83,81.09c0-.24.07-.46.38-.41.07,0,.19.16.17.21-.1.27-.36.16-.57.18Z"/><path class="cls-1" d="M74.91,51.29c-.11.33-.16.74-.6.81a.32.32,0,0,1-.38-.4c.1-.37.16-.85.58-1S74.83,51.05,74.91,51.29Z"/><path class="cls-1" d="M76.54,53.76c0-.18,0-.38.27-.37,0,0,.08,0,.08.07,0,.26-.19.26-.36.29Z"/><path class="cls-1" d="M68.82,41.33c.2,0,.27.05.26.16s0,.31-.12.38-.24,0-.23-.18A1.72,1.72,0,0,1,68.82,41.33Z"/><path class="cls-1" d="M27.72,74.82l.09-.11s0,.05,0,.06-.05,0-.08,0Z"/></g></g></svg>