<svg xmlns="http://www.w3.org/2000/svg" viewBox="0 0 481.92 145.57"><defs><style>.cls-1{fill:#6099d3;}.cls-2{fill:#14141d;}.cls-3{fill:#fefefe;}.cls-4{font-size:140px;fill:#fff;font-family:Lato-Light, Lato;font-weight:300;}</style></defs><g id="Layer_2" data-name="Layer 2"><g id="Layer_1-2" data-name="Layer 1"><path class="cls-1" d="M357.8,71.58a32.74,32.74,0,0,1-1.1,9.4,45.08,45.08,0,0,1-3.93,10.64c-.32.61-.59.79-1.18.43s-.76.08-.68.56.28,1,.38,1.51a.45.45,0,0,1-.34.52c-.23,0-.23-.22-.32-.37-.26-.43-.13-.94-.31-1.51a.89.89,0,0,0-.23,1.08c.85,1.56-.19,2.64-1,3.72a36.35,36.35,0,0,1-5.08,5.87,48.52,48.52,0,0,1-7,5.75,51.84,51.84,0,0,1-7.84,4.13c-.74.31-1,.1-1.13-.59-.29-1.37.05-2,1.41-2.6a.93.93,0,0,0,.45-1.47,42.79,42.79,0,0,1-3-6.65c-.27-.77-.83-.6-1.37-.41-1.56.56-3.08,1.21-4.67,1.67a18.25,18.25,0,0,1-7.26,1c-1.21-.14-1.72.37-1.72,1.58,0,2.19.06,4.39,0,6.58-.06,1.18.72,1.42,1.43,1.25,1.82-.43,3.64-.13,5.45-.22.33,0,.36.21.46.37.39.67,0,1.46.28,2.18.11.28-.41.36-.69.39a45.7,45.7,0,0,1-8.35.51,1.59,1.59,0,0,0-.22-2,4.09,4.09,0,0,0,0,1.94c-1.36,0-2.74.17-4-.5-.25-.13-.68.18-1,0a13.69,13.69,0,0,1,0-2.64c-.33.82-1.05,1.54-.55,2.53a8.68,8.68,0,0,1-3.51-.5,47.78,47.78,0,0,1-20.4-10.64,38.67,38.67,0,0,1-4.16-4.51c-.36-.42-.24-.89-.28-1.36s0-1.36-1-.93c-.49.21-.66-.17-.87-.47a40.61,40.61,0,0,1-5.49-10.19q-1.07-3-1.89-6A43.13,43.13,0,0,1,265.78,67a46.84,46.84,0,0,1,4-15.53,41.5,41.5,0,0,1,3.27-5.86c.27-.41.4-.5.8-.09,1,1,1.25.94,1.88-.34a3.43,3.43,0,0,0,.36-.68c.17-.89.68-.6,1-.2a3,3,0,0,0,1.57,1.14c.4.14.58.44.4,1-.41,1.18-.34,1.22.93,1,.22-.42-.83-.35-.34-.82s.92.24,1.39.32.53.49.33.89a8.73,8.73,0,0,1-.5.74,1,1,0,0,0,.1,1.31c.38-.56,1.19,1.07,1.42-.28,0-.21.23-.26.43-.26a.38.38,0,0,1,.42.41c0,.8.31.67.78.27.85-.72.8-1.35-.21-1.78-.41-.18-.41-.64-.78-.88a9,9,0,0,0-1.47-1c-.46-.19-1-.45-.86-1.2s.33-1.44.85-1.43,1.64.33,1.81,1c.26,1,1,.8,1.6,1,.22.09.61-.11.67.24.17,1,.68.74,1.23.38.26-.18.81-.07.78-.47a1.65,1.65,0,0,0-.58-.92c-.36-.31-.59.11-.85.28a1.19,1.19,0,0,1-.29.12c-.06-.07-.15-.16-.14-.18a1.57,1.57,0,0,0,0-1.92,1.61,1.61,0,0,0-1.9.19c-.18.16-.47.32-.7.09s.1-.38.17-.57c.28-.71,0-1.55.56-2.23a7.14,7.14,0,0,1,2.1-1.87,11.5,11.5,0,0,0,2.37-2c.41-.37.14-.72-.1-1.08-.55-.81-1.46-1.39-1.64-2.44,0-.06.09-.11.13-.16a3.62,3.62,0,0,1,1.69,1.72c.47.82,1.44,1.43.3,2.79a2.16,2.16,0,0,1,2.35.48c.31.22.48.33.67-.06s.16-.57-.31-.61a.87.87,0,0,1-.85-.59,8.31,8.31,0,0,0-3.46-4.4c-.7-.47-.63,0-.58.47l-.17.14c-1.65.12-2.63,1.33-3.62,2.4s-2,1.48-2.71,2.59a.3.3,0,0,1-.48.08c-.28-.25-.07-.46.12-.65a28.68,28.68,0,0,1,2.37-2c.84-.7,1.62-1.49,2.5-2.16A29.49,29.49,0,0,1,289,30.62a2.86,2.86,0,0,1,.74-.15h0c.58,1.21,1.06,2.47,1.75,3.61A7.43,7.43,0,0,1,293,37c0,.22,0,.5.27.55.61.11.52.78.91,1.06s-.22,1.12.54,1.07c.38,0,.7-.59,1.1-.7,1.11-.3,1.09-1.66,2.1-2.08.69-.28,1.41-.38,2.1-.62,1.93-.68,2.06-1,1.24-2.92a2.17,2.17,0,0,1-.15-1.93c.41,1,.78,1.85,1.1,2.71.18.49.34.72.95.53A31.06,31.06,0,0,1,310.57,33c.62,0,1-.45,1-1.3-.06-1.82-.43-3.6-.65-5.39-.2-1.59-.22-1.61,1.35-1.65a58.84,58.84,0,0,1,7.5.65,4.06,4.06,0,0,1,.72.24c-.1,1.14-.1,1.14.82,1.08,0-.49-.55-.66-.7-1.08a2.19,2.19,0,0,1,1.45.33c.1.61.21,1.22.34,2a2.08,2.08,0,0,0,.44-1.82,24.94,24.94,0,0,1,5.23,1.61A51.33,51.33,0,0,1,335.21,31a46.08,46.08,0,0,1,7.26,5.48c-.49.47-.54,1.22-1.06,1.68-.18.16-.44.39-.2.65s.35-.12.52-.21.33.07.46.27c.27.42.36.1.43-.15h0c.62,0,.92-.63,1.47-.76a20.74,20.74,0,0,1,4.06,4.41A45.41,45.41,0,0,1,355,54.63a16.73,16.73,0,0,1,.43,1.69c-.79-.2-.8.45-1,.9a.88.88,0,0,1-.47-.72c-.32-2.33-1.61-4.26-2.56-6.33-.18-.39-.34-.62-.79-.61-1.43,0-2.7,1.82-2.05,3A35.13,35.13,0,0,1,351.74,62a41.14,41.14,0,0,1,.64,11.77c-.14,1.79-.48,3.53-.78,5.29-.1.56,0,.85.66,1,2.09.47,2.52,1.47,3.05-1.77a51.29,51.29,0,0,0,0-16.77c-.23-1.42-.94-2.74-.9-4.21.47,0,.86-.15.92-.71.66.26.56.93.7,1.42a38.76,38.76,0,0,1,1.71,11.76c-.77,0-.6.75-.7,1.16S357.4,71.54,357.8,71.58ZM307.74,38.89c.33-.14.57.39.81.21s.17-.66,0-1,.1-.66-.2-.93c-.78.32-.39,1.1-.65,1.61-.37,0-.86-.64-1.06.12-.11.44-.12,1.17.4,1.25.68.11.51-.63.6-1A.72.72,0,0,1,307.74,38.89Zm37.34,16.67c-1,.09-1.8.8-2.85.76-.47,0-.77.53-1.07.9a.47.47,0,0,0,0,.4c.11.18.3.14.48,0,.93-.5,1.71-1.28,2.87-1.29a.74.74,0,0,0,.6-.82s.07,0,.09,0,0,0,0-.06ZM301.44,99c.12.38-.22,1,.39,1.08.43,0,.31-.63.43-1a.68.68,0,0,0-.05-.71c.41-.09.9,0,1-.65s-.52-.33-.74-.54a.91.91,0,0,1-.14-.38c1.73.42,3.34,1.28,5.13,1.5a12.34,12.34,0,0,0,2.46.46c1.48-.17,3,.47,4.44-.16a2,2,0,0,1,.87-.11c.45,0,1.17-.13.83.8-.1.28-.12.66.4.53.25-.07.55-.2.6.19s-.32.31-.54.42-.69.3-.51.76a5.81,5.81,0,0,0,2.35.07,1.09,1.09,0,0,0-.13-1.35c-.27-.32-.32-1.08-1-.76-.3.14-.36.11-.46-.13s0-.54.31-.57a27.21,27.21,0,0,0,3.45-1,27.72,27.72,0,0,0,6.37-2.76,28.23,28.23,0,0,0,3.37-2.25c.84-.58,1.23-.35,1.41.66a3.23,3.23,0,0,0,0,.44,1.45,1.45,0,0,0,1,1.12c.55.14.71-.34.85-.79s.72-.45,1.06-.53,0,.49.22.68c1.51-.68,1.53-.69.64-2.07-.26-.39,0-.85-.33-1.31l-.5,1.72a1.13,1.13,0,0,1-.09-1.21c.1-.21.17-.51-.07-.6-1.4-.51,0-1.36-.26-2,.37-.1.54-.82,1.11-.34.25.21.57.08.87.07h0c-.08.34,0,.69-.31,1a.8.8,0,0,0,.58,1.41c.93-.13,1.82.17,2.73,0,.29-.06.67-.13.71-.43.12-1,.69-.43,1.13-.39s.51.66,1,.64l0,.1.07-.07-.1,0c-.05-.45-.29-1,.58-.88.7.11.88-.94,1.65-.78a.74.74,0,0,0,.19-.47,11,11,0,0,1,.05-2.57c0-.16.16-.54-.21-.44s-.49.32-.61-.07a.84.84,0,0,1,.29-.88c1-1.06,1.05-1.67,0-2.68-.3-.29-.29-.73-.69-1.1a2.71,2.71,0,0,1-1.14,1.65c-.41.35-.85.59-1.3.28s0-.68.05-1c.1-.64.55-.47.95-.32.23.08.44.12.56-.14a.54.54,0,0,0-.16-.71,1.48,1.48,0,0,0-1.35-.25c-.56.18-1.34,1.16-1.67-.27,0,0-.17-.1-.18-.09-.55.71-1.39-.36-2,.34a.72.72,0,0,1-.93-.06,1.49,1.49,0,0,0-1.36-.29,4.38,4.38,0,0,1-1.53-.24c-.24-.06-.46-.57-.7-.11s.2.64.49.74a4.61,4.61,0,0,1,1.4.88.57.57,0,0,1,.13.8c-.2.27-.45.1-.7,0a5.25,5.25,0,0,0-1.12-.48c-.38-.08-.87-.55-1.09-.22-.32.5.43.54.64.84s.48.41.61.62c.43.76,2,.72,1.5,2.12l0,0c-.93-1.3-2.54-1.18-3.76-2-.13.61.22.73.47.94A6.64,6.64,0,0,1,333.56,87a.91.91,0,0,1-.48,1.12c-.39.23-.69,0-.94-.32s0-.7.34-.85c.82-.4,0-.8-.1-.85a11.31,11.31,0,0,1-2.26-1.61c-.2-.14-.39-.46-.65-.19s0,.49.17.67.7.72.34,1.14-.82,0-1.19-.2-.55-.52-.87-.2.26.41.31.68c.08.45.61,1,.22,1.34s-.55-.4-.91-.5a1.86,1.86,0,0,1-.2-.1c-.23-.1-.46-.36-.71-.16s-.09.47,0,.72c.34,1,1.26,1.51,1.79,2.34a.73.73,0,0,0,.83.4c.47-.1.42-.49.35-.8s0-.68.44-.68.81-.17,1,.25-.22.56-.51.69a.71.71,0,0,0-.47.79c0,.26,0,.54-.21.72-1,.71-1.93,1.48-3,2.11a29.93,29.93,0,0,1-3.8,1.9,25.89,25.89,0,0,1-6.53,2c-1.89.3-3.79,0-5.65.21-2.71.24-5.2-.56-7.68-1.28a18.17,18.17,0,0,1-5.11-2.61c-2.19-1.51-4.39-2.93-6-5.33-1.42-2.15-3.18-4.12-4.48-6.4a4.41,4.41,0,0,1-.52-3c.06-.33-.19-.56-.08-.84l0,0,0,0c-1,0-1.07-.74-1.16-1.42s-.15-1.21-.28-1.82c-.28-1.38-.95-2.75-.4-4.22,1.18.24,1.82-.18,1.66-1.13l-1.67.79c-.34-.34-.24-.68,0-1,.65-.54,1.57-.28,2.27-.77s1.5-.37,1.87.62a1.18,1.18,0,0,0,.29.58c.65.51.43,1,0,1.5-.59.67-.35.78.39.92.49.1,1.22.24,1,1.14-.11.42.23.52.62.58.67.11,1.2.67,1.05,1.22a1.21,1.21,0,0,1-1.4,1c-.07-.67-.49-.73-1-.59-.78.22-1.55.48-2.34.62-.44.08-.76.18-.6.66s.55.39.92.22a15.53,15.53,0,0,1,3.05-.92c.1.15.09.46.3.42,1-.15.71,1.34,1.64,1.18a1,1,0,0,1-.17.94c-.18.19-.38.35-.57.52-1.28,0-2.21,1.12-3.5,1.13-.18,0-.34.39-.27.66s.37.27.63.2c.91-.27,1.65-1,2.64-1-.16.39-.26.76.31.9-.45.63-1.19.77-1.83,1.09-.37.18-.92.51-.85.9s.66.2,1,.2c.05.43.44.63.68.93,0,.33-.66.6-.17.94.3.21.61-.1.88-.29a9.36,9.36,0,0,1,2.49-1.62c.22.34-.1.45-.27.59s-.32.46,0,.7c-.21.79-1,1-1.49,1.51-.19.19-.63.21-.5.62a.7.7,0,0,0,.34.41c.39.17.57-.15.83-.38.64-.57,1-1.49,2-1.61.09.54.47.38.77.31s.7-.25.85,0c.63.85,1.11.29,1.63-.08.26-.19.78-.12.74-.06-.38.57,1.07,1,.11,1.59-.28.18.15.44.46.51s.61-.44,1-.27c0,.75.48,1.42.32,2.2-1.37.54-1.7,1.85-2.16,3-.12.3.19.58.55.42s.79-.37.84-.92a6.88,6.88,0,0,1,.91-2.39c.49,0,.34.9,1,.67.11,1.21-1.25,1.74-1.31,2.92,0,.42-.44.83.19,1.05s.71-.3.89-.71c.43-1,.47-2.07,1.25-2.86l.88.34a8.33,8.33,0,0,1-.95,2.82c-.18.41-.44,1,0,1.18s.48-.49.7-.79c.45-.59.27-1.51,1-2,.16.24.31.5.67.43-.13.8-.26,1.59-.38,2.39,0,.21-.08.5.15.57a.73.73,0,0,0,.6-.2c.15-.18.16-.48.27-.71.35-.72,0-1.63.59-2.27.28.23.37.67.82.7a6.22,6.22,0,0,1-.18,2c-.08.4-.2.84.41,1,.14.48-.46.67-.55,1.13a2,2,0,0,0,1.61-1.8c.12-.92-.36-.36-.65-.28-.17-1.08.43-2.09.23-3.17.58-.21,1.07.13,1.6.28a18.16,18.16,0,0,0-.63,3.35.54.54,0,0,0,.4.7c.44.1.44-.26.47-.56.09-.87.19-1.75.28-2.62a1.34,1.34,0,0,0,1,0c.05,1,.12,2,.14,3,0,.28.11.43.35.47s.42-.23.42-.5a11.14,11.14,0,0,0-.25-3.73c.37-.2.41-.21.46,0,.13.6.22,1.21.32,1.81a13.38,13.38,0,0,0,.37-2c0-.3.35-.86.52-.64.6.78,1.35.15,2,.37a4.47,4.47,0,0,0,.16,3.55c.1.3.2.75.64.63s.42-.61.34-.95a13.55,13.55,0,0,0-.73-3c.55.27.87-.18,1.27-.4a15.86,15.86,0,0,1,.56,2.84c0,.44,0,1.06.59.95s.24-.68.22-1c0-.92-.68-1.73-.6-2.69.28,0,.62,0,.61-.45,0-.31.2-.45.5-.47a5.77,5.77,0,0,0,.68,3.43l-.28,0,.06.11.2-.17c.08.07.19.13.24.23.18.37.51.65.87.55s.15-.65.3-1c.23-.49-.42-.52-.51-.88s-.35-.59.12-.83.72-.16.91.27.21.63.37.92.34.66.76.37.35-.54.07-.86a7.52,7.52,0,0,1-.89-1.65c-.25-.46-.35-1.12-1.08-1.14-.08-.25.11-.42.2-.61s-.1-.75.36-.67.1.49.12.75.08.2.35.2a5.23,5.23,0,0,0,.26-4.21,14.26,14.26,0,0,1-.58-3.35A8.47,8.47,0,0,0,321.4,78c-1.11-1.9,0-3.48.09-5.41.46.65.06,1.29.53,1.78.45-.5,0-1.21.49-1.7.33.56,0,1.21.43,1.75.24-.5-.24-.86.1-1.17.6.11.45.7.67,1.07a1.65,1.65,0,0,0,1-2.51c.54,0,.86,1,1.36.16a1.43,1.43,0,0,1,2-.68c.12.06.27.12.39,0,.15-.52-.57-.66-.52-1.23,1.09.14,1.52-1.33,2.72-1,.3.07.33-.36.31-.61,0-.62.14-1.24-.34-1.82a2.64,2.64,0,0,0-1.63-.78.82.82,0,0,1,.91-.44c1.22.43,1.27-.22,1.3-1.15,0-.3-.3-1.61.93-.78.24.16.44-.22.68-.29.5-.15,1.07-.35,1.05.56,0,.18.08.36.33.32.34-.28.13-1,.24-1,1.38.55.61-.34.6-.8s.35-.49.71-.49.41-.42.19-.5c-1.45-.49-.28-.93,0-1.4s.72-.44.64-1c-.74.05-1.46.05-2.2.15a2.85,2.85,0,0,0-2.46,1.53c-.4.84-1,.53-1.51.42s-.67-.68-.43-1.26a12,12,0,0,1,3.22-5c.63-.52,1.11-1.16.49-2.09a18.11,18.11,0,0,0-2.35-2.89c-1.29-1.26-1.56-2.4.23-3.28.26.55.52.62,1.09.26s.37-.9.28-1.4c.85-1.08,2.16-1.79,2.53-3.26.06-.25.25-.52,0-.71s-.33.19-.51.25a3.13,3.13,0,0,0-1.77,1.42c-.57,1-1.64,1.46-2.39,2.29a3.83,3.83,0,0,1-1.37,1.21c-.23.09-.37.35-.68.15A6.62,6.62,0,0,1,327.1,45c-.35-.42.41-.72.3-1.18,1.11.13.82-.92,1.2-1.42.18,0,.37.24.56-.09.51-.86.34-2.09,1.47-2.62.19-.09.12-.41,0-.61s-.29-.4-.53-.29A8.63,8.63,0,0,0,328,40.33a4.65,4.65,0,0,0-1.06,1.89c-.15.47-.63,1.23-1.23,1a5.81,5.81,0,0,1-3-1.75c1-.14.84-.89.88-1.55.49,0,.73-.43,1.07-.71.75-.63.5-1.72,1.17-2.34a1.71,1.71,0,0,0,.43-1.61c-1.48.22-2.38,1.28-3.44,2.06.36.58.83-.07,1.28.06a6.23,6.23,0,0,0-.51,2.54c-1,.13-.74.94-.88,1.55-.21.05-.43-.11-.64.06a2.23,2.23,0,0,1-2.32.08,1.19,1.19,0,0,1-.89-1.4,11.76,11.76,0,0,1,.54-2c.42-1.81-.56-3.33-.83-5-1.93,1.1-2,1.29-.91,3.24a.74.74,0,0,1,0,.42,15.38,15.38,0,0,1-1.4,3.32c-.12.28-.71.66-1.11,1s-.37,0-.46-.36c-.16-.58.23-1.22-.29-1.94-.15,1.05-1.33,1.21-1.39,2.26.07-.62,0-1.14-.7-1.16-1.34,0-.42,1.39-1.16,1.84a.74.74,0,0,0-.64-.65c-.32-.07-.71-.33-.49-.77a.76.76,0,0,0-.58-1.17c-.47-.06-.58.56-.61,1a3,3,0,0,1-1.12,2.18c-.27.23-.67,1.07-.88-.1,0-.24-.53-.24-.67.12s0,.53-.1.77,0,.77-.42.86-.49-.36-.67-.62-.23-.49-.61-.36l-.11,1.89c-.55-.5-.9-1.61-1.51-.24-.15.34-1.3-.1-1.18-.46.31-.9-.38-1.22-.64-1.78a5.05,5.05,0,0,0-2.24-2.31c-.15.95.6,1.34.91,1.92s1.06.64.48,1.41c-.11.15.11.72.39.6.64-.26.46.17.54.47a5.09,5.09,0,0,1,.2,1.65v0c-.52-.63-1.6-.61-1.71-1.63-.56.35.3,1.17-.64,1.25-.37-.23-.62-.43-1.16-.1a24.47,24.47,0,0,0-5.81,4.74A30.27,30.27,0,0,0,286.1,60a27.53,27.53,0,0,0-1.76,12c.09,1.18.3,2.36.3,3.54,0,1.34.7,2.47.9,3.77a12.31,12.31,0,0,0,1.8,4,32.87,32.87,0,0,0,5,6.79c.55.55,1.19,1,1.72,1.57a18.72,18.72,0,0,0,4.73,3.43c1.06.63,2.28.9,3.3,1.59C301,97.37,300.76,98.33,301.44,99Zm-4.5-12.44c-.21-.26.16-.75-.29-.86s-.49.28-.7.48c-.58.52-1.14,1-1.7,1.59-.21.2-.49.43-.24.75s.53.06.74-.15.47-.57.74-.81c.42-.38.68-1,1.42-.9a.85.85,0,0,0,.3.84.39.39,0,0,1-.42.41c-.13-.13-.05-.5-.34-.4s-.31.41-.17.69c.2.6-.45.64-.63,1s-.57.52-.26.84.83.45,1.09,0c.69-1.08,1.81-1.89,2-3.27.22-.21.58-.47.22-.74s-.17.52-.55.43a.69.69,0,0,1-.64.45C297.19,87,297.26,86.47,296.94,86.53ZM286.65,74.05c.08.66.25,1.08,1.1.78a17.18,17.18,0,0,1,2.37-.49c.23,0,.62.09.58-.31s-.43-.33-.71-.32c-1,0-1.95.45-2.95.21.11-.45.82-.15.88-.81-.35-.13-.78-.13-1.07-.43C286.52,73.17,286.7,73.62,286.65,74.05Zm6.71,25.42,0,0c.54.38.82,0,.83-.42a10.74,10.74,0,0,0,.2-3c-.12.48-.23.82-.73.77-.3,0-.57.11-.43.43.22.5,0,.59-.4.78s-.89.57-.87.83c.05.47.71.37,1.09.56A1.14,1.14,0,0,0,293.36,99.47ZM334.48,71.6c-.06.37-.18.78.39.85,1,.11,2.06.2,3.09.29a.46.46,0,0,0,.53-.31.57.57,0,0,0-.34-.64,1.45,1.45,0,0,0-.87,0,3.72,3.72,0,0,1-2.33-.23c.07-.35-.07-.76.28-1,.58-.46.28-1,.08-1.49a2.1,2.1,0,0,1,.74-2.87c-.5-.71-1.63-.53-1.91-1.46L333,67.17c-.5-.32,0-1-.59-1.22-.09.37-.07.75-.26,1a1.82,1.82,0,0,0,0,2.71.54.54,0,0,1,.06.42c-.27.92-.19,1,.85.91-.36.73-.56,1.43.46,1.81C333.39,71.16,333.39,71.16,334.48,71.6Zm7.69,6.81h0c.42.69,1.23.86,1.85,1.26.45.29.85-.16,1.06-.68s-.14-1.31.13-2c0-.06-.18-.33-.24-.31-.63.17-1.49-.53-1.93.48-.11.25-.61.57-.6.27,0-.94-1.05-1.06-1.16-1.81a1.44,1.44,0,0,0-1.47-1.21,8.92,8.92,0,0,1-1.73-.28c-1.3-.28-2.62-.45-3.94-.66-1.14.58-1.56,1.55-1,3-.11-1.18,1-1.39,1-2.2a10.6,10.6,0,0,1,2.3.43c.47,0,1,.16.86.77s-.69.46-1.09.4c-.62-.08-1.23-.27-1.85-.39a.46.46,0,0,0-.56.27c-.08.24.13.32.31.38a16,16,0,0,0,2.73.86,7.23,7.23,0,0,1,2.55.29A13.94,13.94,0,0,1,342.17,78.41Zm-49.71,27.33v0c0,.37.37.76-.19,1.06a.39.39,0,0,0-.1.66c.37.37.38.59-.14.81a.33.33,0,0,0,0,.56c.3.2.18-.34.3-.27.39.22.44-.14.62-.3,1-.86,1.14-2.08,1.52-3.23-.65,0-2-.84-1.92-1.3.13-.85-.41-1.62-.18-2.49.16-.58-.49-.64-.84-.83-.18-.1-.67-.32-.67-.07,0,.91-1.12,1.27-.91,2.23-.6-.11-1.21-.87-1.58,0-.18.42-.09.33-.48.19-.57-.2-.83.41-1.08.84-.1.16-.11.47.1.45,1.4-.1,1,.6.66,1.35a.5.5,0,0,0,.05.43c.42.46.3.82-.11,1.21-.23.22-.33.61-.05.8s.44-.19.6-.42.43-1.21,1-.6,1.21.48,1.67,1c.27.33.53.08.66-.36A2.45,2.45,0,0,1,292.46,105.74ZM274.79,85.1c.23-.8-.32-1.31-.54-1.9-.51.24-1.15-.32-1.57.19s-.05.91.08,1.37c.08.29.66.5.25.84a2,2,0,0,0-.93,1.87c0,.14-.28.32-.05.46a.59.59,0,0,0,.52,0c1.62-1,3.46-1.54,5-2.56,1.38-.92,3-1.3,4.3-2.31a.3.3,0,0,1,.29,0c.87.47,1.26.34,1.25-.77,0-.85,1.38-.35,1.43-1.27a.57.57,0,0,0,0-.22c-.2-.81-.75-1-1.55-.6s-1.64.8-2.4,1.29c-.45.29-1,.19-1.44.37-.75.3-1.45.91-2.41.79-.33,0-1.14.47-1,.92C276.44,84.82,275.44,84.77,274.79,85.1Zm50.47,8.28c.71-.5.52-1.06.33-1.63a.71.71,0,0,1,.2-.9c.42-.31.47.15.65.33a.62.62,0,0,0,.8.18c.29-.2.18-.54,0-.8q-.6-.93-1.23-1.83c-.2-.27-.45-.55-.83-.48s-.18.49-.29.74,0,.67-.53.47c-.27-.12-.45-.65-.82-.28s-.15.82,0,1.25C323.89,91.54,324.89,92.24,325.26,93.38Zm23.79-22c1.4-.64,1.67-1.44.8-2.37-.21.24.23.76-.3.82-.37,0-.46-.34-.52-.62a1.66,1.66,0,0,0-2.34-1.51c-.26.07-.74.26-.65.29.73.25-.24,1.41.76,1.38C348.62,69.29,349.12,69.72,349.05,71.35Zm.48-4.14a3.87,3.87,0,0,1,.05-2.2c.18-.83-.28-1.66-.94-1.54s-1.55-.16-1.81.4c-.19.4-.14,1.55.35,1.7C348.11,65.87,348.49,66.79,349.53,67.21ZM344.3,73.5c-.1-1-.46-1.71-.19-2.48s.22-1.47-.73-1.77c-.22-.07,0-.6-.56-.4s-.67.82-.85,1.31c-.11.3,0,.75.3.73.91-.08.75.73.71,1C342.83,73,343.51,73.14,344.3,73.5Zm-68-5.32c-.45,0-.9-.08-1.29-.07a8.6,8.6,0,0,0-3.2.14c-.46.18-.95.45-.32,1C272.63,70.24,275.53,69.62,276.3,68.18Zm22.78,38.95c.1,0,.15.06.17.05a16.09,16.09,0,0,0,3.47-4.15.37.37,0,0,0-.05-.29.67.67,0,0,0-.4.05C300.74,103.89,299.27,105,299.08,107.13Zm38.51-14.74c.79,1.5,1.53,2,2.55,1.78.31-.08.91,0,.83-.63s-.62-1.2-1-1.08C339.15,92.71,338.45,92.22,337.59,92.39Zm-40.43-1.18c-.12.24-.22.44,0,.56a.52.52,0,0,0,.63-.07,14,14,0,0,0,2.11-3.07.39.39,0,0,0-.18-.56c-.28-.17-.4,0-.52.21-.34.62-.87,1.11-1.25,1.67C297.66,90.36,296.92,90.57,297.16,91.21ZM314,93.35c.06.64.14,1.37.21,2.11,0,.31,0,.63.43.66s.49-.34.49-.6a8,8,0,0,0-.37-3c-.07-.18-.15-.35-.37-.34a.39.39,0,0,0-.39.44Zm24-47.12c-.66-.07-1.88,1.53-1.69,2.15.08.3.31.29.51.15.71-.49,1.4-1,2.11-1.51.3-.21.17-.39,0-.5A6.54,6.54,0,0,0,338.07,46.23ZM287.88,79.11a11.57,11.57,0,0,0,3.59-1c.18-.16.34-.33.2-.56s-.38-.14-.59-.06l-2.3.81C288.36,78.41,288,78.59,287.88,79.11Zm48.66.27c.23-.09.55.06.66-.28s-.16-.53-.42-.69a12.65,12.65,0,0,0-3.06-.9c-.16-.06-.41,0-.43.22a.46.46,0,0,0,.2.35A11.45,11.45,0,0,0,336.54,79.38Zm-4.19,15.91c.07,1.06-.11,2.13,1.45,2.27.88.08.7-.23.53-.66C334,96,333,95.9,332.35,95.29Zm9-31.17c.13.48-.84.53-.32,1.16-.36.23,0,1.27-1,.83-.3-.14-.79,0-.7.45.15.67.89.33,1.33.56.25.12.8.17.77-.31C341.4,65.92,342.15,65,341.39,64.12Zm7.18,10.28c-1.06.33-1.89-.78-2.9-.3C346.36,75.67,346.65,75.7,348.57,74.4ZM331.18,43.22A1.05,1.05,0,0,0,330.12,42c-.45,0-.46.53-.5.95a1.18,1.18,0,0,0,1.09,1.27C331.15,44.26,331.11,43.53,331.18,43.22Zm11.54,58.23c.31-1,1.32-1.25,2-1.87.27-.26.37-.4.18-.72s-.4-.24-.62,0A15.49,15.49,0,0,1,343,100C342.3,100.4,342.32,100.88,342.72,101.45Zm-5.41,4.27c.05-.48.08-1-.58-.91a.77.77,0,0,0-.74.83c.05.47.21,1.14.85,1.11S337.32,106.13,337.31,105.72ZM283,58.51c-.4.16-.79.39-.68.7.21.59.86.8,1.39,1,.28.1.44-.41.42-.72C284.09,58.73,283.25,59,283,58.51Zm-2.94,5.65a5.27,5.27,0,0,0,2,.91c.28,0,.64.15.66-.32a.51.51,0,0,0-.52-.59Zm7.22-22.38a3.28,3.28,0,0,1,0-.6c.17-.86-1-.34-1-1-.06,0-.15,0-.17,0-.29.52.19.56.45.76s.1.34,0,.35c-.5,0-.61.22-.28.57s.47.65.89.55S287.26,42,287.29,41.78ZM328.69,97c.1-.6-.44-.72-.82-.77a.67.67,0,0,0-.74.67c0,.61.57.8,1.11.84S328.69,97.33,328.69,97ZM297.56,43.08c0-.48,0-.92-.66-.94s-.64.48-.66.75c0,.48.41.79.85.87S297.55,43.41,297.56,43.08ZM282.29,74.33c0-.64.43-.82.88-1a.41.41,0,0,0,.24-.46c-.05-.24-.26-.26-.44-.23-.39.06-1.07-.23-1.11.07C281.8,73.17,281.6,73.82,282.29,74.33Zm29.62,26.83c0,.34,0,.92.56.94s.56-.64.6-1.09,0-.88-.59-.87S311.91,100.62,311.91,101.16Zm-26.09-43a6.25,6.25,0,0,0-2.7-.79C283.8,58.57,284.31,58.7,285.82,58.12ZM297,96.2c-.28.26-.88.27-.86.82,0,.28.14.72.59.65a.91.91,0,0,0,.8-1C297.55,96.35,297.39,96.17,297,96.2ZM341.43,60c.38-.19,1-.12,1.07-.83.05-.38-.12-.52-.41-.47-.53.11-1.16.2-1.34.8C340.67,59.73,341,60,341.43,60ZM322.92,98.39c-.31.09-.52.32-.41.64s.2,1,.8,1c.37,0,.46-.52.46-.88S323.36,98.51,322.92,98.39Zm-41.48-28c.36-.1.94.35.91-.43,0-.61-.51-.42-.83-.42s-.84-.06-.84.47S281.11,70.46,281.44,70.36ZM339.69,95.2c-.26,0-.67.11-.5.3a3.2,3.2,0,0,0,1.35,1c.68.2-.17-.68.37-.71C340.63,95.23,340,95.47,339.69,95.2Zm-32.05,5.34c0-.38,0-.83-.52-.79s-.51.56-.56,1,0,.64.41.65S307.64,101,307.64,100.54Zm33.69-49.36c.77-.51,1.38-.94,1.86,0a.23.23,0,0,0,.38,0c.14-.13,0-.27,0-.38-.17-.27-.23-.78-.59-.7C342.38,50.21,341.63,50.1,341.33,51.18ZM282.61,68.49c.31-.31,1.18,0,1.17-.46,0-.74-.67-.07-1-.2l-.2-.1c-.23-.15-.44-.46-.75-.18a.41.41,0,0,0,0,.39C282,68.22,282.14,68.52,282.61,68.49ZM339.1,55.06c.29-.43,1.16-.21,1.25-1,0-.29-.28-.38-.47-.3-.47.2-1.18.06-1.31.79C338.53,54.84,338.67,55.07,339.1,55.06ZM302.54,40.91c-.17-.37-.25-.93-.87-1-.23,0-.48.06-.44.36a1.5,1.5,0,0,0,.87,1.3C302.32,41.63,302.52,41.3,302.54,40.91Zm29.34,35.43a4.48,4.48,0,0,0-.76,2.89C331.87,78.3,332.4,77.58,331.88,76.34ZM292.32,94.71a2.54,2.54,0,0,0,.91-1.2c.12-.41-.34-.3-.53-.27-.6.08-.77.58-.88,1.07C291.77,94.54,291.9,94.74,292.32,94.71Zm6-56.06c.17.55.78.76,1.24,1.09.15.11.32-.23.24-.37-.28-.46-.51-1-1.07-1.18C298.46,38.1,298.33,38.28,298.33,38.65ZM337,49.85c-.05-.27-.17-.54-.46-.53-.55,0-.81.49-1,.9s.21.44.47.38C336.45,50.51,336.88,50.37,337,49.85ZM281.84,75.93c.21-.08.63.14.72-.38.12-.7-.54-.47-.83-.63a.43.43,0,0,0-.62.42C281.07,75.79,281.38,75.9,281.84,75.93Zm7.66,13.82a.35.35,0,0,0-.43-.36,1.21,1.21,0,0,0-1,.87c-.08.25.19.44.41.38A1.25,1.25,0,0,0,289.5,89.75Zm-4-3.53c.28-.25.8-.4.81-1,0-.21-.33-.46-.47-.3-.31.34-1.05.19-1,.86C284.89,86.09,285.12,86.25,285.54,86.22Zm7.6-40.16a.85.85,0,0,0-.69-.76.39.39,0,0,0-.41.53c.1.39.26.81.73.88S293.16,46.47,293.14,46.06ZM342.89,75c-.23.08-.77-.06-.68.41.12.63.83.28,1.23.5.2.11.52,0,.46-.27C343.8,75.15,343.38,75,342.89,75ZM312.26,35.41c0,.7-.4,1.45.16,2.25A2.06,2.06,0,0,0,312.26,35.41Zm-7.12,5-.3,0,.53,2.11C305.73,41.77,305.27,41.13,305.14,40.42ZM289,50.46c.17,0,.46.09.42-.28s-.41-.66-.8-.81-.42.06-.41.32A.73.73,0,0,0,289,50.46ZM289,70.14c-.47.27-1,.12-1.16.66,0,0,.13.16.21.18C288.61,71.11,288.9,70.87,289,70.14ZM335.14,97.7c.29-.49.76-1.13-.4-1.26Zm.53-33.47c0-.23-.15-.31-.36-.32a.37.37,0,0,0-.42.28.23.23,0,0,0,.24.3C335.36,64.52,335.58,64.5,335.67,64.23ZM272,85c0,.06-.08.13-.06.17s.1,0,.16.08.08-.13.06-.17S272.08,85,272,85Zm64.65-23.57,0-.06h-.05Zm-4,15.75s-.08,0-.08,0a1.22,1.22,0,0,0,.07.17s.07,0,.07-.06A.76.76,0,0,0,332.64,77.17Zm3.14-28.24s.07,0,.08,0,0-.06,0-.1l-.14.07Z"/><path class="cls-1" d="M319.14,109.76c.07.55-.21,1.11.26,1.61a.31.31,0,0,1-.29.53c-1.9-.18-3.74.58-5.65.28-.36-.05-.65-.1-.57-.46.36-1.52-.15-3,.14-4.6.32-1.7.15-1.66,1.81-1.78a55.31,55.31,0,0,0,6.58-.85,16,16,0,0,0,3.35-1.37c1.33-.6,1.69-.55,2,.73.31,1.5,1.31,2.61,1.78,4s.38,1.43-1.05,1.46a2.1,2.1,0,0,0-1,.25c-1,.55-2.11,1-3.18,1.43-.24.1-.54.22-.67-.11s.15-.41.34-.51.49-.16.72-.27a.38.38,0,0,0,.11-.29.16.16,0,0,0-.24-.13c-.15.08-.21.22-.43,0-.69-.65-1.16-.49-1.25.47-.06.6-.17,1-.8,1.1s-.92-.18-1.1-.78C319.83,110.19,319.42,110,319.14,109.76Z"/><path class="cls-1" d="M309.91,31.62c.14.33-.09.36-.33.37a19.71,19.71,0,0,0-5.5,1.36c-.57.2-.59-.19-.68-.44-.73-2.06-1.43-4.13-2.14-6.2-.21-.62.07-.91.65-1a32.7,32.7,0,0,1,6.23-.8c.31,0,.73-.12.8.36C309.28,27.37,309.59,29.5,309.91,31.62Z"/><path class="cls-1" d="M297.82,28c.18.68-.34,1.44.25,2.08.14.16.18.48.34.55,1.66.66,1.11,2.54,2,3.63a.61.61,0,0,1-.39.9,44.35,44.35,0,0,0-4.68,2.07c-.41.19-.62.17-.9-.24-1.08-1.59-1.72-3.44-2.91-5a.83.83,0,0,1,.2-1.35A20.58,20.58,0,0,1,297.83,28Z"/><path class="cls-1" d="M287.24,36.51c0,.24-.53.42-.84.6-1.48.89-2.35,2.4-3.65,3.44A20.49,20.49,0,0,0,279.8,44a.53.53,0,0,1-.66.24,1.48,1.48,0,0,1-.8-2.47c.33-.38.69-.82,1.26-.18a.75.75,0,0,0,1.25,0c.49-.58-.05-.82-.4-1-.57-.31-.51-.66-.16-1.05a23,23,0,0,1,3.24-3.3c.44-.33.89-.65,1.33-1s.61-.91,1.18-.55A2.38,2.38,0,0,1,287.24,36.51Z"/><path class="cls-1" d="M320.18,114.28c.37.28.87,1,1-.14,0-.36.5-.39.83-.47s.57-.14.6-.53-.08-.71.37-.64.26.48.32.75a2.3,2.3,0,0,1-2.94,2.76C319.92,115.9,319.88,115.58,320.18,114.28Z"/><path class="cls-1" d="M324.37,112.22c.48.1.32,1.55,1.18.18l.1,1.61c.32-.22.69-.71,1-.09s-.31.54-.59.72a1.19,1.19,0,0,1-.41.15c-.66.16-1.49.81-1.94.23s0-1.46.38-2.16C324.17,112.67,324.26,112.47,324.37,112.22Z"/><path class="cls-2" d="M342.62,38.75c-.07.25-.16.57-.43.15-.13-.2-.17-.42-.46-.27s-.29.45-.52.21,0-.49.2-.65c.52-.46.57-1.21,1.06-1.68L344.08,38c-.55.13-.85.75-1.47.76l-.1-.35s-.07,0-.08.05S342.48,38.71,342.62,38.75Z"/><path class="cls-2" d="M304.65,116.24c-.5-1,.22-1.71.55-2.53a13.69,13.69,0,0,0,0,2.64Z"/><path class="cls-2" d="M357.8,71.58c-.4,0-.81-.29-.73-.64s-.07-1.11.7-1.16Z"/><path class="cls-2" d="M322.84,26a2.08,2.08,0,0,1-.44,1.82c-.13-.74-.24-1.35-.34-2Z"/><path class="cls-1" d="M294.5,28.12a4.07,4.07,0,0,1-2.29,1A4.23,4.23,0,0,1,294.5,28.12Z"/><path class="cls-2" d="M310.27,116.88a4.09,4.09,0,0,1,0-1.94,1.59,1.59,0,0,1,.22,2Z"/><path class="cls-2" d="M355.36,56.6c-.06.56-.45.68-.92.71l0-.09c.19-.45.2-1.1,1-.9Z"/><path class="cls-2" d="M320.61,25.54c.15.42.67.59.7,1.08-.92.06-.92.06-.82-1.08Z"/><path class="cls-1" d="M286.67,33.34l-.23-.22.17-.14.19.2S286.71,33.28,286.67,33.34Z"/><path class="cls-1" d="M289.77,30.47l0-.1-.05.09Z"/><path class="cls-1" d="M297.83,28l.11-.09s0,.06,0,.07h-.09Z"/><path class="cls-2" d="M302.53,90c-.64.23-.49-.68-1-.67a.29.29,0,0,1-.15-.14c.16-.78-.35-1.45-.32-2.2-.44-.17-.66.35-1,.27s-.74-.33-.46-.51c1-.63-.49-1-.11-1.59,0-.06-.48-.13-.74.06-.52.37-1,.93-1.63.08-.15-.21-.56,0-.85,0s-.68.23-.77-.31a.57.57,0,0,0,.11-.92c-.3-.32-.58-.07-.84.12a4.09,4.09,0,0,1-.46.25c-.31-.24-.31-.45,0-.7s.49-.25.27-.59c0-.18,0-.35-.05-.53s-.08-.37-.35-.26a2.44,2.44,0,0,0-1.18.64c-.23-.07-.35,0-.32.25h0c-.28-.12-.41,0-.43.28a.33.33,0,0,0-.14,0c-.23-.08-.31,0-.28.24l-.46.32c-.24-.3-.63-.5-.68-.93a7.82,7.82,0,0,1,2-1.2c.47-.18,1.11-.43.73-1.2-.2-.5-.41-.48-.62,0l-.49.21c-.57-.14-.47-.51-.31-.9.36-.22.83-.4.5-1,.19-.17.39-.33.57-.52a1,1,0,0,0,.17-.94c-.93.16-.68-1.33-1.64-1.18-.21,0-.2-.27-.3-.42h0a1.21,1.21,0,0,0,1.4-1c.15-.55-.38-1.11-1.05-1.22-.39-.06-.73-.16-.62-.58.24-.9-.49-1-1-1.14-.74-.14-1-.25-.39-.92.4-.46.62-1,0-1.5a1.18,1.18,0,0,1-.29-.58c-.37-1-1.05-1.19-1.87-.62s-1.62.23-2.27.77c0-.33,0-.66,0-1a18.62,18.62,0,0,0,3.43-1.05c1.17-.62,1.18-1.08.1-1.87-.54-.4-1.28-.57-1.61-1.22.4-.51,1.31.39,1.45-.62.06,0,.26,0,.09-.16l-.08.17-1.58-.68c1.34-.19,1.34-.19,1-1l.44,0c.33,0,.79-.07.67-.5s-.5-.12-.77,0a1.54,1.54,0,0,1-1.71-.47l.3-1.06c.57.1,1.14.17,1.7.3.18,0,.35.15.46-.07s-.09-.36-.23-.43c-.46-.27-1-.51-1.43-.76l.32-.68h3.06a3.41,3.41,0,0,0-.29-.48c-.38-.46-.84-.76-.07-1.44.54-.47,1.09-1.47-.29-1.91,0,0-.08-.12-.12-.19l.9-1.25c.37-.41,1.1,1.12,1.3-.24,1.44.15-.12-1,.56-1.2.13,0,.15.17.23.29a.73.73,0,0,0,1.08.12c.35-.24,0-.72-.17-.82-.67-.37-.08-.87-.22-1.27l.18-.15c.14.16.25.44.51.32s.23-.49.1-.77l.43-.47c.39.14.47,0,.38-.38l.08-.06a3.36,3.36,0,0,0,2.05-.16,2.51,2.51,0,0,1-.39-1.11c.82,0,1.13-.79,1.67-1.22.94-.08.08-.9.64-1.25.11,1,1.19,1,1.71,1.63l.09.06-.1,0a5.09,5.09,0,0,0-.2-1.65c-.08-.3.1-.73-.54-.47-.28.12-.5-.45-.39-.6.58-.77-.23-1-.48-1.41s-1.06-1-.91-1.92a5.05,5.05,0,0,1,2.24,2.31c.26.56,1,.88.64,1.78-.12.36,1,.8,1.18.46.61-1.37,1-.26,1.51.24l.11-1.89c.38-.13.48.15.61.36s.27.71.67.62.34-.55.42-.86,0-.53.1-.77.63-.36.67-.12c.21,1.17.61.33.88.1a3,3,0,0,0,1.12-2.18c0-.44.14-1.06.61-1a.76.76,0,0,1,.58,1.17c-.22.44.17.7.49.77a.74.74,0,0,1,.64.65c.74-.45-.18-1.87,1.16-1.84.71,0,.77.54.7,1.16.06-1.05,1.24-1.21,1.39-2.26.52.72.13,1.36.29,1.94.09.34.19.55.46.36s1-.67,1.11-1a15.38,15.38,0,0,0,1.4-3.32.74.74,0,0,0,0-.42c-1.07-1.95-1-2.14.91-3.24.27,1.71,1.25,3.23.83,5a11.76,11.76,0,0,0-.54,2,1.19,1.19,0,0,0,.89,1.4,2.23,2.23,0,0,0,2.32-.08c.21-.17.43,0,.64-.06h0a5.81,5.81,0,0,0,3,1.75c.6.23,1.08-.53,1.23-1A4.65,4.65,0,0,1,328,40.33a8.63,8.63,0,0,1,2.13-1.51c.24-.11.42.09.53.29s.19.52,0,.61c-1.13.53-1,1.76-1.47,2.62-.19.33-.38.06-.56.1-.38-.54-.72-.29-1,.07s-.2.89-.17,1.34-.65.76-.3,1.18a6.62,6.62,0,0,0,1.65,1.47c.31.2.45-.06.68-.15a3.83,3.83,0,0,0,1.37-1.21c.75-.83,1.82-1.3,2.39-2.29A3.13,3.13,0,0,1,335,41.43c.18-.06.26-.45.51-.25s0,.46,0,.71c-.37,1.47-1.68,2.18-2.53,3.26-.42,0-.59.32-.82.57-.17,0-.25,0-.22.21l-.33.36c-1.79.88-1.52,2-.23,3.28a18.11,18.11,0,0,1,2.35,2.89c.62.93.14,1.57-.49,2.09a12,12,0,0,0-3.22,5c-.24.58-.15,1.13.43,1.26s1.11.42,1.51-.42a2.85,2.85,0,0,1,2.46-1.53c.74-.1,1.46-.1,2.2-.15.08.6-.45.7-.64,1s-1.44.91,0,1.4c.22.08.27.49-.19.5s-.72.06-.71.49.78,1.35-.6.8c-.11-.05.1.7-.23,1-.26,0-.34-.14-.34-.32,0-.91-.55-.71-1.05-.56-.24.07-.44.45-.68.29-1.23-.83-.92.48-.93.78,0,.93-.08,1.58-1.3,1.15a.82.82,0,0,0-.91.44,2.64,2.64,0,0,1,1.63.78c.48.58.3,1.2.34,1.82,0,.25,0,.68-.31.61-1.2-.28-1.63,1.19-2.72,1-.05.57.67.71.52,1.23-.12.16-.27.1-.39,0a1.43,1.43,0,0,0-2,.68c-.5.8-.82-.12-1.36-.16a1.65,1.65,0,0,1-1,2.51c-.22-.37-.07-1-.67-1.07-.34.31.14.67-.1,1.17-.45-.54-.1-1.19-.43-1.75-.49.49,0,1.2-.49,1.7-.47-.49-.07-1.13-.53-1.78-.05,1.93-1.2,3.51-.09,5.41a8.47,8.47,0,0,1,.91,4.23,14.26,14.26,0,0,0,.58,3.35,5.23,5.23,0,0,1-.26,4.21c-.27,0-.33-.07-.35-.2s.33-.67-.12-.75-.25.44-.36.67-.28.36-.2.61h0c-.39.09-.72.66-1.21.06-.14-.18-.3.2-.4.37l-.21.15c-.3,0-.5.16-.5.47,0,.46-.33.4-.61.45-.24-.27-.49-.37-.77,0s-.72.67-1.27.4l-.41-.23c-.62-.22-1.37.41-2-.37-.17-.22-.47.34-.52.64a13.38,13.38,0,0,1-.37,2c-.1-.6-.19-1.21-.32-1.81-.05-.25-.09-.24-.46,0-.62-.06-.62.39-.66.81a1.34,1.34,0,0,1-1,0c0-.4.13-.87-.52-.87-.53-.15-1-.49-1.6-.28l-.36,0c-.17,0-.36-.1-.44.1s.06.22.1.34l-.17.78c-.45,0-.54-.47-.82-.7.07-.35.09-.69-.31-.83s-.46.12-.6.34a.43.43,0,0,0-.27.56.3.3,0,0,0-.05.15c-.36.07-.51-.19-.67-.43.05-.26,0-.56.24-.75,0-.25.28-.72-.36-.62l-.22,0c-.19-.15-.3-.09-.36.12l-.06,0-.88-.34a.5.5,0,0,0-.44-.53c0-.22-.14-.41-.4-.35s-.3.26-.19.49ZM317.78,40.3c.61-.3.4-1,.61-1.43.08-.19-.13-.39-.41-.38-.75,0-.66.69-.78,1.11S317.45,40.16,317.78,40.3Z"/><path class="cls-3" d="M287,59.78l-.3,1.06a14.14,14.14,0,0,0-1.42,4.73,5.31,5.31,0,0,0-.05,2.8c0,.34,0,.67,0,1-.24.34-.34.68,0,1v.34c-.55,1.47.12,2.84.4,4.22.13.61.19,1.21.28,1.82s.15,1.47,1.16,1.42h0c-.11.28.14.51.08.84a4.41,4.41,0,0,0,.52,3c1.3,2.28,3.06,4.25,4.48,6.4,1.59,2.4,3.79,3.82,6,5.33a18.17,18.17,0,0,0,5.11,2.61c2.48.72,5,1.52,7.68,1.28,1.86-.17,3.76.09,5.65-.21a25.89,25.89,0,0,0,6.53-2,29.93,29.93,0,0,0,3.8-1.9c1-.63,2-1.4,3-2.11.25-.18.23-.46.21-.72a.71.71,0,0,1,.47-.79c.29-.13.73-.24.51-.69s-.66-.26-1-.25-.53.26-.44.68.12.7-.35.8a.73.73,0,0,1-.83-.4c-.53-.83-1.45-1.35-1.79-2.34-.08-.25-.23-.52,0-.72s.48.06.71.16a1.86,1.86,0,0,0,.2.1c.36.1.45.93.91.5s-.14-.89-.22-1.34c-.05-.27-.64-.34-.31-.68s.59,0,.87.2.81.65,1.19.2,0-.82-.34-1.14-.42-.42-.17-.67.45,0,.65.19a11.31,11.31,0,0,0,2.26,1.61c.12.05.92.45.1.85-.33.15-.7.37-.34.85s.55.55.94.32a.91.91,0,0,0,.48-1.12,6.64,6.64,0,0,0-2.51-3.42c-.25-.21-.6-.33-.47-.94,1.22.81,2.83.69,3.76,2,0,0,0,.06,0,.08l.05,0-.1-.08c.5-1.4-1.07-1.36-1.5-2.12-.13-.21-.43-.37-.61-.62s-1-.34-.64-.84c.22-.33.71.14,1.09.22a5.25,5.25,0,0,1,1.12.48c.25.12.5.29.7,0a.57.57,0,0,0-.13-.8,4.61,4.61,0,0,0-1.4-.88c-.29-.1-.69-.36-.49-.74s.46,0,.7.11a4.38,4.38,0,0,0,1.53.24,1.49,1.49,0,0,1,1.36.29.72.72,0,0,0,.93.06c.6-.7,1.44.37,2-.34,0,0,.17,0,.18.09.33,1.43,1.11.45,1.67.27a1.48,1.48,0,0,1,1.35.25.54.54,0,0,1,.16.71c-.12.26-.33.22-.56.14-.4-.15-.85-.32-.95.32-.05.34-.46.75-.05,1s.89.07,1.3-.28a2.71,2.71,0,0,0,1.14-1.65c.4.37.39.81.69,1.1,1,1,1,1.62,0,2.68a.84.84,0,0,0-.29.88c.12.39.36.13.61.07s.22.28.21.44a11,11,0,0,0-.05,2.57.74.74,0,0,1-.19.47c-.77-.16-.95.89-1.65.78-.87-.12-.63.43-.58.88h0c-.48,0-.54-.59-1-.64s-1-.61-1.13.39c0,.3-.42.37-.71.43-.91.19-1.8-.11-2.73,0a.8.8,0,0,1-.58-1.41c.31-.33.23-.68.31-1l0-.06,0,.07c-.3,0-.62.14-.87-.07-.57-.48-.74.24-1.11.34.27.64-1.14,1.49.26,2,.24.09.17.39.07.6a1.13,1.13,0,0,0,.09,1.21l.5-1.72c.29.46.07.92.33,1.31.89,1.38.87,1.39-.64,2.07-.24-.19.22-.78-.22-.68s-.91,0-1.06.53-.3.93-.85.79a1.45,1.45,0,0,1-1-1.12,3.23,3.23,0,0,1,0-.44c-.18-1-.57-1.24-1.41-.66a28.23,28.23,0,0,1-3.37,2.25,27.72,27.72,0,0,1-6.37,2.76,27.21,27.21,0,0,1-3.45,1c-.3,0-.45.25-.31.57s.16.27.46.13c.66-.32.71.44,1,.76a1.09,1.09,0,0,1,.13,1.35,5.81,5.81,0,0,1-2.35-.07c-.18-.46.23-.6.51-.76s.59,0,.54-.42-.35-.26-.6-.19c-.52.13-.5-.25-.4-.53.34-.93-.38-.75-.83-.8a2,2,0,0,0-.87.11c-1.46.63-3,0-4.44.16a12.34,12.34,0,0,1-2.46-.46c-1.79-.22-3.4-1.08-5.13-1.5a.68.68,0,0,1-.2-.07c-1-.69-2.24-1-3.3-1.59a18.72,18.72,0,0,1-4.73-3.43c-.53-.6-1.17-1-1.72-1.57a32.87,32.87,0,0,1-5-6.79,12.31,12.31,0,0,1-1.8-4c-.2-1.3-.9-2.43-.9-3.77,0-1.18-.21-2.36-.3-3.54a27.53,27.53,0,0,1,1.76-12,30.27,30.27,0,0,1,5.77-9.58,24.47,24.47,0,0,1,5.81-4.74c.54-.33.79-.13,1.16.1-.54.43-.85,1.17-1.67,1.22a3.9,3.9,0,0,0-1.66,1.27l-.08.06c-.25,0-.39.12-.38.38s-.28.32-.43.47a.58.58,0,0,0-.61.45l-.18.15a10.77,10.77,0,0,0-2.78,3.12l-.9,1.26a8.88,8.88,0,0,0-2.29,4l-.32.68A1.51,1.51,0,0,0,287,59.78Zm52.1,24.7c-.53-1.06-1.81-1.11-2.33-2.1-.29-.54-.95-.33-1.43-.5-.17,0-.43.19-.32.34.27.36.24,1,.79,1.1a2.18,2.18,0,0,1,1.42,1.29c.38.66.83.82,1.4.18A1.81,1.81,0,0,1,339.14,84.48Zm1.66-.13c.06-.23.13-.57-.38-.6s-.53.29-.54.67a2,2,0,0,0,.58,1.41.58.58,0,0,0,.89,0c.28-.32.13-.63-.3-.72S340.61,84.8,340.8,84.35Z"/><path class="cls-3" d="M354.4,57.22l0,.09c0,1.47.67,2.79.9,4.21a51.29,51.29,0,0,1,0,16.77c-.53,3.24-1,2.24-3.05,1.77-.63-.15-.76-.44-.66-1,.3-1.76.64-3.5.78-5.29A41.14,41.14,0,0,0,351.74,62a35.13,35.13,0,0,0-3.21-9.39c-.65-1.23.62-3,2.05-3,.45,0,.61.22.79.61.95,2.07,2.24,4,2.56,6.33A.88.88,0,0,0,354.4,57.22Zm.78,12.7a44.13,44.13,0,0,0-1.29-10.08,34.75,34.75,0,0,0-2.84-8.09c-.21-.4-.11-1.11-1-.77s-.65.73-.41,1.31a64,64,0,0,1,2.66,7.76,41.25,41.25,0,0,1,1.09,12.32,20.22,20.22,0,0,1-.81,5.83c-.22.66.12,1.07.76,1.25s.84-.24,1-.83A55.76,55.76,0,0,0,355.18,69.92Z"/><path class="cls-3" d="M292.46,105.74a2.45,2.45,0,0,0-1.09,1.73c-.13.44-.39.69-.66.36-.46-.54-1.17-.52-1.67-1s-.78.24-1,.6-.22.66-.6.42-.18-.58.05-.8c.41-.39.53-.75.11-1.21a.5.5,0,0,1-.05-.43c.37-.75.74-1.45-.66-1.35-.21,0-.2-.29-.1-.45.25-.43.51-1,1.08-.84.39.14.3.23.48-.19.37-.88,1-.12,1.58,0-.21-1,.9-1.32.91-2.23,0-.25.49,0,.67.07.35.19,1,.25.84.83-.23.87.31,1.64.18,2.49-.07.46,1.27,1.34,1.92,1.3-.38,1.15-.55,2.37-1.52,3.23-.18.16-.23.52-.62.3-.12-.07,0,.47-.3.27a.33.33,0,0,1,0-.56c.52-.22.51-.44.14-.81a.39.39,0,0,1,.1-.66c.56-.3.21-.69.19-1.06.2,0,.46.09.56-.19,0,0-.1-.19-.17-.2C292.53,105.28,292.48,105.5,292.46,105.74Z"/><path class="cls-3" d="M274.79,85.1c.65-.33,1.65-.28,1.21-1.57-.16-.45.65-1,1-.92,1,.12,1.66-.49,2.41-.79.48-.18,1-.08,1.44-.37.76-.49,1.6-.87,2.4-1.29s1.35-.21,1.55.6a.57.57,0,0,1,0,.22c-.05.92-1.45.42-1.43,1.27,0,1.11-.38,1.24-1.25.77a.3.3,0,0,0-.29,0c-1.3,1-2.92,1.39-4.3,2.31-1.54,1-3.38,1.61-5,2.56a.59.59,0,0,1-.52,0c-.23-.14.07-.32.05-.46A2,2,0,0,1,273,85.6c.41-.34-.17-.55-.25-.84-.13-.46-.44-1-.08-1.37s1.06,0,1.57-.19C274.47,83.79,275,84.3,274.79,85.1Z"/><path class="cls-3" d="M334.13,73.51c1.32.21,2.64.38,3.94.66a8.92,8.92,0,0,0,1.73.28,1.44,1.44,0,0,1,1.47,1.21c.11.75,1.17.87,1.16,1.81,0,.3.49,0,.6-.27.44-1,1.3-.31,1.93-.48.06,0,.27.25.24.31-.27.64.12,1.31-.13,2s-.61,1-1.06.68c-.62-.4-1.43-.57-1.85-1.26.18,0,.38,0,.36-.29,0,0,0-.07-.08-.07-.27,0-.25.19-.27.37a13.94,13.94,0,0,0-2.83-1.06,7.23,7.23,0,0,0-2.55-.29,16,16,0,0,1-2.73-.86c-.18-.06-.39-.14-.31-.38a.46.46,0,0,1,.56-.27c.62.12,1.23.31,1.85.39.4.06,1,.26,1.09-.4s-.39-.72-.86-.77a10.6,10.6,0,0,0-2.3-.43A.93.93,0,0,1,334.13,73.51Zm6.41,2.43c-.08-.24-.1-.63-.4-.55s-.48.59-.58,1a.32.32,0,0,0,.39.4C340.39,76.68,340.43,76.27,340.54,75.94Z"/><path class="cls-2" d="M334.48,71.6c-1.09-.44-1.09-.44-.94,1.18-1-.38-.82-1.08-.46-1.81-1,.11-1.12,0-.85-.91a.54.54,0,0,0-.06-.42,1.82,1.82,0,0,1,0-2.71c.19-.23.17-.61.26-1,.54.27.09.9.59,1.22l1.11-2.51c.28.93,1.41.75,1.91,1.46a2.1,2.1,0,0,0-.74,2.87c.2.44.5,1-.08,1.49-.35.28-.21.69-.28,1Zm0-5.62a1.79,1.79,0,0,0-.09.35c0,.14,0,.32.23.19a.58.58,0,0,0,.13-.38C334.72,66,334.65,65.93,334.45,66Z"/><path class="cls-3" d="M325.26,93.38c-.37-1.14-1.37-1.84-1.72-2.95-.14-.43-.35-.89,0-1.25s.55.16.82.28c.48.2.44-.24.53-.47s-.14-.65.29-.74.63.21.83.48q.63.9,1.23,1.83c.17.26.28.6,0,.8a.62.62,0,0,1-.8-.18c-.18-.18-.23-.64-.65-.33a.71.71,0,0,0-.2.9C325.78,92.32,326,92.88,325.26,93.38Z"/><path class="cls-3" d="M319.78,90.66l.21-.15c.57.26.57,1.42,1.38,1.13.66-.23.12-1,.23-1.56h0c.73,0,.83.68,1.08,1.14a7.52,7.52,0,0,0,.89,1.65c.28.32.27.63-.07.86s-.61-.08-.76-.37-.23-.62-.37-.92-.49-.49-.91-.27-.2.52-.12.83.74.39.51.88c-.15.33.16.85-.3,1s-.69-.18-.87-.55c-.05-.1-.16-.16-.24-.23h0A5.77,5.77,0,0,1,319.78,90.66Z"/><path class="cls-2" d="M286.8,33.18l-.19-.2c-.05-.45-.12-.94.58-.47a8.31,8.31,0,0,1,3.46,4.4.87.87,0,0,0,.85.59c.47,0,.47.29.31.61s-.36.28-.67.06a2.16,2.16,0,0,0-2.35-.48c1.14-1.36.17-2-.3-2.79A3.62,3.62,0,0,0,286.8,33.18Z"/><path class="cls-2" d="M323.54,39.92a6.23,6.23,0,0,1,.51-2.54c-.45-.13-.92.52-1.28-.06,1.06-.78,2-1.84,3.44-2.06a1.71,1.71,0,0,1-.43,1.61c-.67.62-.42,1.71-1.17,2.34-.34.28-.58.67-1.07.71Z"/><path class="cls-2" d="M349.05,71.35c.07-1.63-.43-2.06-2.25-2-1,0,0-1.13-.76-1.38-.09,0,.39-.22.65-.29A1.66,1.66,0,0,1,349,69.18c.06.28.15.67.52.62.53-.06.09-.58.3-.82C350.72,69.91,350.45,70.71,349.05,71.35Z"/><path class="cls-3" d="M349.53,67.21c-1-.42-1.42-1.34-2.35-1.64-.49-.15-.54-1.3-.35-1.7.26-.56,1.18-.29,1.81-.4s1.12.71.94,1.54A3.87,3.87,0,0,0,349.53,67.21Z"/><path class="cls-3" d="M344.3,73.5c-.79-.36-1.47-.55-1.32-1.59,0-.29.2-1.1-.71-1-.29,0-.41-.43-.3-.73.18-.49.18-1.06.85-1.31s.34.33.56.4c.95.3,1,.93.73,1.77S344.2,72.54,344.3,73.5Z"/><path class="cls-2" d="M276.3,68.18c-.77,1.44-3.67,2.06-4.81,1.07-.63-.55-.14-.82.32-1a8.6,8.6,0,0,1,3.2-.14C275.4,68.1,275.85,68.15,276.3,68.18Z"/><path class="cls-2" d="M299.08,107.13c.19-2.1,1.66-3.24,3.19-4.34a.67.67,0,0,1,.4-.05.37.37,0,0,1,.05.29,16.09,16.09,0,0,1-3.47,4.15S299.18,107.16,299.08,107.13Z"/><path class="cls-3" d="M298.48,86.78c-.19,1.38-1.31,2.19-2,3.27-.26.4-.8.26-1.09,0s.12-.57.26-.84.83-.39.63-1c.26.06.34-.18.51-.29a.39.39,0,0,0,.42-.41l.3-.55a.69.69,0,0,0,.64-.45Z"/><path class="cls-2" d="M337.59,92.39c.86-.17,1.56.32,2.38.07.38-.12.93.45,1,1.08s-.52.55-.83.63C339.12,94.43,338.38,93.89,337.59,92.39Z"/><path class="cls-3" d="M293.36,99.47a1.14,1.14,0,0,1-.33,0c-.38-.19-1-.09-1.09-.56,0-.26.51-.66.87-.83s.62-.28.4-.78c-.14-.32.13-.47.43-.43.5.05.61-.29.73-.77a10.74,10.74,0,0,1-.2,3c0,.37-.29.8-.83.42,0,0,.06,0,.08,0s0,0,0-.06Z"/><path class="cls-3" d="M297.16,91.21c-.24-.64.5-.85.78-1.26.38-.56.91-1,1.25-1.67.12-.23.24-.38.52-.21a.39.39,0,0,1,.18.56,14,14,0,0,1-2.11,3.07.52.52,0,0,1-.63.07C296.94,91.65,297,91.45,297.16,91.21Z"/><path class="cls-3" d="M303.11,89.91a.5.5,0,0,1,.44.53c-.78.79-.82,1.91-1.25,2.86-.18.41-.29.92-.89.71s-.21-.63-.19-1.05c.06-1.18,1.42-1.71,1.31-2.92h0A.52.52,0,0,0,303.11,89.91Z"/><path class="cls-3" d="M292.53,79.21c.33.57-.14.75-.5,1-1,0-1.73.75-2.64,1-.26.07-.54.15-.63-.2s.09-.66.27-.66C290.32,80.33,291.25,79.21,292.53,79.21Z"/><path class="cls-3" d="M304.85,90.61l.22,0a.54.54,0,0,0,.36.62c-.27.19-.19.49-.24.75-.73.45-.55,1.37-1,2-.22.3-.2,1-.7.79s-.19-.77,0-1.18a8.33,8.33,0,0,0,.95-2.82l.06,0A.24.24,0,0,0,304.85,90.61Z"/><path class="cls-3" d="M292.34,81.08l.49-.21h.62c.38.77-.26,1-.73,1.2a7.82,7.82,0,0,0-2,1.2c-.37,0-.94.31-1-.2s.48-.72.85-.9C291.15,81.85,291.89,81.71,292.34,81.08Z"/><path class="cls-3" d="M294.29,84.52a4.09,4.09,0,0,0,.46-.25c.26-.19.54-.44.84-.12a.57.57,0,0,1-.11.92c-1,.12-1.37,1-2,1.61-.26.23-.44.55-.83.38a.7.7,0,0,1-.34-.41c-.13-.41.31-.43.5-.62C293.3,85.53,294.08,85.31,294.29,84.52Z"/><path class="cls-3" d="M314,93.35v-.77a.39.39,0,0,1,.39-.44c.22,0,.3.16.37.34a8,8,0,0,1,.37,3c0,.26-.05.64-.49.6s-.41-.35-.43-.66C314.17,94.72,314.09,94,314,93.35Z"/><path class="cls-3" d="M291.33,76.15a15.53,15.53,0,0,0-3.05.92c-.37.17-.77.26-.92-.22s.16-.58.6-.66c.79-.14,1.56-.4,2.34-.62.54-.14,1-.08,1,.59Z"/><path class="cls-3" d="M334.48,71.6l.47-.08a3.72,3.72,0,0,0,2.33.23,1.45,1.45,0,0,1,.87,0,.57.57,0,0,1,.34.64.46.46,0,0,1-.53.31c-1-.09-2.06-.18-3.09-.29C334.3,72.38,334.42,72,334.48,71.6Z"/><path class="cls-2" d="M338.07,46.23a6.54,6.54,0,0,1,.89.29c.21.11.34.29,0,.5-.71.49-1.4,1-2.11,1.51-.2.14-.43.15-.51-.15C336.19,47.76,337.41,46.16,338.07,46.23Z"/><path class="cls-3" d="M293,83.08a2.44,2.44,0,0,1,1.18-.64.34.34,0,0,0,.35.26c0,.18,0,.35.05.53a9.36,9.36,0,0,0-2.49,1.62c-.27.19-.58.5-.88.29-.49-.34.16-.61.17-.94l.46-.32a.25.25,0,0,0,.28-.24.33.33,0,0,1,.14,0c.26.07.39,0,.43-.28h0A.25.25,0,0,0,293,83.08Z"/><path class="cls-3" d="M287.88,79.11c.08-.52.48-.7.9-.86l2.3-.81c.21-.08.44-.19.59.06s0,.4-.2.56A11.57,11.57,0,0,1,287.88,79.11Z"/><path class="cls-3" d="M301.41,89.23a.29.29,0,0,0,.15.14,6.71,6.71,0,0,0-.92,2.39c-.05.55-.45.74-.84.92s-.67-.12-.55-.42C299.71,91.08,300,89.77,301.41,89.23Z"/><path class="cls-3" d="M287,73.92c1,.24,2-.21,2.95-.21.28,0,.66-.09.71.32s-.35.27-.58.31a17.18,17.18,0,0,0-2.37.49c-.85.3-1-.12-1.1-.78Z"/><path class="cls-3" d="M336.54,79.38a11.45,11.45,0,0,1-3.05-1.3.46.46,0,0,1-.2-.35c0-.25.27-.28.43-.22a12.65,12.65,0,0,1,3.06.9c.26.16.52.32.42.69S336.77,79.29,336.54,79.38Z"/><path class="cls-3" d="M316.22,91.7l.41.23a13.55,13.55,0,0,1,.73,3c.08.34.13.83-.34.95s-.54-.33-.64-.63A4.47,4.47,0,0,1,316.22,91.7Z"/><path class="cls-3" d="M305.86,92.46a.3.3,0,0,1,.05-.15c.32-.08.47-.23.27-.56.14-.22.29-.46.6-.34s.38.48.31.83c-.62.64-.24,1.55-.59,2.27-.11.23-.12.53-.27.71a.73.73,0,0,1-.6.2c-.23-.07-.18-.36-.15-.57C305.6,94.05,305.73,93.26,305.86,92.46Z"/><path class="cls-3" d="M311.92,92.88c0-.42,0-.87.66-.81a11.14,11.14,0,0,1,.25,3.73c0,.27-.06.55-.42.5s-.34-.19-.35-.47C312,94.85,312,93.86,311.92,92.88Z"/><path class="cls-3" d="M296.91,86.63c-.74-.12-1,.52-1.42.9-.27.24-.48.55-.74.81s-.46.49-.74.15,0-.55.24-.75c.56-.54,1.12-1.07,1.7-1.59.21-.2.38-.56.7-.48s.08.6.29.86A.1.1,0,0,1,296.91,86.63Z"/><path class="cls-2" d="M332.35,95.29c.61.61,1.62.73,2,1.61.17.43.35.74-.53.66C332.24,97.42,332.42,96.35,332.35,95.29Z"/><path class="cls-3" d="M341.39,64.12c.76.92,0,1.8.07,2.69,0,.48-.52.43-.77.31-.44-.23-1.18.11-1.33-.56-.09-.42.4-.59.7-.45,1,.44.65-.6,1-.83C340.55,64.65,341.52,64.6,341.39,64.12Z"/><path class="cls-3" d="M307.91,92.94c.06-.26.11-.52.17-.78a.45.45,0,0,0,.34-.44l.36,0c.2,1.08-.4,2.09-.23,3.17,0,.36,0,.74-.41,1-.61-.12-.49-.56-.41-1A6.22,6.22,0,0,0,307.91,92.94Z"/><path class="cls-3" d="M317.9,91.53c.28-.32.53-.22.77,0-.08,1,.55,1.77.6,2.69,0,.37.3,1-.22,1s-.6-.51-.59-.95A15.86,15.86,0,0,0,317.9,91.53Z"/><path class="cls-3" d="M310.38,92c.65,0,.52.47.52.87-.09.87-.19,1.75-.28,2.62,0,.3,0,.66-.47.56a.54.54,0,0,1-.4-.7A18.16,18.16,0,0,1,310.38,92Z"/><path class="cls-2" d="M348.57,74.4c-1.92,1.3-2.21,1.27-2.9-.3C346.68,73.62,347.51,74.73,348.57,74.4Z"/><path class="cls-2" d="M302.09,96.71a.68.68,0,0,0,.2.07.91.91,0,0,0,.14.38c.22.21.81-.07.74.54s-.55.56-1,.65-.71.17-.77.62C300.76,98.33,301,97.37,302.09,96.71Z"/><path class="cls-2" d="M331.18,43.22c-.07.31,0,1-.47,1a1.18,1.18,0,0,1-1.09-1.27c0-.42.05-1,.5-.95A1.05,1.05,0,0,1,331.18,43.22Z"/><path class="cls-2" d="M345.07,55.55a.74.74,0,0,1-.6.82c-1.16,0-1.94.79-2.87,1.29-.18.1-.37.14-.48,0a.47.47,0,0,1,0-.4c.3-.37.6-.91,1.07-.9,1,0,1.86-.67,2.85-.76Z"/><path class="cls-3" d="M342.72,101.45c-.4-.57-.42-1,.24-1.49a15.49,15.49,0,0,0,1.31-1.14c.22-.2.42-.3.62,0s.09.46-.18.72C344,100.2,343,100.48,342.72,101.45Z"/><path class="cls-3" d="M337.31,105.72c0,.41.07,1-.47,1s-.8-.64-.85-1.11a.77.77,0,0,1,.74-.83C337.39,104.77,337.36,105.24,337.31,105.72Z"/><path class="cls-3" d="M283,58.51c.24.47,1.08.22,1.13,1,0,.31-.14.82-.42.72-.53-.18-1.18-.39-1.39-1C282.22,58.9,282.61,58.67,283,58.51Z"/><path class="cls-3" d="M280.07,64.16h2.15a.51.51,0,0,1,.52.59c0,.47-.38.34-.66.32A5.27,5.27,0,0,1,280.07,64.16Z"/><path class="cls-2" d="M287.29,41.78c0,.21.22.6-.2.7s-.66-.3-.89-.55-.22-.55.28-.57c.15,0,.17-.26,0-.35s-.74-.24-.45-.76c0,0,.11,0,.17,0,.05.63,1.18.11,1,1A3.28,3.28,0,0,0,287.29,41.78Z"/><path class="cls-3" d="M328.69,97c0,.38.05.77-.45.74s-1.07-.23-1.11-.84a.67.67,0,0,1,.74-.67C328.25,96.23,328.79,96.35,328.69,97Z"/><path class="cls-3" d="M297.56,43.08c0,.33,0,.77-.47.68s-.89-.39-.85-.87c0-.27.15-.78.66-.75S297.57,42.6,297.56,43.08Z"/><path class="cls-2" d="M282.29,74.33c-.69-.51-.49-1.16-.43-1.62,0-.3.72,0,1.11-.07.18,0,.39,0,.44.23a.41.41,0,0,1-.24.46C282.72,73.51,282.29,73.69,282.29,74.33Z"/><path class="cls-2" d="M334.13,73.51a.93.93,0,0,0,0,.83c0,.81-1.11,1-1,2.2C332.57,75.06,333,74.09,334.13,73.51Z"/><path class="cls-3" d="M311.91,101.16c0-.54,0-1,.57-1s.63.44.59.87.05,1.12-.6,1.09S311.92,101.5,311.91,101.16Z"/><path class="cls-2" d="M285.82,58.12c-1.51.58-2,.45-2.7-.79A6.25,6.25,0,0,1,285.82,58.12Z"/><path class="cls-3" d="M297,96.2c.36,0,.52.15.53.45a.91.91,0,0,1-.8,1c-.45.07-.58-.37-.59-.65C296.15,96.47,296.75,96.46,297,96.2Z"/><path class="cls-3" d="M341.43,60c-.41,0-.76-.25-.68-.5.18-.6.81-.69,1.34-.8.29,0,.46.09.41.47C342.41,59.86,341.81,59.79,341.43,60Z"/><path class="cls-2" d="M307.71,38.77c.26-.51-.13-1.29.65-1.61.3.27.06.65.2.93s.34.74,0,1-.48-.35-.81-.21A.27.27,0,0,0,307.71,38.77Z"/><path class="cls-3" d="M322.92,98.39c.44.12.84.26.85.77s-.09.86-.46.88c-.6,0-.67-.59-.8-1S322.61,98.48,322.92,98.39Z"/><path class="cls-3" d="M307.71,38.77a.27.27,0,0,1,0,.12.72.72,0,0,0-.09.2c-.09.42.08,1.16-.6,1-.52-.08-.51-.81-.4-1.25C306.85,38.13,307.34,38.74,307.71,38.77Z"/><path class="cls-3" d="M281.44,70.36c-.33.1-.76.19-.76-.38s.48-.48.84-.47.8-.19.83.42C282.38,70.71,281.8,70.26,281.44,70.36Z"/><path class="cls-2" d="M339.69,95.2c.33.27.94,0,1.22.55-.54,0,.31.91-.37.71a3.2,3.2,0,0,1-1.35-1C339,95.31,339.43,95.24,339.69,95.2Z"/><path class="cls-3" d="M307.64,100.54c0,.46-.16.83-.67.82s-.45-.34-.41-.65.08-.91.56-1S307.64,100.16,307.64,100.54Z"/><path class="cls-2" d="M341.33,51.18c.3-1.08,1.05-1,1.61-1.08.36-.08.42.43.59.7.07.11.18.25,0,.38a.23.23,0,0,1-.38,0C342.71,50.24,342.1,50.67,341.33,51.18Z"/><path class="cls-3" d="M332.11,45.72c.23-.25.4-.59.82-.57.09.5.39,1-.28,1.4s-.83.29-1.09-.26l.33-.36C332.05,46,332.11,45.86,332.11,45.72Z"/><path class="cls-2" d="M282.61,68.49c-.47,0-.65-.27-.81-.55a.41.41,0,0,1,0-.39c.31-.28.52,0,.75.18l.2.1c.34.13,1-.54,1,.2C283.79,68.49,282.92,68.18,282.61,68.49Z"/><path class="cls-3" d="M339.1,55.06c-.43,0-.57-.22-.53-.49.13-.73.84-.59,1.31-.79.19-.08.5,0,.47.3C340.26,54.85,339.39,54.63,339.1,55.06Z"/><path class="cls-3" d="M301.44,99c.06-.45.4-.55.77-.62a.68.68,0,0,1,.05.71c-.12.36,0,1-.43,1C301.22,100,301.56,99.35,301.44,99Z"/><path class="cls-3" d="M302.54,40.91c0,.39-.22.72-.44.63a1.5,1.5,0,0,1-.87-1.3c0-.3.21-.4.44-.36C302.29,40,302.37,40.54,302.54,40.91Z"/><path class="cls-2" d="M331.88,76.34c.52,1.24,0,2-.76,2.89A4.48,4.48,0,0,1,331.88,76.34Z"/><path class="cls-3" d="M292.32,94.71c-.42,0-.55-.17-.5-.4.11-.49.28-1,.88-1.07.19,0,.65-.14.53.27A2.54,2.54,0,0,1,292.32,94.71Z"/><path class="cls-2" d="M298.33,38.65c0-.37.13-.55.41-.46.56.19.79.72,1.07,1.18.08.14-.09.48-.24.37C299.11,39.41,298.5,39.2,298.33,38.65Z"/><path class="cls-2" d="M308.14,95.87c.37-.21.39-.59.41-1,.29-.08.77-.64.65.28a2,2,0,0,1-1.61,1.8C307.68,96.54,308.28,96.35,308.14,95.87Z"/><path class="cls-3" d="M327.4,43.85c0-.45-.18-.93.17-1.34s.65-.61,1-.07C328.22,42.93,328.51,44,327.4,43.85Z"/><path class="cls-2" d="M285.24,70.73v-.34l1.67-.79C287.06,70.55,286.42,71,285.24,70.73Z"/><path class="cls-3" d="M337,49.85c-.11.52-.54.66-1,.75-.26.06-.61-.07-.47-.38s.43-.87,1-.9C336.82,49.31,336.94,49.58,337,49.85Z"/><path class="cls-3" d="M281.84,75.93c-.46,0-.77-.14-.73-.59a.43.43,0,0,1,.62-.42c.29.16.95-.07.83.63C282.47,76.07,282.05,75.85,281.84,75.93Z"/><path class="cls-3" d="M289.5,89.75a1.25,1.25,0,0,1-1.06.89c-.22.06-.49-.13-.41-.38a1.21,1.21,0,0,1,1-.87A.35.35,0,0,1,289.5,89.75Z"/><path class="cls-3" d="M285.54,86.22c-.42,0-.65-.13-.67-.41,0-.67.7-.52,1-.86.14-.16.48.09.47.3C286.34,85.82,285.82,86,285.54,86.22Z"/><path class="cls-3" d="M293.14,46.06c0,.41,0,.71-.37.65s-.63-.49-.73-.88a.39.39,0,0,1,.41-.53A.85.85,0,0,1,293.14,46.06Z"/><path class="cls-3" d="M323.54,39.92c0,.66.08,1.41-.88,1.55h0c.14-.61-.09-1.42.88-1.55Z"/><path class="cls-3" d="M342.89,75c.49.06.91.17,1,.64.06.3-.26.38-.46.27-.4-.22-1.11.13-1.23-.5C342.12,74.92,342.66,75.06,342.89,75Z"/><path class="cls-2" d="M312.26,35.41a2.06,2.06,0,0,1,.16,2.25C311.86,36.86,312.29,36.11,312.26,35.41Z"/><path class="cls-2" d="M287,73.92l-.39.13c.05-.43-.13-.88.2-1.37.29.3.72.3,1.07.43C287.86,73.77,287.15,73.47,287,73.92Z"/><path class="cls-2" d="M305.14,40.42c.13.71.59,1.35.23,2.16l-.53-2.11Z"/><path class="cls-3" d="M289,50.46a.73.73,0,0,1-.79-.77c0-.26.11-.43.41-.32s.74.35.8.81S289.12,50.44,289,50.46Z"/><path class="cls-2" d="M289,70.14c-.12.73-.41,1-.95.84-.08,0-.22-.14-.21-.18C288,70.26,288.55,70.41,289,70.14Z"/><path class="cls-2" d="M335.14,97.7l-.4-1.26C335.9,96.57,335.43,97.21,335.14,97.7Z"/><path class="cls-2" d="M335.67,64.23c-.09.27-.31.29-.54.26a.23.23,0,0,1-.24-.3.37.37,0,0,1,.42-.28C335.52,63.92,335.66,64,335.67,64.23Z"/><path class="cls-2" d="M298.48,86.78l-.33-.31c.38.09.27-.63.55-.43S298.7,86.57,298.48,86.78Z"/><path class="cls-2" d="M296.91,86.63a.1.1,0,0,0,0-.1c.32-.06.25.45.57.39l-.3.55A.85.85,0,0,1,296.91,86.63Z"/><path class="cls-2" d="M296.79,87.88c-.17.11-.25.35-.51.29-.14-.28-.16-.58.17-.69S296.66,87.75,296.79,87.88Z"/><path class="cls-3" d="M272,85c.06,0,.15,0,.16.08s0,.11-.06.17-.15,0-.16-.08S272,85.05,272,85Z"/><polygon class="cls-2" points="336.67 61.42 336.65 61.35 336.7 61.36 336.67 61.42"/><path class="cls-2" d="M332.64,77.17a.76.76,0,0,1,.06.16s-.05,0-.07.06a1.22,1.22,0,0,1-.07-.17S332.61,77.19,332.64,77.17Z"/><path class="cls-2" d="M335.78,48.93l-.06-.08.14-.07s0,.08,0,.1S335.81,48.92,335.78,48.93Z"/><path class="cls-3" d="M320.44,94.08l-.2.17-.06-.11.28,0Z"/><polygon class="cls-3" points="287.08 78.19 287.11 78.14 287.07 78.18 287.08 78.19"/><path class="cls-2" d="M345.08,55.56l.1-.1s0,0,0,.06-.06,0-.09,0Z"/><path class="cls-3" d="M341.94,90.5l.1,0-.07.07,0-.1Z"/><path class="cls-1" d="M342.62,38.75c-.14,0-.23-.13-.19-.29s.06,0,.08-.05l.1.35Z"/><path class="cls-1" d="M285.27,68.37a5.31,5.31,0,0,1,.05-2.8,14.14,14.14,0,0,1,1.42-4.73,1.54,1.54,0,0,0,1.71.47c.27-.07.67-.32.77,0s-.34.47-.67.5l-.44,0c.3.85.3.85-1,1l1.58.68h0c-.14,1-1.05.11-1.45.62.33.65,1.07.82,1.61,1.22,1.08.79,1.07,1.25-.1,1.87A18.62,18.62,0,0,1,285.27,68.37Z"/><path class="cls-1" d="M287.86,58.14a8.88,8.88,0,0,1,2.29-4c0,.06.07.16.12.18,1.38.44.83,1.44.29,1.91-.77.68-.31,1,.07,1.44a3.41,3.41,0,0,1,.29.48Z"/><path class="cls-1" d="M291.05,52.87a10.77,10.77,0,0,1,2.78-3.12c.14.4-.45.9.22,1.27.19.1.52.58.17.82a.73.73,0,0,1-1.08-.12c-.08-.12-.1-.28-.23-.29-.68.21.88,1.35-.56,1.2C292.15,54,291.42,52.46,291.05,52.87Z"/><path class="cls-3" d="M317.78,40.3c-.33-.14-.68-.39-.58-.7s0-1.1.78-1.11c.28,0,.49.19.41.38C318.18,39.34,318.39,40,317.78,40.3Z"/><path class="cls-1" d="M295.51,48.24A3.9,3.9,0,0,1,297.17,47a2.51,2.51,0,0,0,.39,1.11A3.36,3.36,0,0,1,295.51,48.24Z"/><path class="cls-1" d="M321.6,90.08c-.11.53.43,1.33-.23,1.56-.81.29-.81-.87-1.38-1.13.1-.17.26-.55.4-.37C320.88,90.74,321.21,90.17,321.6,90.08Z"/><path class="cls-1" d="M287,59.78a1.51,1.51,0,0,1,.5-1c.48.25,1,.49,1.43.76.14.07.34.21.23.43s-.28.11-.46.07C288.18,60,287.61,59.88,287,59.78Z"/><path class="cls-1" d="M294,49.6a.58.58,0,0,1,.61-.45c.13.28.26.59-.1.77S294.15,49.76,294,49.6Z"/><path class="cls-1" d="M303.11,89.91a.52.52,0,0,1-.59.14c-.11-.23-.07-.42.19-.49S303.07,89.69,303.11,89.91Z"/><path class="cls-1" d="M295.05,48.68c0-.26.13-.38.38-.38C295.52,48.64,295.44,48.82,295.05,48.68Z"/><path class="cls-1" d="M308.42,91.72a.45.45,0,0,1-.34.44c0-.12-.14-.26-.1-.34S308.25,91.67,308.42,91.72Z"/><path class="cls-1" d="M293.45,80.87h-.62C293,80.39,293.25,80.37,293.45,80.87Z"/><path class="cls-1" d="M306.18,91.75c.2.33.05.48-.27.56A.43.43,0,0,1,306.18,91.75Z"/><path class="cls-1" d="M305.43,91.28a.54.54,0,0,1-.36-.62C305.71,90.56,305.39,91,305.43,91.28Z"/><path class="cls-1" d="M292.68,83.32c0,.25-.17.35-.43.28C292.27,83.32,292.4,83.2,292.68,83.32Z"/><path class="cls-1" d="M288.65,63.62l.08-.17c.17.16,0,.13-.09.16Z"/><path class="cls-1" d="M292.11,83.64a.25.25,0,0,1-.28.24C291.8,83.66,291.88,83.56,292.11,83.64Z"/><path class="cls-1" d="M293,83.08a.25.25,0,0,1-.32.25C292.64,83.07,292.76,83,293,83.08Z"/><path class="cls-1" d="M294.52,82.7a.34.34,0,0,1-.35-.26C294.44,82.33,294.53,82.44,294.52,82.7Z"/><path class="cls-1" d="M301.18,46.15l.1,0-.09-.06Z"/><path class="cls-1" d="M332.11,45.72c0,.14-.06.23-.22.21S331.94,45.69,332.11,45.72Z"/><path class="cls-1" d="M304.85,90.61a.24.24,0,0,1-.36.12C304.55,90.52,304.66,90.46,304.85,90.61Z"/><path class="cls-1" d="M339.14,84.48a1.81,1.81,0,0,0-.47.31c-.57.64-1,.48-1.4-.18a2.18,2.18,0,0,0-1.42-1.29c-.55-.11-.52-.74-.79-1.1-.11-.15.15-.39.32-.34.48.17,1.14,0,1.43.5C337.33,83.37,338.61,83.42,339.14,84.48Z"/><path class="cls-1" d="M340.8,84.35c-.19.45-.17.69.25.78s.58.4.3.72a.58.58,0,0,1-.89,0,2,2,0,0,1-.58-1.41c0-.38.08-.69.54-.67S340.86,84.12,340.8,84.35Z"/><path class="cls-1" d="M336.13,88.27l0-.07,0,.06Z"/><path class="cls-1" d="M334.32,84.68l.1.08-.05,0s0,0,0-.08Z"/><path class="cls-1" d="M355.18,69.92a55.76,55.76,0,0,1-.87,8.7c-.12.59-.23,1-1,.83s-1-.59-.76-1.25a20.22,20.22,0,0,0,.81-5.83,41.25,41.25,0,0,0-1.09-12.32,64,64,0,0,0-2.66-7.76c-.24-.58-.38-1,.41-1.31s.78.37,1,.77a34.75,34.75,0,0,1,2.84,8.09A44.13,44.13,0,0,1,355.18,69.92Z"/><path class="cls-1" d="M292.46,105.74c0-.24.07-.46.38-.41.07,0,.19.16.17.2-.1.28-.36.17-.56.19Z"/><path class="cls-1" d="M340.54,75.94c-.11.33-.15.74-.59.81a.32.32,0,0,1-.39-.4c.1-.37.16-.85.58-1S340.46,75.7,340.54,75.94Z"/><path class="cls-1" d="M342.17,78.41c0-.18,0-.38.27-.37,0,0,.08,0,.08.07,0,.26-.18.26-.36.29Z"/><path class="cls-1" d="M334.45,66c.2,0,.27,0,.27.16a.58.58,0,0,1-.13.38c-.19.13-.23,0-.23-.19A1.79,1.79,0,0,1,334.45,66Z"/><path class="cls-1" d="M293.36,99.47l.08-.11s0,0,0,.06-.05,0-.08,0Z"/><text class="cls-4" transform="translate(0 119.52) scale(1.04 1)">VISION</text></g></g></svg>